<svg width="15" height="8" viewBox="0 0 15 8" fill="none" xmlns="http://www.w3.org/2000/svg">
<path d="M0.192 4.442C0.0586667 4.30867 -0.00522222 4.15311 0.000333333 3.97533C0.00588889 3.79756 0.0753333 3.642 0.208667 3.50867C0.342 3.38644 0.497556 3.32256 0.675333 3.317C0.853111 3.31144 1.00867 3.37533 1.142 3.50867L3.97533 6.342C4.10867 6.47533 4.17256 6.63089 4.167 6.80867C4.16144 6.98644 4.092 7.142 3.95867 7.27533C3.82533 7.39756 3.66978 7.46144 3.492 7.467C3.31422 7.47256 3.15867 7.40867 3.02533 7.27533L0.192 4.442ZM7.25867 5.85867L12.9253 0.192C13.0587 0.0586667 13.2142 -0.00522222 13.392 0.000333333C13.5698 0.00588889 13.7253 0.0753333 13.8587 0.208667C13.9809 0.342 14.0448 0.497556 14.0503 0.675333C14.0559 0.853111 13.992 1.00867 13.8587 1.142L7.72533 7.27533C7.592 7.40867 7.43644 7.47533 7.25867 7.47533C7.08089 7.47533 6.92533 7.40867 6.792 7.27533L3.95867 4.442C3.83644 4.31978 3.77533 4.167 3.77533 3.98367C3.77533 3.80033 3.83644 3.642 3.95867 3.50867C4.092 3.37533 4.25033 3.30867 4.43367 3.30867C4.617 3.30867 4.77533 3.37533 4.90867 3.50867L7.25867 5.85867ZM10.0753 1.15867L7.72533 3.50867C7.60311 3.63089 7.45033 3.692 7.267 3.692C7.08367 3.692 6.92533 3.63089 6.792 3.50867C6.65867 3.37533 6.592 3.217 6.592 3.03367C6.592 2.85033 6.65867 2.692 6.792 2.55867L9.142 0.208667C9.26422 0.0864445 9.417 0.0253333 9.60033 0.0253333C9.78367 0.0253333 9.942 0.0864445 10.0753 0.208667C10.2087 0.342 10.2753 0.500333 10.2753 0.683667C10.2753 0.867 10.2087 1.02533 10.0753 1.15867Z" fill="#6C5DD3"/>
</svg>
