<svg width="48" height="46" viewBox="0 0 48 46" fill="none" xmlns="http://www.w3.org/2000/svg">
<g filter="url(#filter0_d_82_1841)">
<path d="M28.44 14.1001C26.63 14.1001 25.01 14.9801 24 16.3301C22.99 14.9801 21.37 14.1001 19.56 14.1001C16.49 14.1001 14 16.6001 14 19.6901C14 20.8801 14.19 21.9801 14.52 23.0001C16.1 28.0001 20.97 30.9901 23.38 31.8101C23.72 31.9301 24.28 31.9301 24.62 31.8101C27.03 30.9901 31.9 28.0001 33.48 23.0001C33.81 21.9801 34 20.8801 34 19.6901C34 16.6001 31.51 14.1001 28.44 14.1001Z" fill="#FE4A49"/>
</g>
<defs>
<filter id="filter0_d_82_1841" x="0" y="0.100098" width="48" height="45.7998" filterUnits="userSpaceOnUse" color-interpolation-filters="sRGB">
<feFlood flood-opacity="0" result="BackgroundImageFix"/>
<feColorMatrix in="SourceAlpha" type="matrix" values="0 0 0 0 0 0 0 0 0 0 0 0 0 0 0 0 0 0 127 0" result="hardAlpha"/>
<feOffset/>
<feGaussianBlur stdDeviation="7"/>
<feComposite in2="hardAlpha" operator="out"/>
<feColorMatrix type="matrix" values="0 0 0 0 0.996078 0 0 0 0 0.290196 0 0 0 0 0.286275 0 0 0 0.25 0"/>
<feBlend mode="normal" in2="BackgroundImageFix" result="effect1_dropShadow_82_1841"/>
<feBlend mode="normal" in="SourceGraphic" in2="effect1_dropShadow_82_1841" result="shape"/>
</filter>
</defs>
</svg>
