<svg width="22" height="22" viewBox="0 0 22 22" fill="none" xmlns="http://www.w3.org/2000/svg">
<g clip-path="url(#clip0_2075_390)">
<path fill-rule="evenodd" clip-rule="evenodd" d="M8.18192 6.92744L8.16845 6.91391C8.12956 6.80869 8.08917 6.68994 8.05028 6.58472C7.9321 6.242 7.83936 5.89778 7.77354 5.56859V5.54154C7.76007 5.48893 7.76007 5.44984 7.74661 5.40926V5.35665C7.73315 5.31757 7.73315 5.27698 7.71968 5.2379V5.18529L7.70622 5.06654L7.69276 5.0004V4.89518L7.6793 4.81552V4.18269C7.6793 4.15563 7.69276 4.13008 7.69276 4.10302V4.02336C7.70622 3.95722 7.70622 3.90461 7.71968 3.852C7.71968 3.81292 7.73315 3.78586 7.73315 3.76031C7.73315 3.73475 7.74661 3.7077 7.74661 3.68064C7.76007 3.64156 7.76007 3.6145 7.77354 3.57542C7.77354 3.56189 7.77354 3.53634 7.787 3.50928C7.787 3.48223 7.80046 3.44314 7.80046 3.41759C7.81393 3.39053 7.81393 3.36498 7.82739 3.3259L7.85431 3.24623C7.85431 3.21917 7.86778 3.19362 7.88124 3.16656C7.88124 3.13951 7.8947 3.11395 7.90817 3.0869L7.93509 2.99521L7.96202 2.91554L8.00091 2.82385L8.02784 2.74418C8.0413 2.71712 8.05476 2.69157 8.06673 2.65249L8.10562 2.58635C8.11909 2.55929 8.13255 2.52021 8.14452 2.49466L8.18341 2.41499C8.19687 2.38793 8.2223 2.36238 8.23577 2.3233C8.24923 2.30977 8.26269 2.28422 8.27466 2.25716C8.30159 2.2301 8.31355 2.19102 8.34048 2.15194C8.35394 2.13841 8.36741 2.11286 8.36741 2.09933C8.39433 2.06025 8.41976 2.03319 8.44669 1.99411C8.46015 1.98058 8.47361 1.95503 8.48558 1.9415C8.51251 1.88889 8.5514 1.83628 8.59179 1.78367L8.61872 1.75661C8.64564 1.71753 8.68454 1.67695 8.72492 1.62434C8.73839 1.61081 8.75185 1.58525 8.77728 1.57173C8.80421 1.53264 8.82964 1.50559 8.85656 1.48003C8.87003 1.45298 8.89546 1.42742 8.90892 1.4139C8.93584 1.38684 8.96128 1.34776 8.9882 1.3222C9.01513 1.30868 9.04056 1.28312 9.06748 1.25607L9.14676 1.1764L9.21258 1.11026C9.25148 1.0832 9.2784 1.05765 9.30533 1.03059L9.38461 0.964455L9.47736 0.884788L9.55664 0.81865C9.58357 0.791593 9.62246 0.76604 9.66285 0.738983L9.72867 0.672845L9.84684 0.593178L9.92612 0.540568C9.96502 0.501486 10.0054 0.474429 10.0578 0.448876C10.0847 0.435348 10.0967 0.409794 10.1236 0.396266C10.1759 0.369209 10.2298 0.343656 10.2687 0.304574L10.3345 0.265492C10.3869 0.238435 10.4407 0.199354 10.4931 0.1738L10.5723 0.134718C10.6382 0.0956365 10.7175 0.0430264 10.7967 0.00244141L12.1296 1.86334C9.09441 3.06435 8.85656 5.3341 9.51625 7.80227L10.2163 7.3408L10.2029 7.40694L10.1894 7.434V7.46105L10.1759 7.48811L10.1625 7.52719V7.54072L10.149 7.5798V7.63241L10.1355 7.64594V7.69855L10.1221 7.71208V7.76469L10.1086 7.80377V7.84285L10.0952 7.86991V7.93605L10.0817 7.97513V8.08035L10.0682 8.13296V8.33138V8.42307L10.0817 8.45012V8.52979V8.5824L10.0952 8.59593V8.6756C10.1086 8.72821 10.1221 8.76729 10.1221 8.80787V8.8214L10.1355 8.86048C10.149 8.88754 10.149 8.92662 10.1625 8.95218V8.9657L10.1759 9.00479L10.1894 9.04387V9.08295L10.2029 9.09648V9.12353L10.2163 9.15059V9.16412L10.2298 9.2032L10.2433 9.23026V9.24379L10.2567 9.27084L10.2702 9.2979V9.31143L10.2836 9.35051L10.2971 9.38959V9.40312L10.3106 9.43018L10.324 9.45723L10.3375 9.48429V9.51135L10.351 9.52487L10.3644 9.56396L10.3779 9.60304L10.3913 9.61657L10.4048 9.64362V9.67068L10.4183 9.69774L10.4317 9.72479V9.73832L10.4587 9.7774L10.4721 9.83001L10.4856 9.84354L10.4991 9.8706L10.5125 9.89765V9.91118L10.526 9.96379H10.5394C9.98446 5.83315 10.7249 1.28012 16.2268 1.43945L16.4647 3.72273C13.232 3.23421 11.8857 5.0951 11.2261 7.56327L12.0578 7.49713C11.2799 8.28929 11.1468 8.84245 11.0286 9.92471C12.6127 6.07064 15.5282 2.49466 20.2268 5.39874L19.2769 7.4836C16.7294 5.45135 14.6322 6.37578 12.8237 8.18256L13.5761 8.55234C12.5065 8.84245 12.1251 9.26483 11.4774 10.1367C14.7638 7.59033 19.0915 5.9534 21.7048 10.8101L19.8439 12.1434C18.6427 9.1085 16.3734 8.87101 13.9052 9.53089L14.3674 10.2298C13.2979 9.93974 12.7578 10.1111 11.7541 10.547C15.8708 9.99235 20.4378 10.7319 20.2792 16.2349L17.9965 16.4724C18.4722 13.2391 16.6247 11.8938 14.1565 11.234L14.2089 12.0652C13.431 11.2866 12.876 11.1543 11.7945 11.0355C15.6479 12.6199 19.2246 15.536 16.3211 20.2333L14.2358 19.2833C16.2687 16.737 15.3308 14.6386 13.5357 12.8303L13.1662 13.5819C12.876 12.5131 12.4542 12.1298 11.5821 11.4835C14.1161 14.7694 15.7646 19.0984 10.9089 21.7109L9.56262 19.85C12.5978 18.649 12.8491 16.3792 12.1894 13.9111L11.4893 14.3725C11.7795 13.3038 11.6075 12.7627 11.1722 11.7601C11.7272 15.8772 10.9867 20.4437 5.47136 20.2844L5.24698 18.0011C8.46613 18.4761 9.8259 16.6287 10.4856 14.1606L9.64041 14.2132C10.4317 13.4346 10.5514 12.8799 10.683 11.7976C9.0989 15.6517 6.1834 19.2277 1.48481 16.3236L2.4347 14.2387C4.9822 16.271 7.07944 15.3345 8.87451 13.5398L8.12208 13.17C9.20361 12.8799 9.58656 12.4575 10.2328 11.5857C6.93434 14.12 2.61869 15.7689 0.00537109 10.9123L1.86626 9.56696C3.06746 12.6018 5.33673 12.8528 7.80495 12.193L7.34272 11.494C8.41228 11.7841 8.9523 11.6127 9.95604 11.1768C5.82589 11.7315 1.27239 10.9919 1.43096 5.4754L3.71369 5.25143C3.22603 8.47117 5.08542 9.83001 7.55364 10.4899L7.48782 9.64513C8.27915 10.4373 8.83412 10.556 9.91565 10.6883C6.06224 9.10399 2.48556 6.18789 5.38909 1.49056L7.47436 2.44054C5.44144 4.98688 6.3659 7.08527 8.17444 8.88002L8.54392 8.12845C8.83412 9.21072 9.25597 9.59252 10.1281 10.2404C9.33674 9.21072 8.6232 8.08937 8.1879 6.94097L8.18192 6.92744Z"/>
</g>
<defs>
<clipPath id="clip0_2075_390">
<rect width="21.6949" height="21.6949" fill="white"/>
</clipPath>
</defs>
</svg>
