<svg width="25" height="25" viewBox="0 0 25 25" fill="none" xmlns="http://www.w3.org/2000/svg">
<path fill-rule="evenodd" clip-rule="evenodd" d="M20.5034 21.8218L20.0484 18.1352C22.545 16.3852 24.1667 13.5968 24.1667 10.4468C24.1667 5.1385 19.5584 0.833496 13.865 0.833496C8.98837 0.833496 4.90504 3.99516 3.84337 8.24183C3.73837 8.68516 4.15837 9.08183 4.59004 8.94183C5.43004 8.66183 6.32837 8.52183 7.25004 8.52183C11.7534 8.52183 15.4167 11.9985 15.4167 16.2685C15.4167 17.4818 15.1017 18.6952 14.5184 19.7685C14.3667 20.0485 14.4367 20.3985 14.7167 20.5618L18.7534 22.9652C19.5817 23.4668 20.62 22.7902 20.5034 21.8218ZM12.2902 19.955C13.1535 18.94 13.6668 17.6566 13.6668 16.2683C13.6668 12.955 10.7968 10.2716 7.25016 10.2716C5.89683 10.2716 4.6485 10.6566 3.61016 11.3333C1.93016 12.4066 0.833496 14.215 0.833496 16.2683C0.833496 18.2283 1.83683 19.9666 3.40016 21.0516L3.1085 23.35C3.0385 23.945 3.69183 24.3766 4.20516 24.0616L7.25016 22.2533C9.3035 22.2533 11.1352 21.355 12.2902 19.955Z" fill="white"/>
</svg>
