<svg width="20" height="20" viewBox="0 0 20 20" fill="none" xmlns="http://www.w3.org/2000/svg">
<path fill-rule="evenodd" clip-rule="evenodd" d="M2 9C2 5.13401 5.13401 2 9 2C12.866 2 16 5.13401 16 9C16 12.866 12.866 16 9 16C5.13401 16 2 12.866 2 9ZM9 0C4.02944 0 0 4.02944 0 9C0 13.9706 4.02944 18 9 18C11.125 18 13.0779 17.2636 14.6175 16.032L18.2928 19.7073C18.6834 20.0978 19.3165 20.0978 19.7071 19.7073C20.0976 19.3168 20.0976 18.6836 19.7071 18.2931L16.0318 14.6178C17.2635 13.0781 18 11.1251 18 9C18 4.02944 13.9706 0 9 0Z"/>
</svg>
