<svg width="24" height="25" viewBox="0 0 24 25" fill="none" xmlns="http://www.w3.org/2000/svg">
<path d="M11.7502 24.1668C10.1363 24.1668 8.61961 23.8606 7.20016 23.2481C5.78072 22.6356 4.546 21.8043 3.496 20.7543C2.446 19.7043 1.61475 18.4696 1.00225 17.0502C0.389746 15.6307 0.0834961 14.1141 0.0834961 12.5002C0.0834961 10.8863 0.389746 9.36961 1.00225 7.95016C1.61475 6.53072 2.446 5.296 3.496 4.246C4.546 3.196 5.78072 2.36475 7.20016 1.75225C8.61961 1.13975 10.1363 0.833496 11.7502 0.833496C13.3641 0.833496 14.8807 1.13975 16.3002 1.75225C17.7196 2.36475 18.9543 3.196 20.0043 4.246C21.0543 5.296 21.8856 6.53072 22.4981 7.95016C23.1106 9.36961 23.4168 10.8863 23.4168 12.5002C23.4168 14.1141 23.1106 15.6307 22.4981 17.0502C21.8856 18.4696 21.0543 19.7043 20.0043 20.7543C18.9543 21.8043 17.7196 22.6356 16.3002 23.2481C14.8807 23.8606 13.3641 24.1668 11.7502 24.1668ZM11.7502 21.8335C12.8002 21.8335 13.8113 21.6634 14.7835 21.3231C15.7557 20.9828 16.6502 20.4918 17.4668 19.8502L4.40016 6.7835C3.7585 7.60016 3.26752 8.49461 2.92725 9.46683C2.58697 10.4391 2.41683 11.4502 2.41683 12.5002C2.41683 15.1057 3.321 17.3127 5.12933 19.121C6.93766 20.9293 9.14461 21.8335 11.7502 21.8335ZM19.1002 18.2168C19.7418 17.4002 20.2328 16.5057 20.5731 15.5335C20.9134 14.5613 21.0835 13.5502 21.0835 12.5002C21.0835 9.89461 20.1793 7.68766 18.371 5.87933C16.5627 4.071 14.3557 3.16683 11.7502 3.16683C10.7002 3.16683 9.68905 3.33697 8.71683 3.67725C7.74461 4.01752 6.85016 4.5085 6.0335 5.15016L19.1002 18.2168Z" fill="#828289"/>
</svg>
