<svg width="18" height="22" viewBox="0 0 18 22" fill="none" xmlns="http://www.w3.org/2000/svg">
<path d="M2 18.5C1.45 18.5 0.979167 18.3042 0.5875 17.9125C0.195833 17.5208 0 17.05 0 16.5V9.5C0 8.26667 0.2375 7.10417 0.7125 6.0125C1.1875 4.92083 1.83333 3.96667 2.65 3.15C3.46667 2.33333 4.42083 1.6875 5.5125 1.2125C6.60417 0.7375 7.76667 0.5 9 0.5C10.2333 0.5 11.3958 0.7375 12.4875 1.2125C13.5792 1.6875 14.5333 2.33333 15.35 3.15C16.1667 3.96667 16.8125 4.92083 17.2875 6.0125C17.7625 7.10417 18 8.26667 18 9.5V19.5C18 20.05 17.8042 20.5208 17.4125 20.9125C17.0208 21.3042 16.55 21.5 16 21.5H10C9.71667 21.5 9.47917 21.4042 9.2875 21.2125C9.09583 21.0208 9 20.7833 9 20.5C9 20.2167 9.09583 19.9792 9.2875 19.7875C9.47917 19.5958 9.71667 19.5 10 19.5H16V18.5H14C13.45 18.5 12.9792 18.3042 12.5875 17.9125C12.1958 17.5208 12 17.05 12 16.5V12.5C12 11.95 12.1958 11.4792 12.5875 11.0875C12.9792 10.6958 13.45 10.5 14 10.5H16V9.5C16 7.56667 15.3167 5.91667 13.95 4.55C12.5833 3.18333 10.9333 2.5 9 2.5C7.06667 2.5 5.41667 3.18333 4.05 4.55C2.68333 5.91667 2 7.56667 2 9.5V10.5H4C4.55 10.5 5.02083 10.6958 5.4125 11.0875C5.80417 11.4792 6 11.95 6 12.5V16.5C6 17.05 5.80417 17.5208 5.4125 17.9125C5.02083 18.3042 4.55 18.5 4 18.5H2Z" fill="white"/>
</svg>
