<svg width="24" height="24" viewBox="0 0 24 24" fill="none" xmlns="http://www.w3.org/2000/svg">
<path d="M11.3 8.2999L9.225 6.1999C9.025 5.9999 8.925 5.76657 8.925 5.4999C8.925 5.23324 9.025 4.9999 9.225 4.7999L11.3033 2.6999C11.5011 2.4999 11.7363 2.3999 12.009 2.3999C12.2818 2.3999 12.5205 2.4999 12.725 2.6999L14.8 4.7999C15 4.9999 15.1 5.23324 15.1 5.4999C15.1 5.76657 15 5.9999 14.8 6.1999L12.722 8.2999C12.524 8.4999 12.2887 8.5999 12.016 8.5999C11.7432 8.5999 11.5045 8.4999 11.3 8.2999ZM2 19.9999C1.71667 19.9999 1.47917 19.9041 1.2875 19.7124C1.09583 19.5207 1 19.2832 1 18.9999V15.9999C1 15.4332 1.19583 14.9582 1.5875 14.5749C1.97917 14.1916 2.45 13.9999 3 13.9999H6.275C6.60833 13.9999 6.925 14.0832 7.225 14.2499C7.525 14.4166 7.76667 14.6416 7.95 14.9249C8.43333 15.5749 9.02917 16.0832 9.7375 16.4499C10.4458 16.8166 11.2 16.9999 12 16.9999C12.8167 16.9999 13.5792 16.8166 14.2875 16.4499C14.9958 16.0832 15.5833 15.5749 16.05 14.9249C16.2667 14.6416 16.5208 14.4166 16.8125 14.2499C17.1042 14.0832 17.4083 13.9999 17.725 13.9999H21C21.5667 13.9999 22.0417 14.1916 22.425 14.5749C22.8083 14.9582 23 15.4332 23 15.9999V18.9999C23 19.2832 22.9042 19.5207 22.7125 19.7124C22.5208 19.9041 22.2833 19.9999 22 19.9999H17C16.7167 19.9999 16.4792 19.9041 16.2875 19.7124C16.0958 19.5207 16 19.2832 16 18.9999V17.7249C15.4167 18.1416 14.7875 18.4582 14.1125 18.6749C13.4375 18.8916 12.7333 18.9999 12 18.9999C11.2833 18.9999 10.5833 18.8874 9.9 18.6624C9.21667 18.4374 8.58333 18.1166 8 17.6999V18.9999C8 19.2832 7.90417 19.5207 7.7125 19.7124C7.52083 19.9041 7.28333 19.9999 7 19.9999H2ZM4 12.9999C3.16667 12.9999 2.45833 12.7082 1.875 12.1249C1.29167 11.5416 1 10.8332 1 9.9999C1 9.1499 1.29167 8.4374 1.875 7.8624C2.45833 7.2874 3.16667 6.9999 4 6.9999C4.85 6.9999 5.5625 7.2874 6.1375 7.8624C6.7125 8.4374 7 9.1499 7 9.9999C7 10.8332 6.7125 11.5416 6.1375 12.1249C5.5625 12.7082 4.85 12.9999 4 12.9999ZM20 12.9999C19.1667 12.9999 18.4583 12.7082 17.875 12.1249C17.2917 11.5416 17 10.8332 17 9.9999C17 9.1499 17.2917 8.4374 17.875 7.8624C18.4583 7.2874 19.1667 6.9999 20 6.9999C20.85 6.9999 21.5625 7.2874 22.1375 7.8624C22.7125 8.4374 23 9.1499 23 9.9999C23 10.8332 22.7125 11.5416 22.1375 12.1249C21.5625 12.7082 20.85 12.9999 20 12.9999Z" fill="#828289"/>
</svg>
