<svg width="390" height="659" viewBox="0 0 390 659" fill="none" xmlns="http://www.w3.org/2000/svg">
<path fill-rule="evenodd" clip-rule="evenodd" d="M-156.812 -209.312L-157.602 -210.106C-159.886 -216.286 -162.258 -223.259 -164.542 -229.439C-171.482 -249.566 -176.929 -269.781 -180.795 -289.113V-290.702C-181.585 -293.792 -181.585 -296.087 -182.376 -298.471V-301.56C-183.167 -303.856 -183.167 -306.239 -183.957 -308.534V-311.624L-184.748 -318.598L-185.539 -322.482V-328.661L-186.329 -333.34V-370.504C-186.329 -372.093 -185.539 -373.594 -185.539 -375.183V-379.861C-184.748 -383.745 -184.748 -386.835 -183.957 -389.925C-183.957 -392.22 -183.167 -393.809 -183.167 -395.31C-183.167 -396.81 -182.376 -398.399 -182.376 -399.988C-181.585 -402.283 -181.585 -403.872 -180.795 -406.168C-180.795 -406.962 -180.795 -408.463 -180.004 -410.052C-180.004 -411.641 -179.213 -413.936 -179.213 -415.437C-178.423 -417.026 -178.423 -418.526 -177.632 -420.821L-176.051 -425.5C-176.051 -427.089 -175.26 -428.59 -174.469 -430.179C-174.469 -431.768 -173.679 -433.268 -172.888 -434.857L-171.307 -440.242L-169.725 -444.921L-167.441 -450.306L-165.86 -454.984C-165.069 -456.573 -164.279 -458.074 -163.576 -460.369L-161.292 -464.253C-160.501 -465.842 -159.711 -468.137 -159.008 -469.638L-156.724 -474.317C-155.933 -475.906 -154.44 -477.406 -153.649 -479.702C-152.858 -480.496 -152.068 -481.997 -151.365 -483.586C-149.784 -485.175 -149.081 -487.47 -147.499 -489.765C-146.709 -490.56 -145.918 -492.06 -145.918 -492.855C-144.337 -495.15 -142.843 -496.739 -141.262 -499.034C-140.471 -499.829 -139.681 -501.329 -138.978 -502.124C-137.397 -505.213 -135.113 -508.303 -132.741 -511.393L-131.159 -512.982C-129.578 -515.277 -127.294 -517.66 -124.922 -520.75C-124.131 -521.545 -123.341 -523.045 -121.847 -523.84C-120.266 -526.135 -118.772 -527.724 -117.191 -529.225C-116.401 -530.814 -114.907 -532.314 -114.116 -533.109C-112.535 -534.698 -111.042 -536.993 -109.46 -538.494C-107.879 -539.288 -106.386 -540.789 -104.804 -542.378L-100.148 -547.056L-96.2828 -550.94C-93.9987 -552.529 -92.4174 -554.03 -90.8361 -555.619L-86.1801 -559.503L-80.7334 -564.182L-76.0773 -568.066C-74.496 -569.655 -72.212 -571.156 -69.84 -572.745L-65.9745 -576.629L-59.0344 -581.307L-54.3784 -584.397C-52.0942 -586.692 -49.7223 -588.281 -46.6475 -589.782C-45.0662 -590.576 -44.3635 -592.077 -42.7822 -592.872C-39.7074 -594.461 -36.5448 -595.961 -34.2607 -598.256L-30.3953 -600.552C-27.3205 -602.141 -24.158 -604.436 -21.0832 -605.937L-16.4271 -608.232C-12.5618 -610.527 -7.9057 -613.617 -3.24963 -616L75.0248 -506.714C-103.223 -436.182 -117.191 -302.885 -78.4493 -157.935L-37.3354 -185.036L-38.1261 -181.152L-38.9167 -179.563V-177.974L-39.7074 -176.385L-40.498 -174.09V-173.295L-41.2888 -171V-167.91L-42.0793 -167.116V-164.026L-42.87 -163.232V-160.142L-43.6606 -157.847V-155.552L-44.4513 -153.963V-150.079L-45.2419 -147.783V-141.604L-46.0326 -138.514V-126.862V-121.477L-45.2419 -119.888V-115.209V-112.12L-44.4513 -111.325V-106.647C-43.6606 -103.557 -42.87 -101.262 -42.87 -98.8784V-98.0839L-42.0793 -95.7887C-41.2887 -94.1998 -41.2887 -91.9045 -40.498 -90.4039V-89.6094L-39.7074 -87.3142L-38.9167 -85.019V-82.7239L-38.1261 -81.9294V-80.3404L-37.3354 -78.7514V-77.9569L-36.5448 -75.6617L-35.7542 -74.0728V-73.2783L-34.9635 -71.6893L-34.1729 -70.1003V-69.3058L-33.3822 -67.0107L-32.5916 -64.7155V-63.921L-31.8009 -62.332L-31.0102 -60.7431L-30.2196 -59.1541V-57.5652L-29.4289 -56.7707L-28.6383 -54.4755L-27.8476 -52.1803L-27.057 -51.3858L-26.2663 -49.7968V-48.2079L-25.4757 -46.6189L-24.685 -45.0299V-44.2354L-23.1037 -41.9402L-22.3131 -38.8506L-21.5225 -38.0561L-20.7318 -36.4672L-19.9412 -34.8782V-34.0836L-19.1505 -30.994H-18.3599C-50.9522 -273.577 -7.46643 -540.965 315.646 -531.608L329.614 -397.517C139.77 -426.206 60.7053 -316.92 21.9634 -171.971L70.808 -175.855C25.1259 -129.334 17.3073 -96.848 10.3671 -33.2892C103.4 -259.629 274.62 -469.638 550.557 -299.089L494.772 -176.65C345.164 -295.999 221.998 -241.709 115.787 -135.601L159.976 -113.885C97.163 -96.848 74.7612 -72.0424 36.7222 -20.8422C229.729 -170.382 483.879 -266.515 637.353 18.7054L528.068 97.0064C457.524 -81.2231 324.255 -95.1708 179.303 -56.4175L206.448 -15.3691C143.636 -32.4064 111.922 -22.343 52.9744 3.25714C294.738 -29.3168 562.944 14.1151 553.632 337.294L419.573 351.242C447.509 161.36 339.014 82.3525 194.062 43.5993L197.136 92.416C151.454 46.689 118.862 38.9207 55.3463 31.9468C281.648 124.99 491.698 296.246 321.181 572.109L198.718 516.318C318.106 366.778 263.024 243.545 157.604 137.349L135.905 181.487C118.862 118.722 94.0883 96.2119 42.8716 58.2532C191.69 251.225 288.5 505.46 3.33911 658.884L-75.726 549.598C102.522 479.065 117.281 345.769 78.5388 200.819L37.425 227.92C54.4679 165.156 44.3651 133.376 18.8007 74.496C51.3931 316.284 7.90735 584.467 -315.996 575.11L-329.173 441.019C-140.12 468.914 -60.2643 360.422 -21.5225 215.473L-71.1577 218.563C-24.685 172.836 -17.657 140.262 -9.92621 76.7029C-102.959 303.043 -274.179 513.052 -550.116 342.502L-494.331 220.063C-344.723 339.413 -221.557 284.417 -116.137 179.015L-160.326 157.299C-96.8099 140.262 -74.3203 115.456 -36.3691 64.256C-230.078 213.09 -483.526 309.928 -637 24.7083L-527.715 -54.299C-457.171 123.931 -323.902 138.673 -178.95 99.9196L-206.095 58.8711C-143.283 75.9084 -111.569 65.8449 -52.6213 40.2449C-295.175 72.8187 -562.591 29.3868 -553.279 -294.587L-419.22 -307.74C-447.859 -118.652 -338.661 -38.8506 -193.709 -0.0973511L-197.574 -49.7086C-151.101 -3.18701 -118.509 3.7868 -54.9933 11.5551C-281.295 -81.488 -491.345 -252.744 -320.828 -528.607L-198.365 -472.816C-317.753 -323.276 -263.462 -200.043 -157.251 -94.6411L-135.552 -138.779C-118.509 -75.2203 -93.7352 -52.7982 -42.5186 -14.7512C-88.9913 -75.2204 -130.896 -141.074 -156.46 -208.517L-156.812 -209.312Z" fill="url(#paint0_radial_1_4836)" fill-opacity="0.15"/>
<defs>
<radialGradient id="paint0_radial_1_4836" cx="0" cy="0" r="1" gradientUnits="userSpaceOnUse" gradientTransform="translate(0.176514 21.442) rotate(52.6898) scale(302.449 302.324)">
<stop stop-color="#6C5DD3"/>
<stop offset="1" stop-color="#38306D" stop-opacity="0"/>
</radialGradient>
</defs>
</svg>
