<svg width="44" height="45" viewBox="0 0 44 45" fill="none" xmlns="http://www.w3.org/2000/svg">
<g clip-path="url(#clip0_1539_14603)">
<path fill-rule="evenodd" clip-rule="evenodd" d="M16.5923 14.5506L16.565 14.5232C16.4861 14.3098 16.4042 14.0689 16.3253 13.8555C16.0856 13.1605 15.8975 12.4623 15.764 11.7947V11.7398C15.7367 11.6331 15.7367 11.5539 15.7094 11.4716V11.3649C15.6821 11.2856 15.6821 11.2033 15.6548 11.124V11.0173L15.6275 10.7765L15.6002 10.6424V10.429L15.5729 10.2674V8.98393C15.5729 8.92906 15.6002 8.87723 15.6002 8.82236V8.66078C15.6275 8.52664 15.6275 8.41994 15.6548 8.31324C15.6548 8.23398 15.6821 8.17911 15.6821 8.12728C15.6821 8.07546 15.7094 8.02058 15.7094 7.96571C15.7367 7.88644 15.7367 7.83157 15.764 7.75231C15.764 7.72487 15.764 7.67305 15.7913 7.61817C15.7913 7.5633 15.8186 7.48403 15.8186 7.43221C15.8459 7.37733 15.8459 7.32551 15.8732 7.24624L15.9279 7.08467C15.9279 7.0298 15.9552 6.97797 15.9825 6.9231C15.9825 6.86822 16.0098 6.8164 16.0371 6.76152L16.0917 6.57556L16.1463 6.41399L16.2252 6.22802L16.2798 6.06645C16.3071 6.01157 16.3344 5.95975 16.3587 5.88049L16.4375 5.74635C16.4648 5.69147 16.4922 5.61221 16.5164 5.56039L16.5953 5.39881C16.6226 5.34394 16.6742 5.29211 16.7015 5.21285C16.7288 5.18541 16.7561 5.13359 16.7804 5.07871C16.835 5.02384 16.8592 4.94458 16.9139 4.86531C16.9412 4.83788 16.9685 4.78605 16.9685 4.75861C17.0231 4.67935 17.0747 4.62448 17.1293 4.54521C17.1566 4.51778 17.1839 4.46595 17.2081 4.43851C17.2628 4.33181 17.3416 4.22511 17.4235 4.11841L17.4782 4.06354C17.5328 3.98428 17.6116 3.90197 17.6936 3.79527C17.7209 3.76783 17.7482 3.716 17.7997 3.68857C17.8544 3.6093 17.9059 3.55443 17.9605 3.5026C17.9878 3.44773 18.0394 3.3959 18.0667 3.36847C18.1213 3.31359 18.1729 3.23433 18.2275 3.1825C18.2821 3.15507 18.3337 3.10324 18.3883 3.04837L18.5491 2.88679L18.6826 2.75265C18.7615 2.69778 18.8161 2.64595 18.8707 2.59108L19.0315 2.45694L19.2196 2.29537L19.3804 2.16123C19.435 2.10636 19.5139 2.05453 19.5958 1.99966L19.7293 1.86552L19.969 1.70395L20.1297 1.59725C20.2086 1.51798 20.2905 1.46311 20.3967 1.41128C20.4513 1.38385 20.4756 1.33202 20.5302 1.30458C20.6364 1.24971 20.7456 1.19788 20.8245 1.11862L20.958 1.03936C21.0642 0.984485 21.1734 0.905222 21.2796 0.853396L21.4404 0.774133C21.5739 0.694871 21.7347 0.588171 21.8954 0.505859L24.5986 4.27999C18.4429 6.71579 17.9605 11.3191 19.2985 16.3249L20.7183 15.389L20.691 15.5231L20.6637 15.578V15.6329L20.6364 15.6877L20.6091 15.767V15.7944L20.5818 15.8737V15.9804L20.5545 16.0078V16.1145L20.5272 16.142V16.2487L20.4999 16.3279V16.4072L20.4726 16.4621V16.5962L20.4453 16.6755V16.8889L20.418 16.9956V17.398V17.5839L20.4453 17.6388V17.8004V17.9071L20.4726 17.9345V18.0961C20.4999 18.2028 20.5272 18.2821 20.5272 18.3644V18.3918L20.5545 18.4711C20.5818 18.526 20.5818 18.6052 20.6091 18.657V18.6845L20.6364 18.7637L20.6637 18.843V18.9223L20.691 18.9497V19.0046L20.7183 19.0595V19.0869L20.7456 19.1661L20.7729 19.221V19.2485L20.8002 19.3033L20.8275 19.3582V19.3856L20.8548 19.4649L20.8821 19.5442V19.5716L20.9094 19.6265L20.9368 19.6814L20.9641 19.7362V19.7911L20.9914 19.8185L21.0187 19.8978L21.046 19.9771L21.0733 20.0045L21.1006 20.0594V20.1143L21.1279 20.1691L21.1552 20.224V20.2514L21.2098 20.3307L21.2371 20.4374L21.2644 20.4648L21.2917 20.5197L21.319 20.5746V20.602L21.3463 20.7087H21.3736C20.2481 12.3313 21.7498 3.09714 32.9083 3.42029L33.3907 8.05107C26.8346 7.06028 24.1041 10.8344 22.7662 15.8402L24.453 15.706C22.8754 17.3126 22.6054 18.4345 22.3657 20.6295C25.5785 12.8129 31.4915 5.56039 41.0209 11.4502L39.0944 15.6786C33.9277 11.5569 29.6743 13.4318 26.0063 17.0962L27.5324 17.8461C25.3631 18.4345 24.5895 19.2911 23.2759 21.0593C29.9412 15.895 38.7182 12.5751 44.0183 22.4251L40.2442 25.1292C37.808 18.9741 33.2057 18.4924 28.1998 19.8307L29.1373 21.2483C26.9681 20.6599 25.8728 21.0075 23.8371 21.8916C32.1863 20.7666 41.4486 22.2665 41.1271 33.4274L36.4974 33.909C37.4622 27.3516 33.7153 24.6231 28.7095 23.2848L28.8157 24.9706C27.2381 23.3915 26.1125 23.1232 23.919 22.8824C31.7342 26.0955 38.9882 32.0098 33.0995 41.5365L28.8703 39.6099C32.9933 34.4456 31.0911 30.1898 27.4504 26.5223L26.7011 28.0466C26.1125 25.8791 25.257 25.1017 23.4882 23.7908C28.6276 30.455 31.9709 39.2349 22.123 44.5333L19.3925 40.7592C25.5482 38.3234 26.0579 33.72 24.72 28.7143L23.3001 29.6502C23.8887 27.4826 23.5398 26.3852 22.6569 24.3518C23.7825 32.7018 22.2807 41.9633 11.0949 41.6402L10.6398 37.0094C17.1687 37.9728 19.9265 34.2261 21.2644 29.2203L19.5503 29.327C21.1552 27.7479 21.3979 26.6229 21.6649 24.428C18.452 32.2445 12.539 39.4971 3.0097 33.6072L4.9362 29.3789C10.1029 33.5005 14.3563 31.6013 17.9969 27.9613L16.4709 27.2113C18.6644 26.623 19.4411 25.7663 20.7517 23.9981C14.062 29.138 5.30936 32.4823 0.00921631 22.6324L3.78333 19.9039C6.21952 26.059 10.8219 26.5681 15.8277 25.2298L14.8903 23.8122C17.0595 24.4005 18.1547 24.053 20.1904 23.1689C11.8139 24.2938 2.57889 22.7939 2.90048 11.6057L7.53014 11.1515C6.54111 17.6815 10.3122 20.4374 15.3181 21.7757L15.1846 20.0624C16.7895 21.669 17.915 21.9099 20.1085 22.1781C12.2933 18.9649 5.03935 13.0507 10.9281 3.52394L15.1573 5.45064C11.0342 10.6149 12.9092 14.8707 16.5771 18.5107L17.3265 16.9864C17.915 19.1814 18.7706 19.9557 20.5393 21.2697C18.9344 19.1814 17.4873 16.9072 16.6044 14.5781L16.5923 14.5506Z" fill="#6C5DD3"/>
</g>
<defs>
<clipPath id="clip0_1539_14603">
<rect width="44" height="44" fill="white" transform="translate(0 0.5)"/>
</clipPath>
</defs>
</svg>
