<svg width="40" height="40" viewBox="0 0 40 40" fill="none" xmlns="http://www.w3.org/2000/svg">
<mask id="path-1-inside-1_3052_1385" fill="white">
<rect y="8.39642" width="16.6966" height="22.2621" rx="0.625" transform="rotate(-20 0 8.39642)"/>
</mask>
<rect y="8.39642" width="16.6966" height="22.2621" rx="0.625" transform="rotate(-20 0 8.39642)" fill="#494E5F" stroke="#1F2128" stroke-width="2.5" mask="url(#path-1-inside-1_3052_1385)"/>
<mask id="path-2-inside-2_3052_1385" fill="white">
<rect x="11.6519" y="1.3913" width="16.6966" height="22.2621" rx="0.625"/>
</mask>
<rect x="11.6519" y="1.3913" width="16.6966" height="22.2621" rx="0.625" fill="#494E5F" stroke="#1F2128" stroke-width="2.5" mask="url(#path-2-inside-2_3052_1385)"/>
<mask id="path-3-inside-3_3052_1385" fill="white">
<rect x="24.3108" width="16.6966" height="22.2621" rx="0.625" transform="rotate(20 24.3108 0)"/>
</mask>
<rect x="24.3108" width="16.6966" height="22.2621" rx="0.625" transform="rotate(20 24.3108 0)" fill="#494E5F" stroke="#1F2128" stroke-width="2.5" mask="url(#path-3-inside-3_3052_1385)"/>
<g clip-path="url(#clip0_3052_1385)">
<circle cx="20" cy="25" r="15" fill="#6C5DD3"/>
<path d="M16.25 21.25C15.2145 21.25 14.375 20.4105 14.375 19.375C14.375 18.3395 15.2145 17.5 16.25 17.5C17.2855 17.5 18.125 18.3395 18.125 19.375C18.125 20.4105 17.2855 21.25 16.25 21.25Z" fill="#1F2128"/>
<path d="M16.25 27.5C15.2145 27.5 14.375 26.6605 14.375 25.625C14.375 24.5895 15.2145 23.75 16.25 23.75C17.2855 23.75 18.125 24.5895 18.125 25.625C18.125 26.6605 17.2855 27.5 16.25 27.5Z" fill="#1F2128"/>
<path d="M10.625 24.375C9.58947 24.375 8.75 23.5355 8.75 22.5C8.75 21.4645 9.58947 20.625 10.625 20.625C11.6605 20.625 12.5 21.4645 12.5 22.5C12.5 23.5355 11.6605 24.375 10.625 24.375Z" fill="#1F2128"/>
</g>
<defs>
<clipPath id="clip0_3052_1385">
<rect width="30" height="30" fill="white" transform="translate(5 10)"/>
</clipPath>
</defs>
</svg>
