<svg width="358" height="196" viewBox="0 0 358 196" fill="none" xmlns="http://www.w3.org/2000/svg">
<path fill-rule="evenodd" clip-rule="evenodd" d="M116.173 5.69006L115.856 5.37224C114.942 2.90028 113.993 0.110519 113.079 -2.36145C110.302 -10.413 108.122 -18.4998 106.575 -26.2335V-26.8691C106.258 -28.1051 106.258 -29.0233 105.942 -29.9767V-31.2127C105.626 -32.1309 105.626 -33.0843 105.309 -34.0025V-35.2385L104.993 -38.0283L104.676 -39.5821V-42.054L104.36 -43.9256V-58.7927C104.36 -59.4283 104.676 -60.0287 104.676 -60.6643V-62.5359C104.993 -64.0897 104.993 -65.3257 105.309 -66.5617C105.309 -67.4799 105.626 -68.1155 105.626 -68.7158C105.626 -69.3162 105.942 -69.9518 105.942 -70.5875C106.258 -71.5056 106.258 -72.1413 106.575 -73.0594C106.575 -73.3772 106.575 -73.9776 106.891 -74.6132C106.891 -75.2489 107.208 -76.167 107.208 -76.7673C107.524 -77.403 107.524 -78.0033 107.84 -78.9215L108.473 -80.7931C108.473 -81.4287 108.79 -82.0291 109.106 -82.6647C109.106 -83.3004 109.423 -83.9007 109.739 -84.5364L110.372 -86.6905L111.005 -88.5621L111.919 -90.7162L112.552 -92.5879C112.868 -93.2235 113.184 -93.8238 113.466 -94.742L114.38 -96.2958C114.696 -96.9315 115.013 -97.8496 115.294 -98.4499L116.208 -100.322C116.524 -100.957 117.122 -101.558 117.439 -102.476C117.755 -102.794 118.071 -103.394 118.353 -104.029C118.986 -104.665 119.267 -105.583 119.9 -106.501C120.216 -106.819 120.532 -107.42 120.532 -107.737C121.165 -108.656 121.763 -109.291 122.396 -110.209C122.712 -110.527 123.029 -111.128 123.31 -111.445C123.943 -112.681 124.857 -113.917 125.806 -115.153L126.439 -115.789C127.072 -116.707 127.986 -117.661 128.935 -118.897C129.252 -119.214 129.568 -119.815 130.166 -120.133C130.799 -121.051 131.396 -121.686 132.029 -122.287C132.346 -122.922 132.943 -123.523 133.26 -123.84C133.892 -124.476 134.49 -125.394 135.123 -125.995C135.756 -126.312 136.354 -126.913 136.986 -127.548L138.85 -129.42L140.397 -130.974C141.311 -131.609 141.944 -132.21 142.576 -132.845L144.44 -134.399L146.62 -136.271L148.483 -137.825C149.116 -138.46 150.03 -139.061 150.979 -139.696L152.526 -141.25L155.304 -143.122L157.167 -144.358C158.081 -145.276 159.03 -145.912 160.261 -146.512C160.894 -146.83 161.175 -147.43 161.808 -147.748C163.038 -148.383 164.304 -148.984 165.218 -149.902L166.765 -150.82C167.996 -151.456 169.261 -152.374 170.492 -152.974L172.355 -153.892C173.902 -154.811 175.765 -156.047 177.629 -157L208.955 -113.282C137.619 -85.0661 132.029 -31.7424 147.534 26.2426L163.988 15.4013L163.671 16.9551L163.355 17.5908V18.2264L163.038 18.8621L162.722 19.7802V20.098L162.405 21.0162V22.2522L162.089 22.57V23.806L161.773 24.1238V25.3598L161.456 26.2779V27.1961L161.14 27.8317V29.3855L160.823 30.3037V32.7757L160.507 34.0116V38.673V40.8272L160.823 41.4628V43.3344V44.5704L161.14 44.8882V46.7599C161.456 47.9958 161.773 48.914 161.773 49.8675V50.1853L162.089 51.1035C162.406 51.7391 162.406 52.6573 162.722 53.2576V53.5754L163.038 54.4936L163.355 55.4117V56.3299L163.671 56.6477V57.2833L163.988 57.919V58.2368L164.304 59.155L164.62 59.7906V60.1084L164.937 60.7441L165.253 61.3797V61.6976L165.57 62.6157L165.886 63.5339V63.8517L166.203 64.4873L166.519 65.123L166.835 65.7586V66.3943L167.152 66.7121L167.468 67.6302L167.785 68.5484L168.101 68.8662L168.417 69.5019V70.1375L168.734 70.7732L169.05 71.4088V71.7266L169.683 72.6448L170 73.8808L170.316 74.1986L170.632 74.8342L170.949 75.4699V75.7877L171.265 77.0237H171.582C158.538 -20.0183 175.941 -126.983 305.252 -123.24L310.842 -69.5987C234.866 -81.0756 203.224 -37.3573 187.719 20.6277L207.267 19.074C188.985 37.6842 185.856 50.6797 183.078 76.1055C220.311 -14.4387 288.833 -98.4499 399.264 -30.2239L376.939 18.7561C317.065 -28.9879 267.774 -7.27005 225.268 35.177L242.952 43.8642C217.814 50.6797 208.849 60.6028 193.626 81.0848C270.868 21.2634 372.579 -17.1932 434 96.9053L390.264 128.229C362.032 56.9302 308.697 51.3506 250.687 66.8533L261.551 83.2742C236.413 76.4587 223.721 80.4844 200.13 90.7254C296.884 77.6946 404.221 95.069 400.495 224.352L346.844 229.932C358.024 153.972 314.604 122.366 256.593 106.864L257.824 126.392C239.542 108.1 226.498 104.992 201.079 102.202C291.646 139.423 375.708 207.931 307.467 318.287L258.457 295.968C306.236 236.147 284.192 186.849 242.003 144.367L233.319 162.024C226.498 136.916 216.584 127.911 196.087 112.726C255.644 189.922 294.388 291.625 180.266 353L148.624 309.282C219.959 281.066 225.865 227.742 210.361 169.757L193.907 180.599C200.728 155.491 196.684 142.778 186.453 119.224C199.497 215.948 182.094 323.231 52.4668 319.487L47.1932 265.846C122.853 277.005 154.811 233.604 170.316 175.619L150.452 176.855C169.05 158.563 171.863 145.532 174.957 120.106C137.725 210.651 69.202 294.662 -41.2289 226.436L-18.9036 177.456C40.9702 225.2 90.2616 203.199 132.451 161.035L114.767 152.348C140.186 145.532 149.186 135.609 164.374 115.127C86.8513 174.666 -14.5792 213.405 -76 99.3066L-32.2636 67.7009C-4.03185 138.999 49.3026 144.897 107.313 129.394L96.4493 112.973C121.587 119.789 134.279 115.763 157.87 105.522C60.7993 118.553 -46.2213 101.178 -42.4946 -28.4229L11.1563 -33.6847C-0.305115 41.9572 43.3961 73.8808 101.407 89.3835L99.8596 69.5372C118.458 88.1475 131.502 90.9373 156.921 94.0449C66.3542 56.8243 -17.7083 -11.6842 50.5332 -122.039L99.5432 -99.7212C51.7637 -39.8999 73.4913 9.39801 115.997 51.5625L124.681 33.9057C131.502 59.3315 141.416 68.3012 161.913 83.5214C143.315 59.3315 126.544 32.9875 116.314 6.00789L116.173 5.69006Z" fill="url(#paint0_radial_1539_14855)"/>
<defs>
<radialGradient id="paint0_radial_1539_14855" cx="0" cy="0" r="1" gradientUnits="userSpaceOnUse" gradientTransform="translate(179 105) rotate(90) scale(154)">
<stop stop-color="#6C5DD3"/>
<stop offset="1" stop-color="#6C5DD3" stop-opacity="0"/>
</radialGradient>
</defs>
</svg>
