<svg width="270" height="234" viewBox="0 0 270 234" fill="none" xmlns="http://www.w3.org/2000/svg">
<g filter="url(#filter0_dd_1_4858)">
<mask id="path-1-inside-1_1_4858" fill="white">
<path fill-rule="evenodd" clip-rule="evenodd" d="M122.464 96.5727L122.401 96.5091C122.218 96.0144 122.028 95.4561 121.845 94.9614C121.289 93.3501 120.853 91.7317 120.544 90.184V90.0568C120.481 89.8095 120.481 89.6257 120.417 89.4349V89.1875C120.354 89.0038 120.354 88.813 120.291 88.6292V88.3819L120.228 87.8236L120.164 87.5126V87.0179L120.101 86.6434V83.6681C120.101 83.5409 120.164 83.4208 120.164 83.2936V82.919C120.228 82.608 120.228 82.3607 120.291 82.1133C120.291 81.9296 120.354 81.8024 120.354 81.6822C120.354 81.5621 120.417 81.4349 120.417 81.3077C120.481 81.1239 120.481 80.9967 120.544 80.813C120.544 80.7494 120.544 80.6292 120.607 80.502C120.607 80.3748 120.671 80.1911 120.671 80.0709C120.734 79.9437 120.734 79.8236 120.797 79.6398L120.924 79.2653C120.924 79.1381 120.987 79.0179 121.05 78.8907C121.05 78.7635 121.114 78.6434 121.177 78.5162L121.304 78.0851L121.43 77.7105L121.613 77.2794L121.74 76.9049C121.803 76.7777 121.866 76.6575 121.922 76.4738L122.105 76.1628C122.169 76.0356 122.232 75.8519 122.288 75.7317L122.471 75.3572C122.534 75.23 122.654 75.1098 122.717 74.9261C122.78 74.8625 122.844 74.7423 122.9 74.6151C123.027 74.4879 123.083 74.3042 123.21 74.1204C123.273 74.0568 123.336 73.9367 123.336 73.8731C123.463 73.6893 123.582 73.5621 123.709 73.3784C123.772 73.3148 123.835 73.1946 123.892 73.131C124.018 72.8837 124.201 72.6363 124.391 72.389L124.518 72.2618C124.644 72.078 124.827 71.8872 125.017 71.6398C125.08 71.5762 125.144 71.4561 125.263 71.3925C125.39 71.2087 125.509 71.0815 125.636 70.9614C125.699 70.8342 125.819 70.7141 125.882 70.6504C126.009 70.5232 126.128 70.3395 126.255 70.2194C126.381 70.1557 126.501 70.0356 126.628 69.9084L127 69.5338L127.31 69.2229C127.493 69.0957 127.619 68.9755 127.746 68.8483L128.119 68.5374L128.555 68.1628L128.927 67.8519C129.054 67.7247 129.237 67.6045 129.427 67.4773L129.736 67.1663L130.292 66.7918L130.665 66.5444C130.847 66.3607 131.037 66.2335 131.283 66.1133C131.41 66.0497 131.466 65.9296 131.593 65.866C131.839 65.7388 132.092 65.6186 132.275 65.4349L132.585 65.2512C132.831 65.1239 133.084 64.9402 133.33 64.8201L133.703 64.6363V64.6363C134.308 64.2769 135.061 64.4379 135.471 65.0102L139.533 70.6815C140.29 71.7392 139.846 73.2249 138.676 73.7939C126.639 79.6488 125.815 89.7533 128.737 100.686L132.029 98.5162L131.966 98.8271L131.902 98.9543V99.0815L131.839 99.2087L131.776 99.3925V99.4561L131.712 99.6398V99.8872L131.649 99.9508V100.198L131.586 100.262V100.509L131.523 100.693V100.877L131.459 101.004V101.315L131.396 101.499V101.993L131.333 102.241V103.173V103.605L131.396 103.732V104.106V104.354L131.459 104.417V104.792C131.523 105.039 131.586 105.223 131.586 105.414V105.477L131.649 105.661C131.712 105.788 131.712 105.972 131.776 106.092V106.156L131.839 106.339L131.902 106.523V106.707L131.966 106.771V106.898L132.029 107.025V107.089L132.092 107.272L132.156 107.4V107.463L132.219 107.59L132.282 107.718V107.781L132.345 107.965L132.409 108.149V108.212L132.472 108.339L132.535 108.467L132.599 108.594V108.721L132.662 108.785L132.725 108.968L132.789 109.152L132.852 109.216L132.915 109.343V109.47L132.978 109.597L133.042 109.725V109.788L133.168 109.972L133.232 110.219L133.295 110.283L133.358 110.41L133.421 110.537V110.601L133.485 110.848H133.548C130.999 91.878 134.262 71.0129 158.525 70.7539C159.527 70.7432 160.365 71.515 160.469 72.5119L161.138 78.9345C161.274 80.2359 160.14 81.31 158.835 81.2147C145.48 80.2396 139.697 88.635 136.776 99.5621L140.687 99.2512C137.029 102.976 136.403 105.576 135.848 110.665C143.123 92.9659 156.369 76.5145 177.566 88.4819C178.443 88.9771 178.781 90.0726 178.363 90.9893L175.691 96.8544C175.151 98.0391 173.64 98.394 172.564 97.6623C161.511 90.1513 152.297 94.4721 144.288 102.474L147.825 104.212C142.796 105.576 141.003 107.562 137.958 111.661C153.05 99.9676 172.813 92.3533 185.173 113.284C185.684 114.15 185.43 115.266 184.613 115.852L179.375 119.604C178.318 120.362 176.832 119.918 176.263 118.748C170.407 106.712 160.305 105.89 149.372 108.813L151.546 112.099C146.517 110.735 143.978 111.541 139.259 113.59C158.165 111.043 179.091 114.302 179.356 138.569C179.367 139.571 178.595 140.41 177.598 140.514L171.168 141.183C169.87 141.318 168.797 140.189 168.889 138.887C169.825 125.523 161.484 119.742 150.554 116.82L150.8 120.728C147.143 117.067 144.534 116.445 139.449 115.887C157.144 123.163 173.599 136.412 161.634 157.603C161.139 158.481 160.044 158.818 159.127 158.4L153.261 155.728C152.076 155.188 151.721 153.677 152.453 152.599C159.959 141.551 155.585 132.333 147.635 124.325L145.898 127.859C144.534 122.834 142.55 121.032 138.45 117.993C150.088 133.084 157.753 152.856 136.821 165.212C135.958 165.722 134.846 165.472 134.259 164.66L130.464 159.414C129.699 158.357 130.141 156.864 131.315 156.293C143.348 150.438 144.227 140.336 141.305 129.407L138.014 131.576C139.378 126.552 138.57 124.007 136.523 119.294C139.072 138.2 135.81 159.123 111.494 159.388C110.487 159.399 109.646 158.621 109.548 157.619L108.916 151.184C108.788 149.89 109.915 148.825 111.213 148.916C124.531 149.852 130.373 141.511 133.295 130.58L129.321 130.827C133.042 127.166 133.604 124.559 134.223 119.47C126.948 137.169 113.702 153.62 92.5049 141.653C91.6277 141.158 91.2902 140.062 91.7079 139.146L94.3801 133.28C94.9199 132.096 96.4308 131.741 97.5078 132.472C108.56 139.977 117.771 135.609 125.72 127.661L122.183 125.923C127.268 124.559 129.068 122.573 132.106 118.474C116.957 130.113 97.245 137.78 84.8874 116.845C84.3778 115.981 84.6284 114.869 85.4409 114.282L90.6859 110.49C91.7431 109.725 93.235 110.168 93.8059 111.341C99.662 123.374 109.762 124.251 120.692 121.329L118.518 118.043C123.547 119.407 126.086 118.601 130.805 116.552C111.839 119.099 90.9736 115.841 90.7076 91.5199C90.6966 90.513 91.4751 89.6722 92.4772 89.5738L98.8988 88.9438C100.196 88.8165 101.262 89.9488 101.166 91.2491C100.191 104.563 108.581 110.4 119.51 113.322L119.201 109.35C122.921 113.074 125.53 113.633 130.615 114.255C112.92 106.979 96.4653 93.7301 108.43 72.5385C108.925 71.6613 110.02 71.3239 110.937 71.7415L116.803 74.4139C117.988 74.9538 118.343 76.4653 117.611 77.5421C110.098 88.5902 114.42 97.8049 122.429 105.753L124.166 102.219C125.53 107.308 127.514 109.103 131.614 112.149C127.894 107.308 124.539 102.036 122.492 96.6363L122.464 96.5727Z"/>
</mask>
<path fill-rule="evenodd" clip-rule="evenodd" d="M122.464 96.5727L122.401 96.5091C122.218 96.0144 122.028 95.4561 121.845 94.9614C121.289 93.3501 120.853 91.7317 120.544 90.184V90.0568C120.481 89.8095 120.481 89.6257 120.417 89.4349V89.1875C120.354 89.0038 120.354 88.813 120.291 88.6292V88.3819L120.228 87.8236L120.164 87.5126V87.0179L120.101 86.6434V83.6681C120.101 83.5409 120.164 83.4208 120.164 83.2936V82.919C120.228 82.608 120.228 82.3607 120.291 82.1133C120.291 81.9296 120.354 81.8024 120.354 81.6822C120.354 81.5621 120.417 81.4349 120.417 81.3077C120.481 81.1239 120.481 80.9967 120.544 80.813C120.544 80.7494 120.544 80.6292 120.607 80.502C120.607 80.3748 120.671 80.1911 120.671 80.0709C120.734 79.9437 120.734 79.8236 120.797 79.6398L120.924 79.2653C120.924 79.1381 120.987 79.0179 121.05 78.8907C121.05 78.7635 121.114 78.6434 121.177 78.5162L121.304 78.0851L121.43 77.7105L121.613 77.2794L121.74 76.9049C121.803 76.7777 121.866 76.6575 121.922 76.4738L122.105 76.1628C122.169 76.0356 122.232 75.8519 122.288 75.7317L122.471 75.3572C122.534 75.23 122.654 75.1098 122.717 74.9261C122.78 74.8625 122.844 74.7423 122.9 74.6151C123.027 74.4879 123.083 74.3042 123.21 74.1204C123.273 74.0568 123.336 73.9367 123.336 73.8731C123.463 73.6893 123.582 73.5621 123.709 73.3784C123.772 73.3148 123.835 73.1946 123.892 73.131C124.018 72.8837 124.201 72.6363 124.391 72.389L124.518 72.2618C124.644 72.078 124.827 71.8872 125.017 71.6398C125.08 71.5762 125.144 71.4561 125.263 71.3925C125.39 71.2087 125.509 71.0815 125.636 70.9614C125.699 70.8342 125.819 70.7141 125.882 70.6504C126.009 70.5232 126.128 70.3395 126.255 70.2194C126.381 70.1557 126.501 70.0356 126.628 69.9084L127 69.5338L127.31 69.2229C127.493 69.0957 127.619 68.9755 127.746 68.8483L128.119 68.5374L128.555 68.1628L128.927 67.8519C129.054 67.7247 129.237 67.6045 129.427 67.4773L129.736 67.1663L130.292 66.7918L130.665 66.5444C130.847 66.3607 131.037 66.2335 131.283 66.1133C131.41 66.0497 131.466 65.9296 131.593 65.866C131.839 65.7388 132.092 65.6186 132.275 65.4349L132.585 65.2512C132.831 65.1239 133.084 64.9402 133.33 64.8201L133.703 64.6363V64.6363C134.308 64.2769 135.061 64.4379 135.471 65.0102L139.533 70.6815C140.29 71.7392 139.846 73.2249 138.676 73.7939C126.639 79.6488 125.815 89.7533 128.737 100.686L132.029 98.5162L131.966 98.8271L131.902 98.9543V99.0815L131.839 99.2087L131.776 99.3925V99.4561L131.712 99.6398V99.8872L131.649 99.9508V100.198L131.586 100.262V100.509L131.523 100.693V100.877L131.459 101.004V101.315L131.396 101.499V101.993L131.333 102.241V103.173V103.605L131.396 103.732V104.106V104.354L131.459 104.417V104.792C131.523 105.039 131.586 105.223 131.586 105.414V105.477L131.649 105.661C131.712 105.788 131.712 105.972 131.776 106.092V106.156L131.839 106.339L131.902 106.523V106.707L131.966 106.771V106.898L132.029 107.025V107.089L132.092 107.272L132.156 107.4V107.463L132.219 107.59L132.282 107.718V107.781L132.345 107.965L132.409 108.149V108.212L132.472 108.339L132.535 108.467L132.599 108.594V108.721L132.662 108.785L132.725 108.968L132.789 109.152L132.852 109.216L132.915 109.343V109.47L132.978 109.597L133.042 109.725V109.788L133.168 109.972L133.232 110.219L133.295 110.283L133.358 110.41L133.421 110.537V110.601L133.485 110.848H133.548C130.999 91.878 134.262 71.0129 158.525 70.7539C159.527 70.7432 160.365 71.515 160.469 72.5119L161.138 78.9345C161.274 80.2359 160.14 81.31 158.835 81.2147C145.48 80.2396 139.697 88.635 136.776 99.5621L140.687 99.2512C137.029 102.976 136.403 105.576 135.848 110.665C143.123 92.9659 156.369 76.5145 177.566 88.4819C178.443 88.9771 178.781 90.0726 178.363 90.9893L175.691 96.8544C175.151 98.0391 173.64 98.394 172.564 97.6623C161.511 90.1513 152.297 94.4721 144.288 102.474L147.825 104.212C142.796 105.576 141.003 107.562 137.958 111.661C153.05 99.9676 172.813 92.3533 185.173 113.284C185.684 114.15 185.43 115.266 184.613 115.852L179.375 119.604C178.318 120.362 176.832 119.918 176.263 118.748C170.407 106.712 160.305 105.89 149.372 108.813L151.546 112.099C146.517 110.735 143.978 111.541 139.259 113.59C158.165 111.043 179.091 114.302 179.356 138.569C179.367 139.571 178.595 140.41 177.598 140.514L171.168 141.183C169.87 141.318 168.797 140.189 168.889 138.887C169.825 125.523 161.484 119.742 150.554 116.82L150.8 120.728C147.143 117.067 144.534 116.445 139.449 115.887C157.144 123.163 173.599 136.412 161.634 157.603C161.139 158.481 160.044 158.818 159.127 158.4L153.261 155.728C152.076 155.188 151.721 153.677 152.453 152.599C159.959 141.551 155.585 132.333 147.635 124.325L145.898 127.859C144.534 122.834 142.55 121.032 138.45 117.993C150.088 133.084 157.753 152.856 136.821 165.212C135.958 165.722 134.846 165.472 134.259 164.66L130.464 159.414C129.699 158.357 130.141 156.864 131.315 156.293C143.348 150.438 144.227 140.336 141.305 129.407L138.014 131.576C139.378 126.552 138.57 124.007 136.523 119.294C139.072 138.2 135.81 159.123 111.494 159.388C110.487 159.399 109.646 158.621 109.548 157.619L108.916 151.184C108.788 149.89 109.915 148.825 111.213 148.916C124.531 149.852 130.373 141.511 133.295 130.58L129.321 130.827C133.042 127.166 133.604 124.559 134.223 119.47C126.948 137.169 113.702 153.62 92.5049 141.653C91.6277 141.158 91.2902 140.062 91.7079 139.146L94.3801 133.28C94.9199 132.096 96.4308 131.741 97.5078 132.472C108.56 139.977 117.771 135.609 125.72 127.661L122.183 125.923C127.268 124.559 129.068 122.573 132.106 118.474C116.957 130.113 97.245 137.78 84.8874 116.845C84.3778 115.981 84.6284 114.869 85.4409 114.282L90.6859 110.49C91.7431 109.725 93.235 110.168 93.8059 111.341C99.662 123.374 109.762 124.251 120.692 121.329L118.518 118.043C123.547 119.407 126.086 118.601 130.805 116.552C111.839 119.099 90.9736 115.841 90.7076 91.5199C90.6966 90.513 91.4751 89.6722 92.4772 89.5738L98.8988 88.9438C100.196 88.8165 101.262 89.9488 101.166 91.2491C100.191 104.563 108.581 110.4 119.51 113.322L119.201 109.35C122.921 113.074 125.53 113.633 130.615 114.255C112.92 106.979 96.4653 93.7301 108.43 72.5385C108.925 71.6613 110.02 71.3239 110.937 71.7415L116.803 74.4139C117.988 74.9538 118.343 76.4653 117.611 77.5421C110.098 88.5902 114.42 97.8049 122.429 105.753L124.166 102.219C125.53 107.308 127.514 109.103 131.614 112.149C127.894 107.308 124.539 102.036 122.492 96.6363L122.464 96.5727Z" fill="url(#paint0_linear_1_4858)"/>
<path fill-rule="evenodd" clip-rule="evenodd" d="M122.464 96.5727L122.401 96.5091C122.218 96.0144 122.028 95.4561 121.845 94.9614C121.289 93.3501 120.853 91.7317 120.544 90.184V90.0568C120.481 89.8095 120.481 89.6257 120.417 89.4349V89.1875C120.354 89.0038 120.354 88.813 120.291 88.6292V88.3819L120.228 87.8236L120.164 87.5126V87.0179L120.101 86.6434V83.6681C120.101 83.5409 120.164 83.4208 120.164 83.2936V82.919C120.228 82.608 120.228 82.3607 120.291 82.1133C120.291 81.9296 120.354 81.8024 120.354 81.6822C120.354 81.5621 120.417 81.4349 120.417 81.3077C120.481 81.1239 120.481 80.9967 120.544 80.813C120.544 80.7494 120.544 80.6292 120.607 80.502C120.607 80.3748 120.671 80.1911 120.671 80.0709C120.734 79.9437 120.734 79.8236 120.797 79.6398L120.924 79.2653C120.924 79.1381 120.987 79.0179 121.05 78.8907C121.05 78.7635 121.114 78.6434 121.177 78.5162L121.304 78.0851L121.43 77.7105L121.613 77.2794L121.74 76.9049C121.803 76.7777 121.866 76.6575 121.922 76.4738L122.105 76.1628C122.169 76.0356 122.232 75.8519 122.288 75.7317L122.471 75.3572C122.534 75.23 122.654 75.1098 122.717 74.9261C122.78 74.8625 122.844 74.7423 122.9 74.6151C123.027 74.4879 123.083 74.3042 123.21 74.1204C123.273 74.0568 123.336 73.9367 123.336 73.8731C123.463 73.6893 123.582 73.5621 123.709 73.3784C123.772 73.3148 123.835 73.1946 123.892 73.131C124.018 72.8837 124.201 72.6363 124.391 72.389L124.518 72.2618C124.644 72.078 124.827 71.8872 125.017 71.6398C125.08 71.5762 125.144 71.4561 125.263 71.3925C125.39 71.2087 125.509 71.0815 125.636 70.9614C125.699 70.8342 125.819 70.7141 125.882 70.6504C126.009 70.5232 126.128 70.3395 126.255 70.2194C126.381 70.1557 126.501 70.0356 126.628 69.9084L127 69.5338L127.31 69.2229C127.493 69.0957 127.619 68.9755 127.746 68.8483L128.119 68.5374L128.555 68.1628L128.927 67.8519C129.054 67.7247 129.237 67.6045 129.427 67.4773L129.736 67.1663L130.292 66.7918L130.665 66.5444C130.847 66.3607 131.037 66.2335 131.283 66.1133C131.41 66.0497 131.466 65.9296 131.593 65.866C131.839 65.7388 132.092 65.6186 132.275 65.4349L132.585 65.2512C132.831 65.1239 133.084 64.9402 133.33 64.8201L133.703 64.6363V64.6363C134.308 64.2769 135.061 64.4379 135.471 65.0102L139.533 70.6815C140.29 71.7392 139.846 73.2249 138.676 73.7939C126.639 79.6488 125.815 89.7533 128.737 100.686L132.029 98.5162L131.966 98.8271L131.902 98.9543V99.0815L131.839 99.2087L131.776 99.3925V99.4561L131.712 99.6398V99.8872L131.649 99.9508V100.198L131.586 100.262V100.509L131.523 100.693V100.877L131.459 101.004V101.315L131.396 101.499V101.993L131.333 102.241V103.173V103.605L131.396 103.732V104.106V104.354L131.459 104.417V104.792C131.523 105.039 131.586 105.223 131.586 105.414V105.477L131.649 105.661C131.712 105.788 131.712 105.972 131.776 106.092V106.156L131.839 106.339L131.902 106.523V106.707L131.966 106.771V106.898L132.029 107.025V107.089L132.092 107.272L132.156 107.4V107.463L132.219 107.59L132.282 107.718V107.781L132.345 107.965L132.409 108.149V108.212L132.472 108.339L132.535 108.467L132.599 108.594V108.721L132.662 108.785L132.725 108.968L132.789 109.152L132.852 109.216L132.915 109.343V109.47L132.978 109.597L133.042 109.725V109.788L133.168 109.972L133.232 110.219L133.295 110.283L133.358 110.41L133.421 110.537V110.601L133.485 110.848H133.548C130.999 91.878 134.262 71.0129 158.525 70.7539C159.527 70.7432 160.365 71.515 160.469 72.5119L161.138 78.9345C161.274 80.2359 160.14 81.31 158.835 81.2147C145.48 80.2396 139.697 88.635 136.776 99.5621L140.687 99.2512C137.029 102.976 136.403 105.576 135.848 110.665C143.123 92.9659 156.369 76.5145 177.566 88.4819C178.443 88.9771 178.781 90.0726 178.363 90.9893L175.691 96.8544C175.151 98.0391 173.64 98.394 172.564 97.6623C161.511 90.1513 152.297 94.4721 144.288 102.474L147.825 104.212C142.796 105.576 141.003 107.562 137.958 111.661C153.05 99.9676 172.813 92.3533 185.173 113.284C185.684 114.15 185.43 115.266 184.613 115.852L179.375 119.604C178.318 120.362 176.832 119.918 176.263 118.748C170.407 106.712 160.305 105.89 149.372 108.813L151.546 112.099C146.517 110.735 143.978 111.541 139.259 113.59C158.165 111.043 179.091 114.302 179.356 138.569C179.367 139.571 178.595 140.41 177.598 140.514L171.168 141.183C169.87 141.318 168.797 140.189 168.889 138.887C169.825 125.523 161.484 119.742 150.554 116.82L150.8 120.728C147.143 117.067 144.534 116.445 139.449 115.887C157.144 123.163 173.599 136.412 161.634 157.603C161.139 158.481 160.044 158.818 159.127 158.4L153.261 155.728C152.076 155.188 151.721 153.677 152.453 152.599C159.959 141.551 155.585 132.333 147.635 124.325L145.898 127.859C144.534 122.834 142.55 121.032 138.45 117.993C150.088 133.084 157.753 152.856 136.821 165.212C135.958 165.722 134.846 165.472 134.259 164.66L130.464 159.414C129.699 158.357 130.141 156.864 131.315 156.293C143.348 150.438 144.227 140.336 141.305 129.407L138.014 131.576C139.378 126.552 138.57 124.007 136.523 119.294C139.072 138.2 135.81 159.123 111.494 159.388C110.487 159.399 109.646 158.621 109.548 157.619L108.916 151.184C108.788 149.89 109.915 148.825 111.213 148.916C124.531 149.852 130.373 141.511 133.295 130.58L129.321 130.827C133.042 127.166 133.604 124.559 134.223 119.47C126.948 137.169 113.702 153.62 92.5049 141.653C91.6277 141.158 91.2902 140.062 91.7079 139.146L94.3801 133.28C94.9199 132.096 96.4308 131.741 97.5078 132.472C108.56 139.977 117.771 135.609 125.72 127.661L122.183 125.923C127.268 124.559 129.068 122.573 132.106 118.474C116.957 130.113 97.245 137.78 84.8874 116.845C84.3778 115.981 84.6284 114.869 85.4409 114.282L90.6859 110.49C91.7431 109.725 93.235 110.168 93.8059 111.341C99.662 123.374 109.762 124.251 120.692 121.329L118.518 118.043C123.547 119.407 126.086 118.601 130.805 116.552C111.839 119.099 90.9736 115.841 90.7076 91.5199C90.6966 90.513 91.4751 89.6722 92.4772 89.5738L98.8988 88.9438C100.196 88.8165 101.262 89.9488 101.166 91.2491C100.191 104.563 108.581 110.4 119.51 113.322L119.201 109.35C122.921 113.074 125.53 113.633 130.615 114.255C112.92 106.979 96.4653 93.7301 108.43 72.5385C108.925 71.6613 110.02 71.3239 110.937 71.7415L116.803 74.4139C117.988 74.9538 118.343 76.4653 117.611 77.5421C110.098 88.5902 114.42 97.8049 122.429 105.753L124.166 102.219C125.53 107.308 127.514 109.103 131.614 112.149C127.894 107.308 124.539 102.036 122.492 96.6363L122.464 96.5727Z" stroke="url(#paint1_linear_1_4858)" stroke-width="2" mask="url(#path-1-inside-1_1_4858)"/>
</g>
<defs>
<filter id="filter0_dd_1_4858" x="0.623047" y="-35.5547" width="268.814" height="269.031" filterUnits="userSpaceOnUse" color-interpolation-filters="sRGB">
<feFlood flood-opacity="0" result="BackgroundImageFix"/>
<feColorMatrix in="SourceAlpha" type="matrix" values="0 0 0 0 0 0 0 0 0 0 0 0 0 0 0 0 0 0 127 0" result="hardAlpha"/>
<feOffset dy="-16"/>
<feGaussianBlur stdDeviation="42"/>
<feComposite in2="hardAlpha" operator="out"/>
<feColorMatrix type="matrix" values="0 0 0 0 0.385251 0 0 0 0 0.295833 0 0 0 0 1 0 0 0 1 0"/>
<feBlend mode="normal" in2="BackgroundImageFix" result="effect1_dropShadow_1_4858"/>
<feColorMatrix in="SourceAlpha" type="matrix" values="0 0 0 0 0 0 0 0 0 0 0 0 0 0 0 0 0 0 127 0" result="hardAlpha"/>
<feOffset dy="-16"/>
<feGaussianBlur stdDeviation="42"/>
<feComposite in2="hardAlpha" operator="out"/>
<feColorMatrix type="matrix" values="0 0 0 0 0.385251 0 0 0 0 0.295833 0 0 0 0 1 0 0 0 1 0"/>
<feBlend mode="normal" in2="effect1_dropShadow_1_4858" result="effect2_dropShadow_1_4858"/>
<feBlend mode="normal" in="SourceGraphic" in2="effect2_dropShadow_1_4858" result="shape"/>
</filter>
<linearGradient id="paint0_linear_1_4858" x1="135.032" y1="64.0144" x2="135.032" y2="166.078" gradientUnits="userSpaceOnUse">
<stop offset="0.238159" stop-color="#9E91FF"/>
<stop offset="0.45" stop-color="#6C5DD3"/>
<stop offset="1" stop-color="#3D21FF"/>
</linearGradient>
<linearGradient id="paint1_linear_1_4858" x1="135.032" y1="64.0144" x2="135.032" y2="166.078" gradientUnits="userSpaceOnUse">
<stop stop-color="white"/>
<stop offset="0.55" stop-color="white" stop-opacity="0"/>
</linearGradient>
</defs>
</svg>
