<svg width="390" height="517" viewBox="0 0 390 517" fill="none" xmlns="http://www.w3.org/2000/svg">
  <defs>
    <filter id="filter0_dd_1_4842" x="-62.7192" y="0.743408" width="515.54" height="516.144" filterUnits="userSpaceOnUse" color-interpolation-filters="sRGB">
      <feFlood flood-opacity="0" result="BackgroundImageFix"/>
      <feColorMatrix in="SourceAlpha" type="matrix" values="0 0 0 0 0 0 0 0 0 0 0 0 0 0 0 0 0 0 127 0" result="hardAlpha"/>
      <feOffset dy="-33"/>
      <feGaussianBlur stdDeviation="87"/>
      <feComposite in2="hardAlpha" operator="out"/>
      <feColorMatrix type="matrix" values="0 0 0 0 0.385251 0 0 0 0 0.295833 0 0 0 0 1 0 0 0 1 0"/>
      <feBlend mode="normal" in2="BackgroundImageFix" result="effect1_dropShadow_1_4842"/>
      <feColorMatrix in="SourceAlpha" type="matrix" values="0 0 0 0 0 0 0 0 0 0 0 0 0 0 0 0 0 0 127 0" result="hardAlpha"/>
      <feOffset dy="-33"/>
      <feGaussianBlur stdDeviation="87"/>
      <feComposite in2="hardAlpha" operator="out"/>
      <feColorMatrix type="matrix" values="0 0 0 0 0.385251 0 0 0 0 0.295833 0 0 0 0 1 0 0 0 1 0"/>
      <feBlend mode="normal" in2="effect1_dropShadow_1_4842" result="effect2_dropShadow_1_4842"/>
      <feBlend mode="normal" in="SourceGraphic" in2="effect2_dropShadow_1_4842" result="shape"/>
    </filter>
    <linearGradient id="paint0_linear_1_4842" x1="195.054" y1="207.025" x2="195.054" y2="377.131" gradientUnits="userSpaceOnUse">
      <stop offset="0.238159" stop-color="#9E91FF"/>
      <stop offset="0.45" stop-color="#6C5DD3"/>
      <stop offset="1" stop-color="#3D21FF"/>
    </linearGradient>
    <linearGradient id="paint1_linear_1_4842" x1="195.054" y1="207.025" x2="195.054" y2="377.131" gradientUnits="userSpaceOnUse">
      <stop stop-color="white"/>
      <stop offset="0.55" stop-color="white" stop-opacity="0"/>
    </linearGradient>
    
    <path id="blades" fill-rule="evenodd" clip-rule="evenodd" d="M174.107 261.289L174.002 261.183C173.697 260.358 173.381 259.428 173.076 258.603C172.15 255.918 171.423 253.221 170.907 250.641V250.429C170.802 250.017 170.802 249.711 170.696 249.393V248.98C170.591 248.674 170.591 248.356 170.485 248.05V247.638L170.38 246.707L170.274 246.189V245.364L170.169 244.74V239.781C170.169 239.569 170.274 239.369 170.274 239.157V238.533C170.38 238.015 170.38 237.602 170.485 237.19C170.485 236.884 170.591 236.672 170.591 236.472C170.591 236.271 170.696 236.059 170.696 235.847C170.802 235.541 170.802 235.329 170.907 235.023C170.907 234.917 170.907 234.717 171.013 234.505C171.013 234.293 171.118 233.986 171.118 233.786C171.224 233.574 171.224 233.374 171.329 233.068L171.54 232.443C171.54 232.231 171.646 232.031 171.751 231.819C171.751 231.607 171.857 231.407 171.962 231.195L172.173 230.476L172.384 229.852L172.689 229.134L172.9 228.509C173.006 228.297 173.111 228.097 173.205 227.791L173.51 227.272C173.615 227.06 173.721 226.754 173.814 226.554L174.119 225.93C174.225 225.718 174.424 225.517 174.529 225.211C174.635 225.105 174.74 224.905 174.834 224.693C175.045 224.481 175.139 224.175 175.35 223.868C175.455 223.762 175.561 223.562 175.561 223.456C175.772 223.15 175.971 222.938 176.182 222.632C176.288 222.526 176.393 222.325 176.487 222.219C176.698 221.807 177.003 221.395 177.319 220.983L177.53 220.771C177.741 220.464 178.046 220.146 178.362 219.734C178.468 219.628 178.573 219.428 178.773 219.322C178.984 219.016 179.183 218.804 179.394 218.603C179.499 218.391 179.699 218.191 179.804 218.085C180.015 217.873 180.215 217.567 180.426 217.367C180.636 217.261 180.836 217.06 181.047 216.848L181.668 216.224L182.184 215.706C182.489 215.494 182.7 215.294 182.91 215.082L183.532 214.563L184.258 213.939L184.88 213.421C185.091 213.209 185.396 213.009 185.712 212.797L186.228 212.278L187.154 211.654L187.775 211.242C188.08 210.936 188.396 210.724 188.807 210.523C189.018 210.417 189.111 210.217 189.322 210.111C189.733 209.899 190.155 209.699 190.459 209.393L190.975 209.086C191.385 208.874 191.807 208.568 192.218 208.368L192.839 208.062C193.848 207.463 195.103 207.731 195.786 208.685L201.95 217.291C203.52 219.483 202.594 222.561 200.193 223.791C181.024 233.614 179.77 250.211 184.563 268.144L190.049 264.528L189.944 265.046L189.838 265.258V265.47L189.733 265.682L189.627 265.989V266.095L189.522 266.401V266.813L189.416 266.919V267.331L189.311 267.437V267.85L189.205 268.156V268.462L189.1 268.674V269.192L188.994 269.499V270.323L188.889 270.735V272.29V273.009L188.994 273.221V273.845V274.257L189.1 274.363V274.987C189.205 275.4 189.311 275.706 189.311 276.024V276.13L189.416 276.436C189.522 276.648 189.522 276.954 189.627 277.155V277.261L189.733 277.567L189.838 277.873V278.179L189.944 278.285V278.497L190.049 278.709V278.815L190.155 279.122L190.26 279.334V279.44L190.366 279.652L190.471 279.864V279.97L190.577 280.276L190.682 280.582V280.688L190.787 280.9L190.893 281.112L190.998 281.324V281.536L191.104 281.642L191.209 281.949L191.315 282.255L191.42 282.361L191.526 282.573V282.785L191.631 282.997L191.737 283.209V283.315L191.948 283.621L192.053 284.033L192.159 284.139L192.264 284.351L192.37 284.563V284.669L192.475 285.082H192.581C188.358 253.648 193.708 219.092 233.51 218.269C235.587 218.226 237.308 219.829 237.523 221.895L238.455 230.847C238.736 233.545 236.381 235.767 233.672 235.627C212.161 234.514 202.751 248.349 197.961 266.271L204.478 265.753C198.383 271.96 197.34 276.295 196.414 284.775C208.468 255.449 230.36 228.177 265.33 247.462C267.159 248.47 267.842 250.735 266.976 252.635L263.251 260.81C262.132 263.266 258.999 263.996 256.735 262.526C238.7 250.816 223.618 257.999 210.48 271.124L216.376 274.022C207.995 276.295 205.006 279.605 199.93 286.436C224.938 267.06 257.64 254.404 278.262 288.538C279.341 290.323 278.802 292.622 277.107 293.837L269.806 299.068C267.614 300.639 264.536 299.713 263.305 297.313C253.482 278.146 236.888 276.895 218.955 281.689L222.577 287.166C214.196 284.893 209.964 286.236 202.099 289.652C233.427 285.431 268.082 290.775 268.917 330.584C268.961 332.662 267.357 334.382 265.29 334.598L256.322 335.531C253.631 335.811 251.412 333.467 251.544 330.765C252.601 309.236 238.852 299.828 220.924 295.035L221.334 301.548C215.239 295.447 210.89 294.41 202.415 293.48C231.737 305.535 259.013 327.431 239.734 362.393C238.726 364.221 236.461 364.904 234.56 364.038L226.384 360.313C223.928 359.194 223.198 356.06 224.668 353.795C236.366 335.767 229.099 320.679 216.06 307.543L213.164 313.433C210.89 305.058 207.585 302.055 200.751 296.99C220.036 321.997 232.775 354.714 198.637 375.33C196.858 376.404 194.567 375.874 193.349 374.19L188.054 366.872C186.468 364.68 187.391 361.588 189.798 360.354C208.96 350.53 210.301 333.939 205.51 316.012L200.024 319.628C202.298 311.254 200.95 307.013 197.539 299.157C201.762 330.485 196.413 365.134 156.526 365.97C154.44 366.013 152.715 364.397 152.511 362.32L151.629 353.344C151.365 350.66 153.705 348.458 156.399 348.591C177.859 349.647 187.367 335.898 192.159 317.967L185.536 318.38C191.737 312.278 192.675 307.932 193.706 299.452C181.652 328.778 159.76 356.05 124.79 336.765C122.961 335.757 122.278 333.492 123.144 331.592L126.869 323.417C127.988 320.961 131.121 320.231 133.386 321.7C151.42 333.398 166.495 326.141 179.535 313.103L173.639 310.205C182.113 307.932 185.114 304.622 190.178 297.791C165.076 317.078 132.455 329.821 111.838 295.676C110.764 293.896 111.295 291.604 112.979 290.387L120.297 285.097C122.488 283.512 125.579 284.435 126.813 286.841C136.638 306.002 153.226 307.342 171.154 302.549L167.532 297.072C175.913 299.346 180.144 298.003 188.009 294.587C156.582 298.807 122.027 293.465 121.191 253.571C121.148 251.483 122.765 249.758 124.842 249.554L133.792 248.676C136.482 248.412 138.686 250.764 138.546 253.463C137.431 274.914 151.259 284.412 169.184 289.204L168.669 282.585C174.869 288.792 179.218 289.722 187.693 290.759C158.372 278.704 131.095 256.808 150.374 221.846C151.383 220.017 153.648 219.335 155.548 220.201L163.724 223.925C166.181 225.045 166.91 228.179 165.439 230.443C153.728 248.47 160.912 263.552 174.049 276.589L176.944 270.7C179.218 279.181 182.524 282.172 189.357 287.249C183.157 279.181 177.565 270.394 174.154 261.395L174.107 261.289Z" fill="url(#paint0_linear_1_4842)"/>
    
    <animateTransform 
      id="spin"
      xlink:href="#blades"
      attributeName="transform"
      type="rotate"
      from="0 195 292"
      to="360 195 292"
      dur="7s"
      repeatCount="indefinite"
    />
  </defs>
  
  <g filter="url(#filter0_dd_1_4842)">
    <mask id="path-1-inside-1_1_4842" fill="white">
      <use xlink:href="#blades"/>
    </mask>
    <use xlink:href="#blades" fill="url(#paint0_linear_1_4842)"/>
    <use xlink:href="#blades" stroke="url(#paint1_linear_1_4842)" stroke-width="4" mask="url(#path-1-inside-1_1_4842)"/>
  </g>
</svg>