<svg width="390" height="844" viewBox="0 0 390 844" fill="none" xmlns="http://www.w3.org/2000/svg">
<path fill-rule="evenodd" clip-rule="evenodd" d="M38.1395 191.804L37.3488 191.01C35.0648 184.831 32.6928 177.857 30.4087 171.677C23.4686 151.55 18.0219 131.335 14.1564 112.003V110.414C13.3658 107.324 13.3658 105.029 12.5751 102.645V99.5558C11.7845 97.2606 11.7845 94.8772 10.9938 92.582V89.4923L10.2032 82.5185L9.41254 78.6344V72.455L8.62192 67.7764V30.6122C8.62192 29.0232 9.41254 27.5225 9.41254 25.9335V21.2549C10.2032 17.3707 10.2032 14.2811 10.9938 11.1914C10.9938 8.89621 11.7845 7.30725 11.7845 5.80655C11.7845 4.30586 12.5751 2.71689 12.5751 1.12791C13.3658 -1.16727 13.3658 -2.75623 14.1564 -5.05141C14.1564 -5.84589 14.1564 -7.34659 14.9471 -8.93556C14.9471 -10.5245 15.7377 -12.8197 15.7377 -14.3204C16.5284 -15.9094 16.5284 -17.4101 17.3191 -19.7053L18.9004 -24.3839C18.9004 -25.9729 19.691 -27.4736 20.4817 -29.0625C20.4817 -30.6515 21.2723 -32.1522 22.063 -33.7411L23.6443 -39.126L25.2256 -43.8046L27.5096 -49.1895L29.091 -53.8681C29.8816 -55.4571 30.6722 -56.9578 31.3751 -59.253L33.6592 -63.1371C34.4498 -64.7261 35.2404 -67.0213 35.9433 -68.522L38.2274 -73.2006C39.018 -74.7896 40.5115 -76.2903 41.3021 -78.5854C42.0928 -79.3799 42.8834 -80.8806 43.5862 -82.4696C45.1675 -84.0585 45.8703 -86.3537 47.4516 -88.6489C48.2423 -89.4434 49.0329 -90.9441 49.0329 -91.7386C50.6142 -94.0338 52.1077 -95.6227 53.689 -97.9179C54.4796 -98.7124 55.2703 -100.213 55.9731 -101.008C57.5544 -104.097 59.8385 -107.187 62.2104 -110.277L63.7917 -111.866C65.373 -114.161 67.6571 -116.544 70.0291 -119.634C70.8198 -120.428 71.6104 -121.929 73.1038 -122.724C74.6851 -125.019 76.1786 -126.608 77.7599 -128.108C78.5505 -129.697 80.044 -131.198 80.8347 -131.993C82.416 -133.581 83.9094 -135.877 85.4907 -137.377C87.072 -138.172 88.5654 -139.673 90.1468 -141.261L94.8028 -145.94L98.6682 -149.824C100.952 -151.413 102.534 -152.914 104.115 -154.503L108.771 -158.387L114.218 -163.066L118.874 -166.95C120.455 -168.539 122.739 -170.04 125.111 -171.628L128.977 -175.513L135.917 -180.191L140.573 -183.281C142.857 -185.576 145.229 -187.165 148.304 -188.666C149.885 -189.46 150.588 -190.961 152.169 -191.755C155.244 -193.344 158.406 -194.845 160.69 -197.14L164.556 -199.435C167.631 -201.024 170.793 -203.32 173.868 -204.82L178.524 -207.115C182.389 -209.411 187.045 -212.5 191.701 -214.884L269.976 -105.598C91.7281 -35.0653 77.7599 98.2317 116.502 243.181L157.616 216.08L156.825 219.964L156.034 221.553V223.142L155.244 224.731L154.453 227.027V227.821L153.662 230.116V233.206L152.872 234V237.09L152.081 237.885V240.974L151.29 243.269V245.565L150.5 247.154V251.038L149.709 253.333V259.512L148.918 262.602V274.254V279.639L149.709 281.228V285.907V288.996L150.5 289.791V294.47C151.29 297.559 152.081 299.854 152.081 302.238V303.032L152.872 305.328C153.662 306.916 153.662 309.212 154.453 310.712V311.507L155.244 313.802L156.034 316.097V318.392L156.825 319.187V320.776L157.616 322.365V323.159L158.406 325.454L159.197 327.043V327.838L159.988 329.427L160.778 331.016V331.81L161.569 334.106L162.359 336.401V337.195L163.15 338.784L163.941 340.373L164.731 341.962V343.551L165.522 344.346L166.313 346.641L167.103 348.936L167.894 349.73L168.685 351.319V352.908L169.475 354.497L170.266 356.086V356.881L171.847 359.176L172.638 362.266L173.429 363.06L174.219 364.649L175.01 366.238V367.033L175.801 370.122H176.591C143.999 127.539 187.485 -139.849 510.597 -130.492L524.565 3.59966C334.721 -25.0901 255.656 84.1958 216.914 229.145L265.759 225.261C220.077 271.783 212.258 304.268 205.318 367.827C298.351 141.487 469.571 -68.522 745.508 102.028L689.724 224.467C540.115 105.117 416.949 159.407 310.738 265.515L354.927 287.231C292.114 304.268 269.712 329.074 231.673 380.274C424.68 230.734 678.83 134.601 832.304 419.822L723.019 498.123C652.475 319.893 519.206 305.945 374.254 344.699L401.4 385.747C338.587 368.71 306.873 378.773 247.925 404.373C489.689 371.799 757.895 415.231 748.583 738.41L614.524 752.358C642.46 562.476 533.965 483.469 389.013 444.716L392.087 493.532C346.405 447.805 313.813 440.037 250.297 433.063C476.599 526.106 686.649 697.362 516.132 973.225L393.669 917.434C513.057 767.894 457.975 644.661 352.555 538.465L330.856 582.603C313.813 519.839 289.039 497.328 237.823 459.369C386.641 652.341 483.451 906.576 198.29 1060L119.225 950.714C297.473 880.182 312.232 746.885 273.49 601.935L232.376 629.036C249.419 566.272 239.316 534.492 213.752 475.612C246.344 717.401 202.858 985.583 -121.045 976.226L-134.222 842.135C54.831 870.03 134.687 761.539 173.429 616.589L123.793 619.679C170.266 573.952 177.294 541.378 185.025 477.819C91.9916 704.159 -79.2282 914.168 -355.165 743.619L-299.38 621.18C-149.772 740.529 -26.606 685.533 78.8141 580.131L34.6255 558.415C98.1411 541.378 120.631 516.572 158.582 465.372C-35.1274 614.206 -288.575 711.045 -442.049 425.824L-332.763 346.817C-262.22 525.047 -128.951 539.789 16.0013 501.036L-11.1443 459.987C51.6685 477.025 83.3823 466.961 142.33 441.361C-100.224 473.935 -367.64 430.503 -358.328 106.53L-224.269 93.3765C-252.908 282.464 -143.71 362.266 1.24249 401.019L-2.62292 351.408C43.8498 397.929 76.4421 404.903 139.958 412.671C-86.344 319.628 -296.394 148.373 -125.877 -127.49L-3.41357 -71.6999C-122.802 77.8399 -68.5105 201.073 37.7003 306.475L59.3992 262.337C76.4421 325.896 101.216 348.318 152.432 386.365C105.96 325.896 64.0553 260.042 38.4909 192.599L38.1395 191.804Z" fill="#6C5DD3" fill-opacity="0.15"/>
</svg>
