<svg width="62" height="45" viewBox="0 0 62 45" fill="none" xmlns="http://www.w3.org/2000/svg">
<path d="M17.8449 26.5C17.6102 25.732 17.3435 24.9427 17.0449 24.132C16.7675 23.3213 16.4902 22.5107 16.2129 21.7H7.57287C7.29554 22.5107 7.00754 23.3213 6.70887 24.132C6.43154 24.9427 6.17554 25.732 5.94087 26.5H0.756874C1.58887 24.1107 2.37821 21.9027 3.12487 19.876C3.87154 17.8493 4.59687 15.94 5.30087 14.148C6.02621 12.356 6.73021 10.66 7.41287 9.06C8.11687 7.43867 8.84221 5.86 9.58887 4.324H14.3569C15.0822 5.86 15.7969 7.43867 16.5009 9.06C17.2049 10.66 17.9089 12.356 18.6129 14.148C19.3382 15.94 20.0742 17.8493 20.8209 19.876C21.5675 21.9027 22.3569 24.1107 23.1889 26.5H17.8449ZM11.8609 9.348C11.7542 9.668 11.5942 10.1053 11.3809 10.66C11.1675 11.2147 10.9222 11.8547 10.6449 12.58C10.3675 13.3053 10.0582 14.1053 9.71688 14.98C9.39687 15.8547 9.06621 16.772 8.72487 17.732H15.0289C14.6875 16.772 14.3569 15.8547 14.0369 14.98C13.7169 14.1053 13.4075 13.3053 13.1089 12.58C12.8315 11.8547 12.5862 11.2147 12.3729 10.66C12.1595 10.1053 11.9889 9.668 11.8609 9.348ZM34.7189 26.948C31.1135 26.948 28.3615 25.9453 26.4629 23.94C24.5855 21.9347 23.6469 19.0867 23.6469 15.396C23.6469 13.5613 23.9349 11.9293 24.5109 10.5C25.0869 9.04933 25.8762 7.83333 26.8789 6.852C27.8815 5.84933 29.0762 5.092 30.4629 4.58C31.8495 4.068 33.3535 3.812 34.9749 3.812C35.9135 3.812 36.7669 3.88667 37.5349 4.036C38.3029 4.164 38.9749 4.324 39.5509 4.516C40.1269 4.68667 40.6069 4.868 40.9909 5.06C41.3749 5.252 41.6522 5.40133 41.8229 5.508L40.3829 9.54C39.7002 9.17733 38.9002 8.868 37.9829 8.612C37.0869 8.356 36.0629 8.228 34.9109 8.228C34.1429 8.228 33.3855 8.356 32.6389 8.612C31.9135 8.868 31.2629 9.284 30.6869 9.86C30.1322 10.4147 29.6842 11.14 29.3429 12.036C29.0015 12.932 28.8309 14.02 28.8309 15.3C28.8309 16.324 28.9375 17.284 29.1509 18.18C29.3855 19.0547 29.7482 19.812 30.2389 20.452C30.7509 21.092 31.4122 21.604 32.2229 21.988C33.0335 22.3507 34.0149 22.532 35.1669 22.532C35.8922 22.532 36.5429 22.4893 37.1189 22.404C37.6949 22.3187 38.2069 22.2227 38.6549 22.116C39.1029 21.988 39.4975 21.8493 39.8389 21.7C40.1802 21.5507 40.4895 21.412 40.7669 21.284L42.1429 25.284C41.4389 25.7107 40.4469 26.0947 39.1669 26.436C37.8869 26.7773 36.4042 26.948 34.7189 26.948ZM44.7169 26.5V4.324H59.6929V8.516H49.7089V12.868H58.5729V16.964H49.7089V22.308H60.4289V26.5H44.7169Z" fill="white"/>
<path d="M1.75428 43.5V33.105H8.32428V34.71H3.64428V37.365H7.79928V38.97H3.64428V43.5H1.75428ZM12.881 33C14.381 33 15.526 33.275 16.316 33.825C17.116 34.375 17.516 35.215 17.516 36.345C17.516 37.755 16.821 38.71 15.431 39.21C15.621 39.44 15.836 39.72 16.076 40.05C16.316 40.38 16.561 40.74 16.811 41.13C17.061 41.51 17.301 41.905 17.531 42.315C17.761 42.715 17.966 43.11 18.146 43.5H16.031C15.841 43.14 15.636 42.78 15.416 42.42C15.196 42.05 14.971 41.695 14.741 41.355C14.521 41.005 14.301 40.68 14.081 40.38C13.861 40.07 13.656 39.795 13.466 39.555C13.326 39.565 13.206 39.57 13.106 39.57C13.006 39.57 12.911 39.57 12.821 39.57H11.906V43.5H10.016V33.255C10.476 33.155 10.966 33.09 11.486 33.06C12.006 33.02 12.471 33 12.881 33ZM13.016 34.635C12.616 34.635 12.246 34.65 11.906 34.68V38.04H12.731C13.191 38.04 13.596 38.015 13.946 37.965C14.296 37.915 14.586 37.825 14.816 37.695C15.056 37.565 15.236 37.39 15.356 37.17C15.476 36.95 15.536 36.67 15.536 36.33C15.536 36.01 15.476 35.74 15.356 35.52C15.236 35.3 15.061 35.125 14.831 34.995C14.611 34.865 14.346 34.775 14.036 34.725C13.726 34.665 13.386 34.635 13.016 34.635ZM19.6107 33.105H21.5007V43.5H19.6107V33.105ZM23.9906 43.5V33.105H30.6656V34.71H25.8806V37.275H30.1406V38.85H25.8806V41.895H31.0256V43.5H23.9906ZM39.7847 43.5C39.4447 42.93 39.0647 42.32 38.6447 41.67C38.2247 41.01 37.7897 40.35 37.3397 39.69C36.8897 39.02 36.4297 38.375 35.9597 37.755C35.4997 37.125 35.0597 36.56 34.6397 36.06V43.5H32.7797V33.105H34.3247C34.7247 33.525 35.1547 34.025 35.6147 34.605C36.0747 35.175 36.5347 35.77 36.9947 36.39C37.4647 37.01 37.9147 37.635 38.3447 38.265C38.7847 38.885 39.1747 39.465 39.5147 40.005V33.105H41.3897V43.5H39.7847ZM45.7732 41.94C45.8832 41.95 46.0282 41.96 46.2082 41.97C46.3882 41.97 46.6332 41.97 46.9432 41.97C48.2132 41.97 49.1582 41.65 49.7782 41.01C50.4082 40.36 50.7232 39.455 50.7232 38.295C50.7232 37.115 50.4182 36.21 49.8082 35.58C49.1982 34.95 48.2532 34.635 46.9732 34.635C46.4132 34.635 46.0132 34.65 45.7732 34.68V41.94ZM52.7032 38.295C52.7032 39.195 52.5632 39.98 52.2832 40.65C52.0032 41.31 51.6032 41.865 51.0832 42.315C50.5732 42.755 49.9532 43.085 49.2232 43.305C48.5032 43.515 47.7032 43.62 46.8232 43.62C46.4032 43.62 45.9282 43.6 45.3982 43.56C44.8682 43.53 44.3632 43.46 43.8832 43.35V33.255C44.3632 33.145 44.8732 33.075 45.4132 33.045C45.9532 33.015 46.4332 33 46.8532 33C47.7232 33 48.5182 33.105 49.2382 33.315C49.9582 33.515 50.5732 33.835 51.0832 34.275C51.6032 34.705 52.0032 35.255 52.2832 35.925C52.5632 36.585 52.7032 37.375 52.7032 38.295ZM57.1551 42.09C57.8351 42.09 58.3301 41.975 58.6401 41.745C58.9501 41.515 59.1051 41.19 59.1051 40.77C59.1051 40.52 59.0501 40.305 58.9401 40.125C58.8401 39.945 58.6901 39.785 58.4901 39.645C58.3001 39.495 58.0651 39.36 57.7851 39.24C57.5051 39.11 57.1851 38.985 56.8251 38.865C56.4651 38.735 56.1151 38.595 55.7751 38.445C55.4451 38.285 55.1501 38.09 54.8901 37.86C54.6401 37.63 54.4351 37.355 54.2751 37.035C54.1251 36.715 54.0501 36.33 54.0501 35.88C54.0501 34.94 54.3751 34.205 55.0251 33.675C55.6751 33.135 56.5601 32.865 57.6801 32.865C58.3301 32.865 58.9051 32.94 59.4051 33.09C59.9151 33.23 60.3151 33.385 60.6051 33.555L60.0201 35.085C59.6801 34.895 59.3051 34.75 58.8951 34.65C58.4951 34.55 58.0801 34.5 57.6501 34.5C57.1401 34.5 56.7401 34.605 56.4501 34.815C56.1701 35.025 56.0301 35.32 56.0301 35.7C56.0301 35.93 56.0751 36.13 56.1651 36.3C56.2651 36.46 56.4001 36.605 56.5701 36.735C56.7501 36.865 56.9551 36.985 57.1851 37.095C57.4251 37.205 57.6851 37.31 57.9651 37.41C58.4551 37.59 58.8901 37.775 59.2701 37.965C59.6601 38.145 59.9851 38.365 60.2451 38.625C60.5151 38.875 60.7201 39.175 60.8601 39.525C61.0001 39.865 61.0701 40.28 61.0701 40.77C61.0701 41.71 60.7351 42.44 60.0651 42.96C59.4051 43.47 58.4351 43.725 57.1551 43.725C56.7251 43.725 56.3301 43.695 55.9701 43.635C55.6201 43.585 55.3051 43.52 55.0251 43.44C54.7551 43.36 54.5201 43.28 54.3201 43.2C54.1201 43.11 53.9601 43.03 53.8401 42.96L54.3951 41.415C54.6651 41.565 55.0301 41.715 55.4901 41.865C55.9501 42.015 56.5051 42.09 57.1551 42.09Z" fill="#B6AFE9"/>
</svg>
