<svg width="24" height="24" viewBox="0 0 24 24" fill="none" xmlns="http://www.w3.org/2000/svg">
<mask id="mask0_780_3888" style="mask-type:alpha" maskUnits="userSpaceOnUse" x="0" y="0" width="24" height="24">
<rect width="24" height="24" fill="#D9D9D9"/>
</mask>
<g mask="url(#mask0_780_3888)">
<path d="M17 1C17.55 1 18.0204 1.19622 18.4121 1.58789C18.8038 1.97956 19 2.45 19 3V21C19 21.55 18.8038 22.0204 18.4121 22.4121C18.0204 22.8038 17.55 23 17 23H7C6.45 23 5.97956 22.8038 5.58789 22.4121C5.19622 22.0204 5 21.55 5 21V3C5 2.45 5.19622 1.97956 5.58789 1.58789C5.97956 1.19622 6.45 1 7 1H17ZM12 18C11.7167 18 11.4788 18.0954 11.2871 18.2871C11.0954 18.4788 11 18.7167 11 19C11 19.2833 11.0954 19.5212 11.2871 19.7129C11.4788 19.9046 11.7167 20 12 20C12.2833 20 12.5212 19.9046 12.7129 19.7129C12.9046 19.5212 13 19.2833 13 19C13 18.7167 12.9046 18.4788 12.7129 18.2871C12.5212 18.0954 12.2833 18 12 18Z" fill="#828289"/>
</g>
</svg>
