<svg width="24" height="24" viewBox="0 0 24 24" fill="none" xmlns="http://www.w3.org/2000/svg">
<g clip-path="url(#clip0_780_3165)">
<path fill-rule="evenodd" clip-rule="evenodd" d="M22.6967 16.9529C22.2712 17.4887 21.2289 17.871 21.2289 17.871L13.4748 20.6512V18.6009L19.1813 16.5712C19.8288 16.3396 19.9283 16.0122 19.4019 15.8403C18.8765 15.668 17.9252 15.7174 17.2772 15.95L13.4748 17.2868V15.1588L13.694 15.0848C13.694 15.0848 14.7927 14.6966 16.3377 14.5258C17.8827 14.3559 19.7744 14.549 21.2595 15.1109C22.9331 15.6389 23.1216 16.4171 22.6967 16.9529ZM14.2129 13.4615V8.21805C14.2129 7.60224 14.0992 7.03532 13.5204 6.87483C13.0771 6.7331 12.802 7.14396 12.802 7.75928V20.8903L9.25451 19.7663V4.10986C10.7629 4.38937 12.9604 5.05012 14.1417 5.44765C17.1461 6.47729 18.1647 7.75878 18.1647 10.6462C18.1647 13.4606 16.4243 14.5272 14.2129 13.4615ZM2.74517 18.3865C1.02706 17.9036 0.741119 16.8971 1.52424 16.3174C2.24799 15.7821 3.47882 15.3791 3.47882 15.3791L8.56539 13.5736V15.6319L4.90506 16.9396C4.25848 17.1712 4.15904 17.4991 4.68442 17.671C5.21029 17.8428 6.16211 17.7939 6.80968 17.5618L8.56539 16.9258V18.7673C8.45408 18.787 8.32991 18.8068 8.21513 18.826C6.45893 19.1125 4.58845 18.993 2.74517 18.3865ZM21.5668 19.2018C21.7889 19.2018 21.9971 19.2878 22.154 19.4463C22.3108 19.6023 22.3974 19.8107 22.3974 20.032C22.3974 20.2542 22.3108 20.4616 22.154 20.6177C21.9971 20.7752 21.7889 20.8611 21.5668 20.8611C21.3446 20.8611 21.1369 20.7752 20.9795 20.6177C20.8227 20.4616 20.7366 20.2542 20.7366 20.032C20.7366 19.5747 21.1087 19.2018 21.5668 19.2018ZM20.8761 20.032C20.8761 20.2162 20.9479 20.3895 21.0785 20.5189C21.2086 20.6503 21.3827 20.7214 21.5668 20.7214C21.9482 20.7214 22.2574 20.4122 22.2574 20.032C22.2574 19.8473 22.1861 19.6739 22.055 19.5441C21.9249 19.4127 21.7508 19.3421 21.5668 19.3421C21.3827 19.3421 21.2086 19.4127 21.0785 19.5441C20.9479 19.6739 20.8761 19.8473 20.8761 20.032ZM21.8176 19.5851C21.9086 19.6251 21.9546 19.7021 21.9546 19.8117C21.9546 19.868 21.9427 19.9154 21.9185 19.9525C21.9012 19.9791 21.8764 20.0009 21.8487 20.0196C21.8705 20.0325 21.8898 20.0478 21.9041 20.0656C21.9239 20.0912 21.9353 20.1322 21.9368 20.188L21.9412 20.306C21.9427 20.3377 21.9447 20.3619 21.9497 20.3767C21.9546 20.3984 21.964 20.4122 21.9759 20.4167L21.9882 20.4226V20.4359V20.4562V20.4764H21.968H21.821H21.8092L21.8032 20.4661C21.7983 20.4562 21.7948 20.4448 21.7914 20.43C21.7889 20.4167 21.7864 20.3935 21.7849 20.3579L21.7775 20.2112C21.7755 20.1604 21.7582 20.1288 21.7255 20.112C21.7053 20.1026 21.6716 20.0982 21.6261 20.0982H21.3743V20.4562V20.4764H21.3535H21.2338H21.2135V20.4562V19.5737V19.5535H21.2338H21.6429C21.7132 19.5535 21.7721 19.5638 21.8176 19.5851ZM21.3743 19.9569H21.6306C21.682 19.9569 21.7231 19.9475 21.7523 19.9283C21.779 19.909 21.7918 19.8739 21.7918 19.8231C21.7918 19.7678 21.7735 19.7317 21.7349 19.7125C21.7137 19.7021 21.684 19.6962 21.6464 19.6962H21.3743V19.9569Z" fill="#828289"/>
</g>
<defs>
<clipPath id="clip0_780_3165">
<rect width="22" height="17" fill="white" transform="translate(1 4)"/>
</clipPath>
</defs>
</svg>
