<svg width="24" height="24" viewBox="0 0 24 24" fill="none" xmlns="http://www.w3.org/2000/svg">
<path d="M12 10.0199C15.0175 12.3113 20.1297 17.9402 18.5835 19.5342C16.813 21.0785 14.5187 22 12 22C9.4813 22 7.16209 21.0785 5.41646 19.5342C3.84539 17.9402 8.98254 12.3113 11.9751 10.0448C11.9751 10.0199 12 10.0199 12 10.0199ZM17.212 3.46949C15.6908 2.54795 14.0199 2 12 2C9.98005 2 8.30923 2.54795 6.78803 3.46949C6.76309 3.46949 6.76309 3.4944 6.76309 3.5193C6.76309 3.54421 6.78803 3.54421 6.81297 3.54421C8.75811 3.1208 11.7007 4.78954 11.9751 4.96389H12.0249C12.2993 4.78954 15.2419 3.1208 17.187 3.54421C17.212 3.54421 17.2369 3.54421 17.2369 3.5193C17.2369 3.4944 17.2369 3.46949 17.212 3.46949ZM4.99252 4.86426C4.96758 4.86426 4.96758 4.88917 4.94264 4.88917C3.1222 6.70735 2 9.22291 2 11.9875C2 14.254 2.77307 16.3711 4.04489 18.0399C4.04489 18.0648 4.06983 18.0648 4.09476 18.0648C4.1197 18.0648 4.1197 18.0399 4.09476 18.0149C3.3217 15.6488 7.23691 9.94521 9.25686 7.55417L9.2818 7.52927C9.2818 7.50436 9.2818 7.50436 9.25686 7.50436C6.18953 4.46575 5.16708 4.78954 4.99252 4.86426ZM14.7431 7.47945L14.7182 7.50436C14.7182 7.50436 14.7182 7.52927 14.7431 7.52927C16.7631 9.9203 20.6534 15.6239 19.9052 17.99V18.0399C19.9302 18.0399 19.9551 18.0399 19.9551 18.0149C21.2269 16.3462 22 14.2291 22 11.9626C22 9.19801 20.8778 6.68244 19.0324 4.86426C19.0075 4.83935 19.0075 4.83935 18.9825 4.83935C18.8329 4.78954 17.8105 4.46575 14.7431 7.47945Z" fill="#828289"/>
</svg>
