<svg width="41" height="30" viewBox="0 0 41 30" fill="none" xmlns="http://www.w3.org/2000/svg">
<path d="M34.6257 16.2678C35.385 16.2678 36.0726 16.3538 36.6887 16.5257C37.3047 16.6976 37.8348 16.9627 38.2789 17.3208C38.7231 17.679 39.0597 18.1375 39.289 18.6962C39.5325 19.2406 39.6543 19.8853 39.6543 20.6303C39.6543 21.4039 39.4967 22.1059 39.1815 22.7363C38.8663 23.3667 38.3434 23.8466 37.6128 24.1761C37.8563 24.5486 38.1142 24.9641 38.3864 25.4226C38.6586 25.8667 38.9236 26.3395 39.1815 26.8409C39.4394 27.328 39.683 27.8223 39.9122 28.3237C40.1557 28.8108 40.3635 29.2764 40.5354 29.7205H37.7632C37.4337 28.8609 37.0469 28.0372 36.6027 27.2492C36.1729 26.4469 35.7073 25.6375 35.2059 24.8208H33.8305V29.7205H31.1873V16.6117C31.4451 16.5544 31.7245 16.5042 32.0254 16.4612C32.3406 16.4039 32.6557 16.3681 32.9709 16.3538C33.2861 16.3251 33.587 16.3036 33.8735 16.2893C34.16 16.275 34.4108 16.2678 34.6257 16.2678ZM36.9681 20.6088C36.9681 19.9068 36.7532 19.391 36.3234 19.0615C35.8936 18.732 35.3277 18.5672 34.6257 18.5672C34.5254 18.5672 34.4036 18.5744 34.2603 18.5887C34.1171 18.5887 33.9738 18.6031 33.8305 18.6317V22.6289H34.4108C35.3133 22.6289 35.9652 22.4569 36.3663 22.1131C36.7675 21.7549 36.9681 21.2535 36.9681 20.6088Z" fill="white"/>
<path d="M34.6257 16.2678C35.385 16.2678 36.0726 16.3538 36.6887 16.5257C37.3047 16.6976 37.8348 16.9627 38.2789 17.3208C38.7231 17.679 39.0597 18.1375 39.289 18.6962C39.5325 19.2406 39.6543 19.8853 39.6543 20.6303C39.6543 21.4039 39.4967 22.1059 39.1815 22.7363C38.8663 23.3667 38.3434 23.8466 37.6128 24.1761C37.8563 24.5486 38.1142 24.9641 38.3864 25.4226C38.6586 25.8667 38.9236 26.3395 39.1815 26.8409C39.4394 27.328 39.683 27.8223 39.9122 28.3237C40.1557 28.8108 40.3635 29.2764 40.5354 29.7205H37.7632C37.4337 28.8609 37.0469 28.0372 36.6027 27.2492C36.1729 26.4469 35.7073 25.6375 35.2059 24.8208H33.8305V29.7205H31.1873V16.6117C31.4451 16.5544 31.7245 16.5042 32.0254 16.4612C32.3406 16.4039 32.6557 16.3681 32.9709 16.3538C33.2861 16.3251 33.587 16.3036 33.8735 16.2893C34.16 16.275 34.4108 16.2678 34.6257 16.2678ZM36.9681 20.6088C36.9681 19.9068 36.7532 19.391 36.3234 19.0615C35.8936 18.732 35.3277 18.5672 34.6257 18.5672C34.5254 18.5672 34.4036 18.5744 34.2603 18.5887C34.1171 18.5887 33.9738 18.6031 33.8305 18.6317V22.6289H34.4108C35.3133 22.6289 35.9652 22.4569 36.3663 22.1131C36.7675 21.7549 36.9681 21.2535 36.9681 20.6088Z" fill="url(#paint0_linear_3052_1394)" fill-opacity="0.2"/>
<path d="M27.6685 29.7206L27.0453 26.6476H23.4994L22.8977 29.7206H20.147C20.7773 27.0989 21.4149 24.7135 22.0596 22.5645C22.7043 20.4011 23.3275 18.3524 23.9292 16.4183H26.8089C27.4392 18.3668 28.0624 20.437 28.6785 22.6289C29.3089 24.8066 29.9177 27.1705 30.5051 29.7206H27.6685ZM25.3046 18.9971C25.1613 19.4986 25.0252 19.9785 24.8963 20.437C24.7816 20.8811 24.667 21.3252 24.5524 21.7693C24.4521 22.1991 24.3518 22.6361 24.2516 23.0802C24.1656 23.5244 24.0796 23.9828 23.9937 24.4556H26.594C26.508 23.9828 26.422 23.5244 26.3361 23.0802C26.2501 22.6361 26.1498 22.1991 26.0352 21.7693C25.9349 21.3252 25.8203 20.8811 25.6914 20.437C25.5768 19.9785 25.4478 19.4986 25.3046 18.9971Z" fill="white"/>
<path d="M27.6685 29.7206L27.0453 26.6476H23.4994L22.8977 29.7206H20.147C20.7773 27.0989 21.4149 24.7135 22.0596 22.5645C22.7043 20.4011 23.3275 18.3524 23.9292 16.4183H26.8089C27.4392 18.3668 28.0624 20.437 28.6785 22.6289C29.3089 24.8066 29.9177 27.1705 30.5051 29.7206H27.6685ZM25.3046 18.9971C25.1613 19.4986 25.0252 19.9785 24.8963 20.437C24.7816 20.8811 24.667 21.3252 24.5524 21.7693C24.4521 22.1991 24.3518 22.6361 24.2516 23.0802C24.1656 23.5244 24.0796 23.9828 23.9937 24.4556H26.594C26.508 23.9828 26.422 23.5244 26.3361 23.0802C26.2501 22.6361 26.1498 22.1991 26.0352 21.7693C25.9349 21.3252 25.8203 20.8811 25.6914 20.437C25.5768 19.9785 25.4478 19.4986 25.3046 18.9971Z" fill="url(#paint1_linear_3052_1394)" fill-opacity="0.2"/>
<path d="M19.6581 16.4183V29.7206H17.0148V23.8539H13.4904V29.7206H10.8472V16.4183H13.4904V21.6619H17.0148V16.4183H19.6581Z" fill="white"/>
<path d="M19.6581 16.4183V29.7206H17.0148V23.8539H13.4904V29.7206H10.8472V16.4183H13.4904V21.6619H17.0148V16.4183H19.6581Z" fill="url(#paint2_linear_3052_1394)" fill-opacity="0.2"/>
<path d="M4.79233 27.7866C5.23646 27.7866 5.60179 27.7436 5.88832 27.6577C6.18918 27.5574 6.42557 27.4284 6.59749 27.2709C6.76941 27.0989 6.88403 26.9127 6.94133 26.7121C7.01297 26.4972 7.04878 26.2823 7.04878 26.0674C7.04878 25.7952 6.96999 25.5517 6.81239 25.3368C6.6548 25.1219 6.45423 24.9356 6.21067 24.778C5.96712 24.6061 5.69491 24.4557 5.39405 24.3267C5.09319 24.1835 4.79233 24.0545 4.49148 23.9399C4.09033 23.7966 3.67486 23.6319 3.24506 23.4456C2.81526 23.2594 2.42127 23.023 2.06311 22.7365C1.71927 22.4499 1.43274 22.0989 1.20351 21.6835C0.974283 21.2537 0.85967 20.7236 0.85967 20.0932C0.85967 18.8468 1.26082 17.8726 2.06311 17.1706C2.87973 16.4686 3.99721 16.1176 5.41554 16.1176C6.23216 16.1176 6.94133 16.2107 7.54305 16.3969C8.1591 16.5832 8.67486 16.7909 9.09033 17.0201L8.31669 19.0617C7.95852 18.8611 7.55738 18.6892 7.11325 18.5459C6.68345 18.4027 6.18202 18.331 5.60895 18.331C4.20494 18.331 3.50294 18.8396 3.50294 19.8568C3.50294 20.1147 3.57457 20.3439 3.71784 20.5445C3.8611 20.7307 4.04019 20.9027 4.25509 21.0602C4.48431 21.2035 4.73503 21.3325 5.00723 21.4471C5.29377 21.5617 5.57314 21.6691 5.84534 21.7694C6.26082 21.927 6.69062 22.1061 7.13474 22.3067C7.59319 22.4929 8.00867 22.7508 8.38116 23.0803C8.76798 23.3955 9.08317 23.7966 9.32672 24.2837C9.57027 24.7565 9.69205 25.3582 9.69205 26.0889C9.69205 27.3353 9.28374 28.3024 8.46712 28.99C7.66483 29.6634 6.4399 30.0001 4.79233 30.0001C3.68918 30.0001 2.80809 29.8855 2.14907 29.6562C1.49004 29.4127 0.995773 29.1906 0.66626 28.99L1.4399 26.841C1.82672 27.0703 2.28517 27.2852 2.81526 27.4858C3.35967 27.6863 4.0187 27.7866 4.79233 27.7866Z" fill="white"/>
<path d="M4.79233 27.7866C5.23646 27.7866 5.60179 27.7436 5.88832 27.6577C6.18918 27.5574 6.42557 27.4284 6.59749 27.2709C6.76941 27.0989 6.88403 26.9127 6.94133 26.7121C7.01297 26.4972 7.04878 26.2823 7.04878 26.0674C7.04878 25.7952 6.96999 25.5517 6.81239 25.3368C6.6548 25.1219 6.45423 24.9356 6.21067 24.778C5.96712 24.6061 5.69491 24.4557 5.39405 24.3267C5.09319 24.1835 4.79233 24.0545 4.49148 23.9399C4.09033 23.7966 3.67486 23.6319 3.24506 23.4456C2.81526 23.2594 2.42127 23.023 2.06311 22.7365C1.71927 22.4499 1.43274 22.0989 1.20351 21.6835C0.974283 21.2537 0.85967 20.7236 0.85967 20.0932C0.85967 18.8468 1.26082 17.8726 2.06311 17.1706C2.87973 16.4686 3.99721 16.1176 5.41554 16.1176C6.23216 16.1176 6.94133 16.2107 7.54305 16.3969C8.1591 16.5832 8.67486 16.7909 9.09033 17.0201L8.31669 19.0617C7.95852 18.8611 7.55738 18.6892 7.11325 18.5459C6.68345 18.4027 6.18202 18.331 5.60895 18.331C4.20494 18.331 3.50294 18.8396 3.50294 19.8568C3.50294 20.1147 3.57457 20.3439 3.71784 20.5445C3.8611 20.7307 4.04019 20.9027 4.25509 21.0602C4.48431 21.2035 4.73503 21.3325 5.00723 21.4471C5.29377 21.5617 5.57314 21.6691 5.84534 21.7694C6.26082 21.927 6.69062 22.1061 7.13474 22.3067C7.59319 22.4929 8.00867 22.7508 8.38116 23.0803C8.76798 23.3955 9.08317 23.7966 9.32672 24.2837C9.57027 24.7565 9.69205 25.3582 9.69205 26.0889C9.69205 27.3353 9.28374 28.3024 8.46712 28.99C7.66483 29.6634 6.4399 30.0001 4.79233 30.0001C3.68918 30.0001 2.80809 29.8855 2.14907 29.6562C1.49004 29.4127 0.995773 29.1906 0.66626 28.99L1.4399 26.841C1.82672 27.0703 2.28517 27.2852 2.81526 27.4858C3.35967 27.6863 4.0187 27.7866 4.79233 27.7866Z" fill="url(#paint3_linear_3052_1394)" fill-opacity="0.2"/>
<path d="M21.3074 13.6032V0.300903H29.3661V2.49288H23.9506V5.47999H28.6569V7.67196H23.9506V11.4112H29.8389V13.6032H21.3074Z" fill="white"/>
<path d="M21.3074 13.6032V0.300903H29.3661V2.49288H23.9506V5.47999H28.6569V7.67196H23.9506V11.4112H29.8389V13.6032H21.3074Z" fill="url(#paint4_linear_3052_1394)" fill-opacity="0.2"/>
<path d="M16.241 13.8825C14.3642 13.8825 12.9316 13.2808 11.943 12.0774C10.9545 10.8739 10.4602 9.16189 10.4602 6.94126C10.4602 5.83811 10.6106 4.85673 10.9115 3.99713C11.2124 3.13754 11.6278 2.41404 12.1579 1.82665C12.7023 1.22493 13.3399 0.773639 14.0705 0.47278C14.8155 0.157593 15.625 0 16.4989 0C16.9717 0 17.3943 0.0429798 17.7668 0.128939C18.1536 0.200573 18.4903 0.286533 18.7768 0.38682C19.0634 0.487106 19.2997 0.594556 19.486 0.709169C19.6866 0.823782 19.837 0.909742 19.9373 0.967049L19.2496 3.07307C18.9201 2.85817 18.5189 2.67908 18.0462 2.53582C17.5877 2.37822 17.0576 2.29943 16.4559 2.29943C16.0404 2.29943 15.6321 2.37822 15.231 2.53582C14.8442 2.67908 14.4932 2.9298 14.178 3.28797C13.8771 3.63181 13.6264 4.09742 13.4258 4.68481C13.2396 5.27221 13.1465 6.00287 13.1465 6.87679C13.1465 8.39542 13.4043 9.56304 13.9201 10.3797C14.4502 11.182 15.3098 11.5831 16.4989 11.5831C17.1866 11.5831 17.7525 11.5043 18.1966 11.3467C18.655 11.1891 19.0204 11.0315 19.2926 10.8739L19.9588 12.9585C19.5863 13.1877 19.0777 13.4026 18.433 13.6032C17.8026 13.7894 17.072 13.8825 16.241 13.8825Z" fill="white"/>
<path d="M16.241 13.8825C14.3642 13.8825 12.9316 13.2808 11.943 12.0774C10.9545 10.8739 10.4602 9.16189 10.4602 6.94126C10.4602 5.83811 10.6106 4.85673 10.9115 3.99713C11.2124 3.13754 11.6278 2.41404 12.1579 1.82665C12.7023 1.22493 13.3399 0.773639 14.0705 0.47278C14.8155 0.157593 15.625 0 16.4989 0C16.9717 0 17.3943 0.0429798 17.7668 0.128939C18.1536 0.200573 18.4903 0.286533 18.7768 0.38682C19.0634 0.487106 19.2997 0.594556 19.486 0.709169C19.6866 0.823782 19.837 0.909742 19.9373 0.967049L19.2496 3.07307C18.9201 2.85817 18.5189 2.67908 18.0462 2.53582C17.5877 2.37822 17.0576 2.29943 16.4559 2.29943C16.0404 2.29943 15.6321 2.37822 15.231 2.53582C14.8442 2.67908 14.4932 2.9298 14.178 3.28797C13.8771 3.63181 13.6264 4.09742 13.4258 4.68481C13.2396 5.27221 13.1465 6.00287 13.1465 6.87679C13.1465 8.39542 13.4043 9.56304 13.9201 10.3797C14.4502 11.182 15.3098 11.5831 16.4989 11.5831C17.1866 11.5831 17.7525 11.5043 18.1966 11.3467C18.655 11.1891 19.0204 11.0315 19.2926 10.8739L19.9588 12.9585C19.5863 13.1877 19.0777 13.4026 18.433 13.6032C17.8026 13.7894 17.072 13.8825 16.241 13.8825Z" fill="url(#paint5_linear_3052_1394)" fill-opacity="0.2"/>
<path d="M7.52149 13.6032L6.89828 10.5301H3.35244L2.75072 13.6032H0C0.630373 10.9814 1.26791 8.59603 1.91261 6.44703C2.55731 4.28371 3.18052 2.235 3.78223 0.300903H6.66189C7.29226 2.24933 7.91547 4.31953 8.53152 6.5115C9.16189 8.68915 9.77077 11.0531 10.3582 13.6032H7.52149ZM5.15759 2.8797C5.01433 3.38113 4.87822 3.86107 4.74928 4.31953C4.63467 4.76365 4.52006 5.20778 4.40544 5.65191C4.30516 6.08171 4.20487 6.51867 4.10458 6.96279C4.01862 7.40692 3.93266 7.86537 3.8467 8.33815H6.44699C6.36103 7.86537 6.27507 7.40692 6.18911 6.96279C6.10315 6.51867 6.00287 6.08171 5.88825 5.65191C5.78797 5.20778 5.67335 4.76365 5.54441 4.31953C5.4298 3.86107 5.30086 3.38113 5.15759 2.8797Z" fill="white"/>
<path d="M7.52149 13.6032L6.89828 10.5301H3.35244L2.75072 13.6032H0C0.630373 10.9814 1.26791 8.59603 1.91261 6.44703C2.55731 4.28371 3.18052 2.235 3.78223 0.300903H6.66189C7.29226 2.24933 7.91547 4.31953 8.53152 6.5115C9.16189 8.68915 9.77077 11.0531 10.3582 13.6032H7.52149ZM5.15759 2.8797C5.01433 3.38113 4.87822 3.86107 4.74928 4.31953C4.63467 4.76365 4.52006 5.20778 4.40544 5.65191C4.30516 6.08171 4.20487 6.51867 4.10458 6.96279C4.01862 7.40692 3.93266 7.86537 3.8467 8.33815H6.44699C6.36103 7.86537 6.27507 7.40692 6.18911 6.96279C6.10315 6.51867 6.00287 6.08171 5.88825 5.65191C5.78797 5.20778 5.67335 4.76365 5.54441 4.31953C5.4298 3.86107 5.30086 3.38113 5.15759 2.8797Z" fill="url(#paint6_linear_3052_1394)" fill-opacity="0.2"/>
<defs>
<linearGradient id="paint0_linear_3052_1394" x1="-2.54394" y1="-3.52176" x2="43.458" y2="29.7205" gradientUnits="userSpaceOnUse">
<stop/>
<stop offset="1" stop-opacity="0"/>
</linearGradient>
<linearGradient id="paint1_linear_3052_1394" x1="-2.54375" y1="-3.52167" x2="43.4582" y2="29.7206" gradientUnits="userSpaceOnUse">
<stop/>
<stop offset="1" stop-opacity="0"/>
</linearGradient>
<linearGradient id="paint2_linear_3052_1394" x1="-2.54377" y1="-3.52167" x2="43.4582" y2="29.7206" gradientUnits="userSpaceOnUse">
<stop/>
<stop offset="1" stop-opacity="0"/>
</linearGradient>
<linearGradient id="paint3_linear_3052_1394" x1="-2.5438" y1="-3.52159" x2="43.4582" y2="29.7207" gradientUnits="userSpaceOnUse">
<stop/>
<stop offset="1" stop-opacity="0"/>
</linearGradient>
<linearGradient id="paint4_linear_3052_1394" x1="-2.54381" y1="-3.52162" x2="43.4582" y2="29.7207" gradientUnits="userSpaceOnUse">
<stop/>
<stop offset="1" stop-opacity="0"/>
</linearGradient>
<linearGradient id="paint5_linear_3052_1394" x1="-2.54391" y1="-3.52167" x2="43.4581" y2="29.7206" gradientUnits="userSpaceOnUse">
<stop/>
<stop offset="1" stop-opacity="0"/>
</linearGradient>
<linearGradient id="paint6_linear_3052_1394" x1="-2.54387" y1="-3.52162" x2="43.4581" y2="29.7207" gradientUnits="userSpaceOnUse">
<stop/>
<stop offset="1" stop-opacity="0"/>
</linearGradient>
</defs>
</svg>
