<svg width="16" height="16" viewBox="0 0 16 16"  xmlns="http://www.w3.org/2000/svg">
<mask id="mask0_2001_1733" style="mask-type:alpha" maskUnits="userSpaceOnUse" x="0" y="0" width="16" height="16">
<rect width="16" height="16" />
</mask>
<g mask="url(#mask0_2001_1733)">
<path d="M4.66699 14C4.30033 14 3.98644 13.8694 3.72533 13.6083C3.46421 13.3472 3.33366 13.0333 3.33366 12.6667V4C3.14477 4 2.98644 3.93611 2.85866 3.80833C2.73088 3.68056 2.66699 3.52222 2.66699 3.33333C2.66699 3.14444 2.73088 2.98611 2.85866 2.85833C2.98644 2.73056 3.14477 2.66667 3.33366 2.66667H6.00033C6.00033 2.47778 6.06421 2.31944 6.19199 2.19167C6.31977 2.06389 6.4781 2 6.66699 2H9.33366C9.52255 2 9.68088 2.06389 9.80866 2.19167C9.93644 2.31944 10.0003 2.47778 10.0003 2.66667H12.667C12.8559 2.66667 13.0142 2.73056 13.142 2.85833C13.2698 2.98611 13.3337 3.14444 13.3337 3.33333C13.3337 3.52222 13.2698 3.68056 13.142 3.80833C13.0142 3.93611 12.8559 4 12.667 4V12.6667C12.667 13.0333 12.5364 13.3472 12.2753 13.6083C12.0142 13.8694 11.7003 14 11.3337 14H4.66699ZM8.00033 9.26667L9.26699 10.5333C9.38921 10.6556 9.54477 10.7167 9.73366 10.7167C9.92255 10.7167 10.0781 10.6556 10.2003 10.5333C10.3225 10.4111 10.3837 10.2556 10.3837 10.0667C10.3837 9.87778 10.3225 9.72222 10.2003 9.6L8.93366 8.33333L10.2003 7.06667C10.3225 6.94444 10.3837 6.78889 10.3837 6.6C10.3837 6.41111 10.3225 6.25556 10.2003 6.13333C10.0781 6.01111 9.92255 5.95 9.73366 5.95C9.54477 5.95 9.38921 6.01111 9.26699 6.13333L8.00033 7.4L6.73366 6.13333C6.61144 6.01111 6.45588 5.95 6.26699 5.95C6.0781 5.95 5.92255 6.01111 5.80033 6.13333C5.6781 6.25556 5.61699 6.41111 5.61699 6.6C5.61699 6.78889 5.6781 6.94444 5.80033 7.06667L7.06699 8.33333L5.80033 9.6C5.6781 9.72222 5.61699 9.87778 5.61699 10.0667C5.61699 10.2556 5.6781 10.4111 5.80033 10.5333C5.92255 10.6556 6.0781 10.7167 6.26699 10.7167C6.45588 10.7167 6.61144 10.6556 6.73366 10.5333L8.00033 9.26667Z"/>
</g>
</svg>
