<svg width="21" height="20" viewBox="0 0 21 20" fill="none" xmlns="http://www.w3.org/2000/svg">
<path fill-rule="evenodd" clip-rule="evenodd" d="M3.25 4.75C3.25 2.13 5.38 0 8 0C10.62 0 12.75 2.13 12.75 4.75C12.74 7.32 10.73 9.4 8.17 9.49H8.15H8.1C8.04 9.48 7.96 9.48 7.88 9.49C5.26 9.4 3.25 7.32 3.25 4.75ZM2.92996 12.15C5.73996 10.29 10.29 10.29 13.08 12.15C14.34 12.99 15.03 14.13 15.04 15.36C15.04 16.6 14.34 17.74 13.08 18.59C11.68 19.53 9.83996 20 7.99996 20C6.15996 20 4.31996 19.53 2.91996 18.59C1.65996 17.75 0.959961 16.61 0.959961 15.38C0.959961 14.15 1.65996 13 2.92996 12.15ZM18.9901 5.33998C19.1501 7.27998 17.7701 8.97998 15.8601 9.20998H15.8401H15.8101C15.7501 9.20998 15.6901 9.20998 15.6401 9.22998C14.6701 9.27998 13.7801 8.96998 13.1101 8.39998C14.1401 7.47998 14.7301 6.09998 14.6101 4.59998C14.5401 3.78998 14.2601 3.04998 13.8401 2.41998C14.2201 2.22998 14.6601 2.10998 15.1101 2.06998C17.0701 1.89998 18.8201 3.35998 18.9901 5.33998ZM19.25 16.97C20.29 16.4 20.91 15.56 20.99 14.59C21.08 13.63 20.61 12.7 19.69 11.96C17.98 10.58 15.2 10.15 12.99 10.79C13.84 11.1 14.62 11.52 15.29 12.05C16.47 13 17.06 14.19 16.96 15.43C16.88 16.29 16.46 17.1 15.74 17.75C16.99 17.78 18.25 17.52 19.25 16.97Z"/>
</svg>
