<svg width="24" height="17" viewBox="0 0 24 17" fill="none" xmlns="http://www.w3.org/2000/svg">
<path d="M3.55857 16.6668C2.56691 16.6668 1.79885 16.3217 1.25441 15.6314C0.709963 14.9411 0.505796 14.1002 0.641908 13.1085L1.86691 4.3585C2.04191 3.19183 2.56205 2.22933 3.42732 1.471C4.2926 0.712663 5.30857 0.333496 6.47524 0.333496H18.0252C19.1919 0.333496 20.2079 0.712663 21.0732 1.471C21.9384 2.22933 22.4586 3.19183 22.6336 4.3585L23.8586 13.1085C23.9947 14.1002 23.7905 14.9411 23.2461 15.6314C22.7016 16.3217 21.9336 16.6668 20.9419 16.6668C20.5336 16.6668 20.1544 16.5939 19.8044 16.4481C19.4544 16.3022 19.1336 16.0835 18.8419 15.7918L16.2169 13.1668H8.28357L5.65857 15.7918C5.36691 16.0835 5.04607 16.3022 4.69607 16.4481C4.34607 16.5939 3.96691 16.6668 3.55857 16.6668ZM18.0836 9.66683C18.4141 9.66683 18.6912 9.55502 18.9148 9.33141C19.1384 9.1078 19.2502 8.83072 19.2502 8.50016C19.2502 8.16961 19.1384 7.89252 18.9148 7.66891C18.6912 7.4453 18.4141 7.3335 18.0836 7.3335C17.753 7.3335 17.4759 7.4453 17.2523 7.66891C17.0287 7.89252 16.9169 8.16961 16.9169 8.50016C16.9169 8.83072 17.0287 9.1078 17.2523 9.33141C17.4759 9.55502 17.753 9.66683 18.0836 9.66683ZM15.7502 6.16683C16.0808 6.16683 16.3579 6.05502 16.5815 5.83141C16.8051 5.6078 16.9169 5.33072 16.9169 5.00016C16.9169 4.66961 16.8051 4.39252 16.5815 4.16891C16.3579 3.9453 16.0808 3.8335 15.7502 3.8335C15.4197 3.8335 15.1426 3.9453 14.919 4.16891C14.6954 4.39252 14.5836 4.66961 14.5836 5.00016C14.5836 5.33072 14.6954 5.6078 14.919 5.83141C15.1426 6.05502 15.4197 6.16683 15.7502 6.16683ZM7.29191 7.62516V8.79183C7.29191 9.04461 7.37455 9.25363 7.53982 9.41891C7.7051 9.58419 7.91413 9.66683 8.16691 9.66683C8.41968 9.66683 8.62871 9.58419 8.79399 9.41891C8.95927 9.25363 9.04191 9.04461 9.04191 8.79183V7.62516H10.2086C10.4614 7.62516 10.6704 7.54252 10.8357 7.37725C11.0009 7.21197 11.0836 7.00294 11.0836 6.75016C11.0836 6.49738 11.0009 6.28836 10.8357 6.12308C10.6704 5.9578 10.4614 5.87516 10.2086 5.87516H9.04191V4.7085C9.04191 4.45572 8.95927 4.24669 8.79399 4.08141C8.62871 3.91613 8.41968 3.8335 8.16691 3.8335C7.91413 3.8335 7.7051 3.91613 7.53982 4.08141C7.37455 4.24669 7.29191 4.45572 7.29191 4.7085V5.87516H6.12524C5.87246 5.87516 5.66343 5.9578 5.49816 6.12308C5.33288 6.28836 5.25024 6.49738 5.25024 6.75016C5.25024 7.00294 5.33288 7.21197 5.49816 7.37725C5.66343 7.54252 5.87246 7.62516 6.12524 7.62516H7.29191Z" fill="white"/>
</svg>
