<svg width="16" height="21" viewBox="0 0 16 21" fill="none" xmlns="http://www.w3.org/2000/svg">
<path d="M8 15.4999C8.28333 15.4999 8.52083 15.4041 8.7125 15.2124C8.90417 15.0207 9 14.7832 9 14.4999V10.4999C9 10.2166 8.90417 9.97907 8.7125 9.7874C8.52083 9.59574 8.28333 9.4999 8 9.4999C7.71667 9.4999 7.47917 9.59574 7.2875 9.7874C7.09583 9.97907 7 10.2166 7 10.4999V14.4999C7 14.7832 7.09583 15.0207 7.2875 15.2124C7.47917 15.4041 7.71667 15.4999 8 15.4999ZM8 7.4999C8.28333 7.4999 8.52083 7.40407 8.7125 7.2124C8.90417 7.02074 9 6.78324 9 6.4999C9 6.21657 8.90417 5.97907 8.7125 5.7874C8.52083 5.59574 8.28333 5.4999 8 5.4999C7.71667 5.4999 7.47917 5.59574 7.2875 5.7874C7.09583 5.97907 7 6.21657 7 6.4999C7 6.78324 7.09583 7.02074 7.2875 7.2124C7.47917 7.40407 7.71667 7.4999 8 7.4999ZM8 20.3999C7.88333 20.3999 7.775 20.3916 7.675 20.3749C7.575 20.3582 7.475 20.3332 7.375 20.2999C5.125 19.5499 3.33333 18.1624 2 16.1374C0.666667 14.1124 0 11.9332 0 9.5999V4.8749C0 4.45824 0.120833 4.08324 0.3625 3.7499C0.604167 3.41657 0.916667 3.1749 1.3 3.0249L7.3 0.774902C7.53333 0.691569 7.76667 0.649902 8 0.649902C8.23333 0.649902 8.46667 0.691569 8.7 0.774902L14.7 3.0249C15.0833 3.1749 15.3958 3.41657 15.6375 3.7499C15.8792 4.08324 16 4.45824 16 4.8749V9.5999C16 11.9332 15.3333 14.1124 14 16.1374C12.6667 18.1624 10.875 19.5499 8.625 20.2999C8.525 20.3332 8.425 20.3582 8.325 20.3749C8.225 20.3916 8.11667 20.3999 8 20.3999Z" fill="white"/>
</svg>
