<svg width="19" height="21" viewBox="0 0 19 21" fill="none" xmlns="http://www.w3.org/2000/svg">
<path d="M14 18.5C14.1333 18.5 14.25 18.45 14.35 18.35C14.45 18.25 14.5 18.1333 14.5 18V15C14.5 14.8667 14.45 14.75 14.35 14.65C14.25 14.55 14.1333 14.5 14 14.5C13.8667 14.5 13.75 14.55 13.65 14.65C13.55 14.75 13.5 14.8667 13.5 15V18C13.5 18.1333 13.55 18.25 13.65 18.35C13.75 18.45 13.8667 18.5 14 18.5ZM14 13.5C14.1333 13.5 14.25 13.45 14.35 13.35C14.45 13.25 14.5 13.1333 14.5 13C14.5 12.8667 14.45 12.75 14.35 12.65C14.25 12.55 14.1333 12.5 14 12.5C13.8667 12.5 13.75 12.55 13.65 12.65C13.55 12.75 13.5 12.8667 13.5 13C13.5 13.1333 13.55 13.25 13.65 13.35C13.75 13.45 13.8667 13.5 14 13.5ZM14 20.5C12.6167 20.5 11.4375 20.0125 10.4625 19.0375C9.4875 18.0625 9 16.8833 9 15.5C9 14.1167 9.4875 12.9375 10.4625 11.9625C11.4375 10.9875 12.6167 10.5 14 10.5C15.3833 10.5 16.5625 10.9875 17.5375 11.9625C18.5125 12.9375 19 14.1167 19 15.5C19 16.8833 18.5125 18.0625 17.5375 19.0375C16.5625 20.0125 15.3833 20.5 14 20.5ZM10 7.5H14L9 2.5V6.5C9 6.78333 9.09583 7.02083 9.2875 7.2125C9.47917 7.40417 9.71667 7.5 10 7.5ZM2 20.5C1.45 20.5 0.979167 20.3042 0.5875 19.9125C0.195833 19.5208 0 19.05 0 18.5V2.5C0 1.95 0.195833 1.47917 0.5875 1.0875C0.979167 0.695833 1.45 0.5 2 0.5H9.175C9.44167 0.5 9.69583 0.55 9.9375 0.65C10.1792 0.75 10.3917 0.891667 10.575 1.075L15.425 5.925C15.6083 6.10833 15.75 6.32083 15.85 6.5625C15.95 6.80417 16 7.05833 16 7.325V7.65C16 7.93333 15.8875 8.16667 15.6625 8.35C15.4375 8.53333 15.175 8.6 14.875 8.55C14.7417 8.53333 14.6 8.52083 14.45 8.5125C14.3 8.50417 14.15 8.5 14 8.5C13.05 8.5 12.1542 8.67917 11.3125 9.0375C10.4708 9.39583 9.73333 9.88333 9.1 10.5H5C4.71667 10.5 4.47917 10.5958 4.2875 10.7875C4.09583 10.9792 4 11.2167 4 11.5C4 11.7833 4.09583 12.0208 4.2875 12.2125C4.47917 12.4042 4.71667 12.5 5 12.5H7.675C7.525 12.8167 7.4 13.1417 7.3 13.475C7.2 13.8083 7.125 14.15 7.075 14.5H5C4.71667 14.5 4.47917 14.5958 4.2875 14.7875C4.09583 14.9792 4 15.2167 4 15.5C4 15.7833 4.09583 16.0208 4.2875 16.2125C4.47917 16.4042 4.71667 16.5 5 16.5H7.075C7.15833 16.9833 7.28333 17.4542 7.45 17.9125C7.61667 18.3708 7.83333 18.8083 8.1 19.225C8.28333 19.5083 8.30417 19.7917 8.1625 20.075C8.02083 20.3583 7.8 20.5 7.5 20.5H2Z" fill="white"/>
</svg>
