<svg width="20" height="21" viewBox="0 0 20 21" fill="none" xmlns="http://www.w3.org/2000/svg">
<path d="M8.82547 20.5C8.37547 20.5 7.98797 20.35 7.66297 20.05C7.33797 19.75 7.14214 19.3833 7.07547 18.95L6.85047 17.3C6.6338 17.2167 6.42964 17.1167 6.23797 17C6.0463 16.8833 5.8588 16.7583 5.67547 16.625L4.12547 17.275C3.7088 17.4583 3.29214 17.475 2.87547 17.325C2.4588 17.175 2.1338 16.9083 1.90047 16.525L0.725469 14.475C0.492135 14.0917 0.425469 13.6833 0.525469 13.25C0.625469 12.8167 0.850469 12.4583 1.20047 12.175L2.52547 11.175C2.5088 11.0583 2.50047 10.9458 2.50047 10.8375V10.1625C2.50047 10.0542 2.5088 9.94167 2.52547 9.825L1.20047 8.825C0.850469 8.54167 0.625469 8.18333 0.525469 7.75C0.425469 7.31667 0.492135 6.90833 0.725469 6.525L1.90047 4.475C2.1338 4.09167 2.4588 3.825 2.87547 3.675C3.29214 3.525 3.7088 3.54167 4.12547 3.725L5.67547 4.375C5.8588 4.24167 6.05047 4.11667 6.25047 4C6.45047 3.88333 6.65047 3.78333 6.85047 3.7L7.07547 2.05C7.14214 1.61667 7.33797 1.25 7.66297 0.95C7.98797 0.65 8.37547 0.5 8.82547 0.5H11.1755C11.6255 0.5 12.013 0.65 12.338 0.95C12.663 1.25 12.8588 1.61667 12.9255 2.05L13.1505 3.7C13.3671 3.78333 13.5713 3.88333 13.763 4C13.9546 4.11667 14.1421 4.24167 14.3255 4.375L15.8755 3.725C16.2921 3.54167 16.7088 3.525 17.1255 3.675C17.5421 3.825 17.8671 4.09167 18.1005 4.475L19.2755 6.525C19.5088 6.90833 19.5755 7.31667 19.4755 7.75C19.3755 8.18333 19.1505 8.54167 18.8005 8.825L17.4755 9.825C17.4921 9.94167 17.5005 10.0542 17.5005 10.1625V10.8375C17.5005 10.9458 17.4838 11.0583 17.4505 11.175L18.7755 12.175C19.1255 12.4583 19.3505 12.8167 19.4505 13.25C19.5505 13.6833 19.4838 14.0917 19.2505 14.475L18.0505 16.525C17.8171 16.9083 17.4921 17.175 17.0755 17.325C16.6588 17.475 16.2421 17.4583 15.8255 17.275L14.3255 16.625C14.1421 16.7583 13.9505 16.8833 13.7505 17C13.5505 17.1167 13.3505 17.2167 13.1505 17.3L12.9255 18.95C12.8588 19.3833 12.663 19.75 12.338 20.05C12.013 20.35 11.6255 20.5 11.1755 20.5H8.82547ZM9.00047 18.5H10.9755L11.3255 15.85C11.8421 15.7167 12.3213 15.5208 12.763 15.2625C13.2046 15.0042 13.6088 14.6917 13.9755 14.325L16.4505 15.35L17.4255 13.65L15.2755 12.025C15.3588 11.7917 15.4171 11.5458 15.4505 11.2875C15.4838 11.0292 15.5005 10.7667 15.5005 10.5C15.5005 10.2333 15.4838 9.97083 15.4505 9.7125C15.4171 9.45417 15.3588 9.20833 15.2755 8.975L17.4255 7.35L16.4505 5.65L13.9755 6.7C13.6088 6.31667 13.2046 5.99583 12.763 5.7375C12.3213 5.47917 11.8421 5.28333 11.3255 5.15L11.0005 2.5H9.02547L8.67547 5.15C8.1588 5.28333 7.67964 5.47917 7.23797 5.7375C6.7963 5.99583 6.39214 6.30833 6.02547 6.675L3.55047 5.65L2.57547 7.35L4.72547 8.95C4.64214 9.2 4.5838 9.45 4.55047 9.7C4.51714 9.95 4.50047 10.2167 4.50047 10.5C4.50047 10.7667 4.51714 11.025 4.55047 11.275C4.5838 11.525 4.64214 11.775 4.72547 12.025L2.57547 13.65L3.55047 15.35L6.02547 14.3C6.39214 14.6833 6.7963 15.0042 7.23797 15.2625C7.67964 15.5208 8.1588 15.7167 8.67547 15.85L9.00047 18.5ZM10.0505 14C11.0171 14 11.8421 13.6583 12.5255 12.975C13.2088 12.2917 13.5505 11.4667 13.5505 10.5C13.5505 9.53333 13.2088 8.70833 12.5255 8.025C11.8421 7.34167 11.0171 7 10.0505 7C9.06713 7 8.23797 7.34167 7.56297 8.025C6.88797 8.70833 6.55047 9.53333 6.55047 10.5C6.55047 11.4667 6.88797 12.2917 7.56297 12.975C8.23797 13.6583 9.06713 14 10.0505 14Z" fill="white"/>
</svg>
