<svg width="16" height="17" viewBox="0 0 16 17" fill="none" xmlns="http://www.w3.org/2000/svg">
<mask id="mask0_151_3919" style="mask-type:alpha" maskUnits="userSpaceOnUse" x="0" y="0" width="16" height="17">
<rect y="0.5" width="16" height="16" fill="#D9D9D9"/>
</mask>
<g mask="url(#mask0_151_3919)">
<path d="M7.51579 8.80073L6.54912 7.85073C6.4269 7.72851 6.27412 7.6674 6.09079 7.6674C5.90745 7.6674 5.74912 7.73406 5.61579 7.8674C5.49357 7.98962 5.43245 8.14517 5.43245 8.33406C5.43245 8.52295 5.49357 8.67851 5.61579 8.80073L7.04912 10.2341C7.18245 10.3674 7.33801 10.4341 7.51579 10.4341C7.69357 10.4341 7.84912 10.3674 7.98245 10.2341L10.8158 7.40073C10.9491 7.2674 11.013 7.11184 11.0075 6.93406C11.0019 6.75629 10.938 6.60073 10.8158 6.4674C10.6825 6.33406 10.5241 6.26462 10.3408 6.25906C10.1575 6.25351 9.99912 6.3174 9.86579 6.45073L7.51579 8.80073ZM5.64912 14.8341L4.68245 13.2007L2.84912 12.8007C2.68245 12.7674 2.54912 12.6813 2.44912 12.5424C2.34912 12.4035 2.31023 12.2507 2.33245 12.0841L2.51579 10.2007L1.26579 8.7674C1.15468 8.64517 1.09912 8.50073 1.09912 8.33406C1.09912 8.1674 1.15468 8.02295 1.26579 7.90073L2.51579 6.4674L2.33245 4.58406C2.31023 4.4174 2.34912 4.26462 2.44912 4.12573C2.54912 3.98684 2.68245 3.90073 2.84912 3.8674L4.68245 3.4674L5.64912 1.83406C5.73801 1.68962 5.86023 1.5924 6.01579 1.5424C6.17134 1.4924 6.3269 1.50073 6.48245 1.5674L8.21579 2.30073L9.94912 1.5674C10.1047 1.50073 10.2602 1.4924 10.4158 1.5424C10.5713 1.5924 10.6936 1.68962 10.7825 1.83406L11.7491 3.4674L13.5825 3.8674C13.7491 3.90073 13.8825 3.98684 13.9825 4.12573C14.0825 4.26462 14.1213 4.4174 14.0991 4.58406L13.9158 6.4674L15.1658 7.90073C15.2769 8.02295 15.3325 8.1674 15.3325 8.33406C15.3325 8.50073 15.2769 8.64517 15.1658 8.7674L13.9158 10.2007L14.0991 12.0841C14.1213 12.2507 14.0825 12.4035 13.9825 12.5424C13.8825 12.6813 13.7491 12.7674 13.5825 12.8007L11.7491 13.2007L10.7825 14.8341C10.6936 14.9785 10.5713 15.0757 10.4158 15.1257C10.2602 15.1757 10.1047 15.1674 9.94912 15.1007L8.21579 14.3674L6.48245 15.1007C6.3269 15.1674 6.17134 15.1757 6.01579 15.1257C5.86023 15.0757 5.73801 14.9785 5.64912 14.8341Z" fill="#9287DE"/>
</g>
</svg>
