<svg width="24" height="25" viewBox="0 0 24 25" fill="none" xmlns="http://www.w3.org/2000/svg">
<path d="M4.54965 19.5C3.69965 19.5 3.04132 19.2042 2.57465 18.6125C2.10798 18.0208 1.93298 17.3 2.04965 16.45L3.09965 8.95C3.24965 7.95 3.69548 7.125 4.43715 6.475C5.17882 5.825 6.04965 5.5 7.04965 5.5H16.9496C17.9496 5.5 18.8205 5.825 19.5621 6.475C20.3038 7.125 20.7496 7.95 20.8996 8.95L21.9496 16.45C22.0663 17.3 21.8913 18.0208 21.4247 18.6125C20.958 19.2042 20.2997 19.5 19.4496 19.5C19.0996 19.5 18.7746 19.4375 18.4746 19.3125C18.1747 19.1875 17.8996 19 17.6496 18.75L15.3996 16.5H8.59965L6.34965 18.75C6.09965 19 5.82465 19.1875 5.52465 19.3125C5.22465 19.4375 4.89965 19.5 4.54965 19.5ZM16.9996 13.5C17.283 13.5 17.5205 13.4042 17.7121 13.2125C17.9038 13.0208 17.9996 12.7833 17.9996 12.5C17.9996 12.2167 17.9038 11.9792 17.7121 11.7875C17.5205 11.5958 17.283 11.5 16.9996 11.5C16.7163 11.5 16.4788 11.5958 16.2871 11.7875C16.0955 11.9792 15.9996 12.2167 15.9996 12.5C15.9996 12.7833 16.0955 13.0208 16.2871 13.2125C16.4788 13.4042 16.7163 13.5 16.9996 13.5ZM14.9996 10.5C15.283 10.5 15.5205 10.4042 15.7121 10.2125C15.9038 10.0208 15.9996 9.78333 15.9996 9.5C15.9996 9.21667 15.9038 8.97917 15.7121 8.7875C15.5205 8.59583 15.283 8.5 14.9996 8.5C14.7163 8.5 14.4788 8.59583 14.2871 8.7875C14.0955 8.97917 13.9996 9.21667 13.9996 9.5C13.9996 9.78333 14.0955 10.0208 14.2871 10.2125C14.4788 10.4042 14.7163 10.5 14.9996 10.5ZM7.74965 11.75V12.75C7.74965 12.9667 7.82048 13.1458 7.96215 13.2875C8.10382 13.4292 8.28298 13.5 8.49965 13.5C8.71632 13.5 8.89548 13.4292 9.03715 13.2875C9.17881 13.1458 9.24965 12.9667 9.24965 12.75V11.75H10.2496C10.4663 11.75 10.6455 11.6792 10.7871 11.5375C10.9288 11.3958 10.9996 11.2167 10.9996 11C10.9996 10.7833 10.9288 10.6042 10.7871 10.4625C10.6455 10.3208 10.4663 10.25 10.2496 10.25H9.24965V9.25C9.24965 9.03333 9.17881 8.85417 9.03715 8.7125C8.89548 8.57083 8.71632 8.5 8.49965 8.5C8.28298 8.5 8.10382 8.57083 7.96215 8.7125C7.82048 8.85417 7.74965 9.03333 7.74965 9.25V10.25H6.74965C6.53298 10.25 6.35382 10.3208 6.21215 10.4625C6.07048 10.6042 5.99965 10.7833 5.99965 11C5.99965 11.2167 6.07048 11.3958 6.21215 11.5375C6.35382 11.6792 6.53298 11.75 6.74965 11.75H7.74965Z" fill="#8A8989"/>
</svg>
