<svg width="186" height="140" viewBox="0 0 186 140" fill="none" xmlns="http://www.w3.org/2000/svg">
<path fill-rule="evenodd" clip-rule="evenodd" d="M122.608 -48.0199L122.357 -48.2817C121.631 -50.3174 120.877 -52.6149 120.151 -54.6506C117.945 -61.2813 116.214 -67.941 114.986 -74.3099V-74.8334C114.735 -75.8513 114.735 -76.6074 114.483 -77.3926V-78.4105C114.232 -79.1666 114.232 -79.9518 113.981 -80.7079V-81.7258L113.729 -84.0233L113.478 -85.3029V-87.3386L113.227 -88.8799V-101.123C113.227 -101.647 113.478 -102.141 113.478 -102.665V-104.206C113.729 -105.486 113.729 -106.504 113.981 -107.521C113.981 -108.278 114.232 -108.801 114.232 -109.295C114.232 -109.79 114.483 -110.313 114.483 -110.837C114.735 -111.593 114.735 -112.116 114.986 -112.872C114.986 -113.134 114.986 -113.629 115.237 -114.152C115.237 -114.676 115.488 -115.432 115.488 -115.926C115.74 -116.45 115.74 -116.944 115.991 -117.7L116.494 -119.241C116.494 -119.765 116.745 -120.259 116.996 -120.783C116.996 -121.306 117.247 -121.801 117.499 -122.324L118.001 -124.098L118.504 -125.639L119.23 -127.413L119.732 -128.955C119.983 -129.478 120.235 -129.973 120.458 -130.729L121.184 -132.008C121.435 -132.532 121.687 -133.288 121.91 -133.782L122.636 -135.324C122.887 -135.847 123.362 -136.342 123.613 -137.098C123.864 -137.359 124.116 -137.854 124.339 -138.377C124.841 -138.901 125.065 -139.657 125.567 -140.413C125.819 -140.675 126.07 -141.169 126.07 -141.431C126.572 -142.187 127.047 -142.71 127.55 -143.467C127.801 -143.728 128.052 -144.223 128.276 -144.484C128.778 -145.502 129.504 -146.52 130.258 -147.538L130.76 -148.061C131.263 -148.818 131.989 -149.603 132.743 -150.621C132.994 -150.882 133.245 -151.377 133.72 -151.639C134.222 -152.395 134.697 -152.918 135.2 -153.413C135.451 -153.936 135.925 -154.43 136.177 -154.692C136.679 -155.216 137.154 -155.972 137.657 -156.466C138.159 -156.728 138.634 -157.222 139.136 -157.746L140.616 -159.287L141.844 -160.567C142.57 -161.09 143.073 -161.585 143.575 -162.108L145.055 -163.388L146.786 -164.929L148.266 -166.209C148.768 -166.732 149.494 -167.226 150.248 -167.75L151.477 -169.029L153.682 -170.571L155.162 -171.589C155.888 -172.345 156.642 -172.868 157.619 -173.363C158.121 -173.624 158.345 -174.119 158.847 -174.381C159.825 -174.904 160.83 -175.398 161.556 -176.155L162.784 -176.911C163.761 -177.434 164.766 -178.19 165.743 -178.685L167.223 -179.441C168.452 -180.197 169.931 -181.215 171.411 -182L196.287 -145.997C139.639 -122.76 135.2 -78.8467 147.512 -31.0943L160.578 -40.0224L160.327 -38.7428L160.076 -38.2194V-37.6959L159.825 -37.1724L159.573 -36.4163V-36.1546L159.322 -35.3984V-34.3806L159.071 -34.1188V-33.101L158.819 -32.8392V-31.8214L158.568 -31.0652V-30.3091L158.317 -29.7856V-28.506L158.066 -27.7499V-25.7142L157.814 -24.6963V-20.8575V-19.0835L158.066 -18.56V-17.0187V-16.0008L158.317 -15.7391V-14.1978C158.568 -13.1799 158.819 -12.4238 158.819 -11.6385V-11.3768L159.071 -10.6207C159.322 -10.0972 159.322 -9.34108 159.573 -8.84669V-8.58496L159.825 -7.82883L160.076 -7.07271V-6.31657L160.327 -6.05484V-5.53136L160.578 -5.00789V-4.74615L160.83 -3.99002L161.081 -3.46655V-3.20482L161.332 -2.68134L161.583 -2.15787V-1.89613L161.835 -1.14001L162.086 -0.383881V-0.122131L162.337 0.401337L162.589 0.924805L162.84 1.44827V1.97176L163.091 2.23349L163.342 2.98962L163.594 3.74574L163.845 4.00748L164.096 4.53098V5.05443L164.348 5.5779L164.599 6.10138V6.36313L165.101 7.11926L165.353 8.13712L165.604 8.39885L165.855 8.92232L166.106 9.44579V9.70753L166.358 10.7254H166.609C156.251 -69.1915 170.071 -157.28 272.759 -154.198L277.198 -110.022C216.864 -119.474 191.737 -83.4707 179.424 -35.7183L194.947 -36.9979C180.429 -21.6718 177.944 -10.9697 175.739 9.96927C205.305 -64.5966 259.72 -133.782 347.416 -77.5962L329.687 -37.2597C282.14 -76.5783 242.997 -58.693 209.242 -23.7366L223.286 -16.5825C203.323 -10.9697 196.204 -2.79765 184.115 14.0698C245.454 -35.1948 326.225 -66.865 375 27.0985L340.268 52.8941C317.849 -5.82217 275.495 -10.4171 229.428 2.34982L238.055 15.8729C218.093 10.2601 208.014 13.5754 189.28 22.0092C266.114 11.278 351.352 25.5862 348.393 132.055L305.788 136.65C314.666 74.0947 280.185 48.0665 234.118 35.2995L235.096 51.3818C220.577 36.3174 210.219 33.7582 190.033 31.4608C261.954 62.113 328.71 118.532 274.518 209.413L235.598 191.033C273.541 141.768 256.035 101.17 222.532 66.1845L215.636 80.7254C210.219 60.0482 202.346 52.6323 186.069 40.1272C233.364 103.7 264.132 187.456 173.505 238L148.378 201.997C205.026 178.76 209.717 134.847 197.404 87.0943L184.338 96.0225C189.754 75.3453 186.544 64.8758 178.419 45.4782C188.777 125.133 174.957 213.484 72.0178 210.401L67.8299 166.226C127.913 175.416 153.291 139.674 165.604 91.9219L149.829 92.9398C164.599 77.8754 166.832 67.1442 169.289 46.2052C139.723 120.771 85.3075 189.957 -2.38763 133.771L15.3412 93.4342C62.8881 132.753 102.031 114.635 135.535 79.9111L121.491 72.757C141.677 67.1442 148.824 58.9722 160.886 42.1047C99.3231 91.1367 18.7753 123.039 -30 29.076L4.73184 3.04779C27.1512 61.764 69.505 66.6207 115.572 53.8538L106.945 40.3307C126.908 45.9435 136.986 42.6282 155.72 34.1944C78.6347 44.9256 -6.3522 30.6174 -3.39273 -76.113L39.2124 -80.4462C30.1106 -18.1529 64.8146 8.13712 110.882 20.9041L109.653 4.56004C124.423 19.8862 134.781 22.1837 154.967 24.7428C83.046 -5.90941 16.2905 -62.3282 70.4822 -153.209L109.402 -134.829C71.4594 -85.5646 88.7136 -44.9663 122.468 -10.2426L129.364 -24.7835C134.781 -3.84462 142.654 3.54218 158.931 16.0764C144.162 -3.84462 130.844 -25.5397 122.72 -47.7582L122.608 -48.0199Z" fill="url(#paint0_radial_5_1170)" fill-opacity="0.15"/>
<defs>
<radialGradient id="paint0_radial_5_1170" cx="0" cy="0" r="1" gradientTransform="matrix(-60 141.037 -135.934 -62.2598 172.5 28)" gradientUnits="userSpaceOnUse">
<stop stop-color="#6C5DD3"/>
<stop offset="1" stop-color="#38306D" stop-opacity="0"/>
</radialGradient>
</defs>
</svg>
