<svg width="47" height="47" viewBox="0 0 47 47" fill="none" xmlns="http://www.w3.org/2000/svg">
<mask id="mask0_646_5353" style="mask-type:alpha" maskUnits="userSpaceOnUse" x="0" y="0" width="47" height="47">
<rect x="0.972656" y="13.2529" width="35" height="35" transform="rotate(-20.5411 0.972656 13.2529)" fill="#D9D9D9"/>
</mask>
<g mask="url(#mask0_646_5353)">
<g filter="url(#filter0_i_646_5353)">
<path d="M24.9558 23.2274L23.3312 18.8915C23.1862 18.5046 22.9338 18.2293 22.574 18.0657C22.2142 17.902 21.8408 17.8926 21.4539 18.0376C21.0669 18.1826 20.7916 18.435 20.628 18.7948C20.4643 19.1546 20.455 19.528 20.6 19.9149L22.4293 24.797C22.4975 24.9791 22.5977 25.1427 22.73 25.2878C22.8622 25.4329 23.0222 25.5482 23.2099 25.6336L27.9502 27.7897C28.3256 27.9605 28.7011 27.9755 29.0767 27.8348C29.4522 27.6941 29.7254 27.436 29.8962 27.0605C30.0442 26.6936 30.0478 26.3224 29.9071 25.9468C29.7664 25.5713 29.5239 25.3052 29.1798 25.1487L24.9558 23.2274ZM20.4305 15.3064C20.8174 15.1614 21.0927 14.909 21.2564 14.5492C21.42 14.1894 21.4294 13.816 21.2844 13.4291C21.1394 13.0422 20.887 12.7669 20.5272 12.6032C20.1674 12.4395 19.794 12.4302 19.4071 12.5752C19.0201 12.7202 18.7449 12.9726 18.5812 13.3324C18.4175 13.6922 18.4082 14.0656 18.5532 14.4525C18.6981 14.8394 18.9505 15.1147 19.3104 15.2784C19.6702 15.442 20.0435 15.4514 20.4305 15.3064ZM31.6943 20.4299C31.8393 20.8168 32.0917 21.0921 32.4515 21.2558C32.8114 21.4194 33.1847 21.4288 33.5717 21.2838C33.9586 21.1388 34.2339 20.8864 34.3975 20.5266C34.5612 20.1668 34.5706 19.7934 34.4256 19.4065C34.2806 19.0196 34.0282 18.7443 33.6684 18.5806C33.3086 18.4169 32.9352 18.4076 32.5483 18.5526C32.1613 18.6976 31.886 18.95 31.7224 19.3098C31.5587 19.6696 31.5494 20.043 31.6943 20.4299ZM26.5709 31.6938C26.1839 31.8387 25.9086 32.0911 25.745 32.451C25.5813 32.8108 25.572 33.1842 25.7169 33.5711C25.8619 33.958 26.1143 34.2333 26.4741 34.397C26.834 34.5606 27.2073 34.57 27.5943 34.425C27.9812 34.28 28.2565 34.0276 28.4201 33.6678C28.5838 33.308 28.5932 32.9346 28.4482 32.5477C28.3032 32.1608 28.0508 31.8855 27.691 31.7218C27.3312 31.5581 26.9578 31.5488 26.5709 31.6938ZM15.307 26.5703C15.162 26.1834 14.9096 25.9081 14.5498 25.7444C14.19 25.5807 13.8166 25.5714 13.4297 25.7164C13.0427 25.8613 12.7675 26.1137 12.6038 26.4736C12.4401 26.8334 12.4308 27.2068 12.5758 27.5937C12.7207 27.9806 12.9731 28.2559 13.333 28.4196C13.6928 28.5832 14.0661 28.5926 14.4531 28.4476C14.84 28.3026 15.1153 28.0502 15.279 27.6904C15.4426 27.3306 15.452 26.9572 15.307 26.5703ZM28.6177 37.1562C26.7286 37.8641 24.8189 38.1708 22.8888 38.0764C20.9587 37.982 19.1488 37.5506 17.4592 36.7821C15.7696 36.0135 14.2551 34.9329 12.9156 33.54C11.5761 32.1471 10.5524 30.5062 9.84453 28.6171C9.13668 26.728 8.82994 24.8184 8.92432 22.8882C9.0187 20.9581 9.45015 19.1482 10.2187 17.4586C10.9872 15.7691 12.0679 14.2545 13.4607 12.915C14.8536 11.5755 16.4946 10.5518 18.3837 9.84395C20.2728 9.1361 22.1824 8.82936 24.1125 8.92374C26.0427 9.01812 27.8525 9.44957 29.5421 10.2181C31.2317 10.9866 32.7462 12.0673 34.0857 13.4602C35.4253 14.853 36.4489 16.494 37.1568 18.3831C37.8646 20.2722 38.1714 22.1818 38.077 24.112C37.9826 26.0421 37.5512 27.8519 36.7826 29.5415C36.0141 31.2311 34.9334 32.7457 33.5406 34.0852C32.1477 35.4247 30.5067 36.4484 28.6177 37.1562Z" fill="white"/>
</g>
</g>
<defs>
<filter id="filter0_i_646_5353" x="5.90723" y="7.90723" width="32.1865" height="30.186" filterUnits="userSpaceOnUse" color-interpolation-filters="sRGB">
<feFlood flood-opacity="0" result="BackgroundImageFix"/>
<feBlend mode="normal" in="SourceGraphic" in2="BackgroundImageFix" result="shape"/>
<feColorMatrix in="SourceAlpha" type="matrix" values="0 0 0 0 0 0 0 0 0 0 0 0 0 0 0 0 0 0 127 0" result="hardAlpha"/>
<feOffset dx="-3" dy="-1"/>
<feGaussianBlur stdDeviation="3.5"/>
<feComposite in2="hardAlpha" operator="arithmetic" k2="-1" k3="1"/>
<feColorMatrix type="matrix" values="0 0 0 0 0.596078 0 0 0 0 0.541176 0 0 0 0 0.980392 0 0 0 1 0"/>
<feBlend mode="normal" in2="shape" result="effect1_innerShadow_646_5353"/>
</filter>
</defs>
</svg>
