<svg width="54" height="54" viewBox="0 0 54 54" fill="none" xmlns="http://www.w3.org/2000/svg">
<mask id="mask0_646_5355" style="mask-type:alpha" maskUnits="userSpaceOnUse" x="0" y="0" width="54" height="54">
<rect x="10.167" y="0.834473" width="44" height="44" transform="rotate(12.2468 10.167 0.834473)" fill="#D9D9D9"/>
</mask>
<g mask="url(#mask0_646_5355)">
<g filter="url(#filter0_i_646_5355)">
<path d="M8.22752 24.8957C7.94698 24.4596 7.86602 24.0043 7.98466 23.5298C8.10329 23.0552 8.38066 22.6777 8.81676 22.3972C9.24638 22.1465 9.70169 22.0655 10.1827 22.1543C10.6637 22.2431 11.0445 22.5055 11.325 22.9416L17.2866 32.2088C17.5671 32.6449 17.6481 33.1002 17.5294 33.5747C17.4108 34.0492 17.1334 34.4268 16.6973 34.7073C16.2677 34.958 15.8124 35.0389 15.3314 34.9502C14.8504 34.8614 14.4696 34.599 14.1891 34.1629L8.22752 24.8957ZM26.3922 32.8252L44.9265 20.902C45.3626 20.6215 45.8179 20.5405 46.2924 20.6592C46.767 20.7778 47.1445 21.0552 47.425 21.4913C47.6757 21.9209 47.7567 22.3762 47.6679 22.8572C47.5791 23.3382 47.3167 23.719 46.8806 23.9995L26.8199 36.9046C26.3838 37.1851 25.9269 37.2735 25.4491 37.1698C24.9714 37.0661 24.5922 36.7962 24.3117 36.3601L18.3501 27.093C18.093 26.6932 18.0179 26.247 18.1248 25.7543C18.2317 25.2616 18.4883 24.8717 18.8946 24.5847C19.3307 24.3042 19.7951 24.2174 20.2878 24.3243C20.7805 24.4312 21.1671 24.7028 21.4476 25.1389L26.3922 32.8252ZM36.7035 21.8374L29.0172 26.7819C28.6174 27.0391 28.1712 27.1142 27.6785 27.0073C27.1858 26.9003 26.796 26.6437 26.5089 26.2375C26.2284 25.8014 26.1416 25.337 26.2485 24.8443C26.3555 24.3516 26.627 23.965 27.0631 23.6844L34.7494 18.7399C35.1491 18.4827 35.5954 18.4076 36.0881 18.5145C36.5808 18.6215 36.9706 18.8781 37.2576 19.2843C37.5382 19.7204 37.625 20.1848 37.518 20.6775C37.4111 21.1702 37.1396 21.5568 36.7035 21.8374Z" fill="white"/>
</g>
</g>
<defs>
<filter id="filter0_i_646_5355" x="7.93164" y="18.4673" width="41.7715" height="19.7446" filterUnits="userSpaceOnUse" color-interpolation-filters="sRGB">
<feFlood flood-opacity="0" result="BackgroundImageFix"/>
<feBlend mode="normal" in="SourceGraphic" in2="BackgroundImageFix" result="shape"/>
<feColorMatrix in="SourceAlpha" type="matrix" values="0 0 0 0 0 0 0 0 0 0 0 0 0 0 0 0 0 0 127 0" result="hardAlpha"/>
<feOffset dx="2" dy="1"/>
<feGaussianBlur stdDeviation="1.55"/>
<feComposite in2="hardAlpha" operator="arithmetic" k2="-1" k3="1"/>
<feColorMatrix type="matrix" values="0 0 0 0 0.596078 0 0 0 0 0.541176 0 0 0 0 0.980392 0 0 0 1 0"/>
<feBlend mode="normal" in2="shape" result="effect1_innerShadow_646_5355"/>
</filter>
</defs>
</svg>
