<svg width="86" height="72" viewBox="0 0 86 72" fill="none" xmlns="http://www.w3.org/2000/svg">
<g filter="url(#filter0_i_2001_2049)">
<path d="M67.4373 0.867676C63.4662 0.867676 59.8724 5.14424 59.8724 10.8619C59.8724 16.5939 63.4662 20.8705 67.4373 20.8705C71.4084 20.8705 75.0021 16.5939 75.0021 10.8619C75.0021 5.14424 71.4084 0.867676 67.4373 0.867676ZM18.5802 0.885645C14.602 0.885645 10.9992 5.16221 10.9992 10.8619C10.9992 16.5939 14.602 20.8705 18.5802 20.8705C22.5693 20.8705 26.1631 16.5939 26.1631 10.8619C26.1631 5.16221 22.5693 0.885645 18.5802 0.885645ZM11.9156 21.715C7.42344 23.1525 2.46407 27.7346 1.24219 32.8377L0.595316 47.1588C0.577347 49.2431 2.94922 52.3338 7.20782 51.3096C16.5498 49.0814 21.4193 46.6377 28.481 43.8525L27.6006 39.6299C21.3834 41.8221 14.2605 44.6611 7.06407 45.3619L7.26172 31.0049L10.4961 31.0408L10.3703 41.4806C15.1841 40.6002 21.7787 38.2463 26.9357 36.4494L25.8037 30.951L28.9662 30.3041C30.2599 36.5572 31.2841 41.4806 32.5779 47.8955C30.9068 47.7517 29.5951 47.6439 27.9599 47.5361C24.8334 48.8119 22.0123 50.0338 18.8498 51.2197C22.8209 51.9924 26.6841 52.6572 29.8107 52.7291C32.4881 52.783 34.5005 52.3158 35.4888 51.5072C36.4771 50.6986 36.9802 49.4767 36.4052 46.6197C35.2013 40.6721 34.3029 34.8861 32.6498 30.4299C30.9966 25.9377 28.7865 22.9728 24.7435 21.7689C23.0365 23.2424 20.9162 24.1049 18.5802 24.1049C15.9927 24.0689 14.4762 23.2963 11.9156 21.715ZM74.0857 21.715C71.5341 23.2963 70.0248 24.0689 67.4373 24.1049C65.1193 24.1049 62.999 23.2424 61.292 21.7689C57.249 22.9728 55.0388 25.9377 53.3857 30.4299C51.7326 34.8861 50.8341 40.6721 49.6302 46.6197C49.0552 49.4767 49.5584 50.6986 50.5466 51.5072C51.5349 52.3158 53.5474 52.783 56.2248 52.7291C59.3513 52.6572 63.2146 51.9924 67.1857 51.2197C64.0232 50.0338 61.2021 48.8119 58.0756 47.5361C56.4404 47.6439 55.1287 47.7517 53.4576 47.8955C54.7513 41.4806 55.7756 36.5572 57.0693 30.3041L60.2318 30.951L59.0998 36.4494C64.2568 38.2642 70.8334 40.6181 75.631 41.4986L75.5052 31.0588L78.7396 31.0228L78.9373 45.3799C71.7498 44.6791 64.6521 41.84 58.4349 39.6478L57.5545 43.8705C64.6162 46.6556 69.4677 49.0994 78.7935 51.3275C83.0521 52.3517 85.424 49.2611 85.406 47.1767L84.7591 32.8556C83.5373 27.7346 78.5779 23.1525 74.0857 21.715ZM12.6254 53.2322C10.7297 53.7892 8.50157 54.4541 6.39922 54.7236L6.84844 71.1291H27.4568L27.906 55.8556C23.1623 55.4963 17.6638 54.2564 12.6254 53.2322ZM73.3849 53.2322C68.3537 54.2564 62.8732 55.4963 58.1295 55.8556L58.5787 71.1291H79.1529L79.6021 54.7236C77.4998 54.4541 75.2716 53.7892 73.3849 53.2322Z" fill="url(#paint0_linear_2001_2049)"/>
</g>
<path d="M7.09182 50.8232L7.0909 50.8234C3.16196 51.7683 1.08686 48.9388 1.09524 47.1717L1.73951 32.9084C2.33135 30.4845 3.81163 28.1585 5.70691 26.2545C7.55047 24.4024 9.75738 22.9794 11.8517 22.2629C14.3169 23.7762 15.9163 24.5679 18.5733 24.6048L18.5733 24.6049H18.5802C20.9476 24.6049 23.1025 23.7639 24.8562 22.3274C28.5232 23.5141 30.5898 26.28 32.1805 30.6025L32.181 30.6038C33.4654 34.066 34.2882 38.3378 35.1694 42.9128C35.4101 44.1623 35.6552 45.4345 35.9152 46.7189C36.1959 48.1138 36.2008 49.0535 36.0462 49.7185C35.8968 50.3618 35.5916 50.7771 35.1722 51.1202C34.7626 51.4553 34.0974 51.7508 33.1759 51.9532C32.262 52.1539 31.1305 52.2555 29.8216 52.2292C27.1911 52.1687 24.0162 51.6807 20.6687 51.0576C22.3106 50.4147 23.8878 49.7605 25.4934 49.0945C26.3308 48.7471 27.176 48.3965 28.0421 48.0427C29.6193 48.1476 30.9046 48.2534 32.535 48.3937L33.2 48.4508L33.068 47.7966C31.939 42.1985 31.0151 37.7357 29.9387 32.5359C29.7814 31.7759 29.6208 31.0001 29.4558 30.2028L29.3547 29.7143L28.866 29.8142L25.7035 30.4611L25.213 30.5614L25.3139 31.0518L26.3577 36.1214C26.1821 36.1827 26.005 36.2445 25.8266 36.3068C21.0367 37.9787 15.2891 39.9849 10.8777 40.8739L10.9961 31.0468L11.0021 30.5464L10.5017 30.5408L7.26728 30.5049L6.76863 30.4994L6.76177 30.998L6.56411 45.355L6.55642 45.9137L7.11253 45.8595C13.4456 45.2428 19.7202 42.9878 25.3201 40.9753C25.9653 40.7434 26.6016 40.5148 27.2279 40.2922L27.9056 43.5425C26.53 44.0887 25.237 44.6206 23.9757 45.1395C18.9306 47.2149 14.3913 49.0822 7.09182 50.8232ZM58.8076 40.3102C59.4506 40.5387 60.1038 40.7737 60.7662 41.012C66.3474 43.0196 72.5831 45.2627 78.8887 45.8775L79.4449 45.9317L79.4372 45.373L79.2396 31.0159L79.2327 30.5173L78.7341 30.5229L75.4997 30.5588L74.9993 30.5644L75.0053 31.0648L75.1237 40.8914C70.644 39.9854 64.778 37.9192 59.9382 36.2145C59.851 36.1838 59.7641 36.1532 59.6775 36.1227L60.7215 31.0518L60.8225 30.5614L60.332 30.4611L57.1695 29.8142L56.6807 29.7143L56.5797 30.2028C56.4146 31.0005 56.254 31.7766 56.0966 32.5369C55.0202 37.7363 54.0964 42.1989 52.9675 47.7966L52.8355 48.4508L53.5004 48.3937C55.1309 48.2534 56.4162 48.1476 57.9934 48.0426C58.8595 48.3965 59.7047 48.7471 60.5421 49.0945C62.1477 49.7605 63.7249 50.4148 65.3667 51.0576C62.0193 51.6807 58.8444 52.1687 56.2139 52.2292C54.905 52.2555 53.7735 52.1539 52.8596 51.9532C51.9381 51.7508 51.2728 51.4553 50.8633 51.1202C50.4439 50.7771 50.1387 50.3618 49.9892 49.7185C49.8347 49.0535 49.8396 48.1138 50.1203 46.7189C50.3803 45.4345 50.6253 44.1623 50.866 42.9128C51.7473 38.3378 52.5701 34.066 53.8545 30.6038L53.8549 30.6025C55.4456 26.28 57.5123 23.5141 61.1793 22.3274C62.9325 23.7636 65.0867 24.6049 67.4373 24.6049L67.4442 24.6048C70.1013 24.5679 71.6939 23.776 74.1501 22.263C76.2442 22.9796 78.4509 24.4026 80.2942 26.2565C82.1894 28.1626 83.6699 30.4932 84.2618 32.9261L84.9061 47.1896C84.9146 48.9566 82.8395 51.7863 78.9104 50.8414L78.9097 50.8412C71.6441 49.1053 67.1242 47.2439 62.102 45.1757C60.8279 44.6511 59.5216 44.1131 58.1299 43.5605L58.8076 40.3102ZM60.3724 10.8619C60.3724 5.29887 63.8499 1.36768 67.4373 1.36768C71.0247 1.36768 74.5021 5.29887 74.5021 10.8619C74.5021 16.4398 71.0243 20.3705 67.4373 20.3705C63.8503 20.3705 60.3724 16.4398 60.3724 10.8619ZM11.4992 10.8619C11.4992 5.31862 14.9842 1.38564 18.5802 1.38564C22.1868 1.38564 25.6631 5.3183 25.6631 10.8619C25.6631 16.439 22.1858 20.3705 18.5802 20.3705C14.9852 20.3705 11.4992 16.4387 11.4992 10.8619ZM7.33494 70.6291L6.91127 55.1566C8.85997 54.8605 10.877 54.2674 12.596 53.762L12.6473 53.7469C13.3231 53.8846 14.0082 54.0262 14.6995 54.1691C18.9381 55.0453 23.4081 55.9694 27.3923 56.3155L26.9713 70.6291H7.33494ZM59.0642 70.6291L58.6432 56.3155C62.6194 55.97 67.0681 55.0486 71.2919 54.1738C71.9894 54.0293 72.6807 53.8861 73.3627 53.747L73.3675 53.7484C75.0891 54.2568 77.124 54.8578 79.0901 55.1566L78.6664 70.6291H59.0642Z" stroke="url(#paint1_linear_2001_2049)"/>
<defs>
<filter id="filter0_i_2001_2049" x="0.595215" y="-0.132324" width="84.811" height="71.2612" filterUnits="userSpaceOnUse" color-interpolation-filters="sRGB">
<feFlood flood-opacity="0" result="BackgroundImageFix"/>
<feBlend mode="normal" in="SourceGraphic" in2="BackgroundImageFix" result="shape"/>
<feColorMatrix in="SourceAlpha" type="matrix" values="0 0 0 0 0 0 0 0 0 0 0 0 0 0 0 0 0 0 127 0" result="hardAlpha"/>
<feOffset dy="-1"/>
<feGaussianBlur stdDeviation="2"/>
<feComposite in2="hardAlpha" operator="arithmetic" k2="-1" k3="1"/>
<feColorMatrix type="matrix" values="0 0 0 0 0 0 0 0 0 0 0 0 0 0 0 0 0 0 0.25 0"/>
<feBlend mode="normal" in2="shape" result="effect1_innerShadow_2001_2049"/>
</filter>
<linearGradient id="paint0_linear_2001_2049" x1="43.0007" y1="0.867676" x2="43.0007" y2="71.1291" gradientUnits="userSpaceOnUse">
<stop offset="0.238159" stop-color="#9E91FF"/>
<stop offset="0.45" stop-color="#6C5DD3"/>
<stop offset="1" stop-color="#3D21FF"/>
</linearGradient>
<linearGradient id="paint1_linear_2001_2049" x1="43.0007" y1="0.867676" x2="43.0007" y2="71.1291" gradientUnits="userSpaceOnUse">
<stop stop-color="white"/>
<stop offset="0.55" stop-color="white" stop-opacity="0"/>
</linearGradient>
</defs>
</svg>
