<svg width="20" height="18" viewBox="0 0 20 18" fill="none" xmlns="http://www.w3.org/2000/svg">
<path d="M9.19929 2.92915L10 3.99941L10.8007 2.92915C11.6308 1.81956 12.9598 1.1001 14.44 1.1001C16.953 1.1001 19 3.1477 19 5.6901C19 6.77134 18.8277 7.76759 18.5286 8.69228L18.5285 8.69227L18.5265 8.69878C17.8081 10.9722 16.3295 12.8219 14.7095 14.2142C13.085 15.6103 11.3758 16.4966 10.2979 16.8634L10.2979 16.8633L10.2872 16.8671C10.2575 16.8776 10.1535 16.9001 10 16.9001C9.84649 16.9001 9.74251 16.8776 9.71282 16.8671L9.71284 16.867L9.70211 16.8634C8.62419 16.4966 6.915 15.6103 5.29054 14.2142C3.67048 12.8219 2.19192 10.9722 1.47353 8.69878L1.47355 8.69878L1.47144 8.69228C1.17228 7.76759 1 6.77134 1 5.6901C1 3.1477 3.04695 1.1001 5.56 1.1001C7.04019 1.1001 8.36915 1.81956 9.19929 2.92915Z" stroke="#828289" stroke-width="2"/>
</svg>
