<svg width="74" height="48" viewBox="0 0 74 48" fill="none" xmlns="http://www.w3.org/2000/svg">
<g filter="url(#filter0_i_2001_1482)">
<path d="M18.8667 0.63073C18.7841 0.63073 18.7003 0.632527 18.6157 0.636839C17.6012 0.68805 16.442 1.07959 14.8949 2.111C10.9734 4.72545 5.56697 12.9632 2.70599 21.8775C-0.154636 30.7918 -0.536652 40.2506 3.77261 45.7699C4.51688 46.7233 6.17809 47.3745 8.04127 47.3594C9.87696 47.3443 11.7576 46.6697 12.7998 45.6631C12.9834 45.399 14.4701 43.2668 16.6433 40.739C18.9546 38.0508 21.8032 35.0454 24.8793 33.7712C32.4015 30.6554 41.5945 30.6554 49.1168 33.7712C52.1927 35.0456 55.0411 38.051 57.3526 40.7391C59.5259 43.267 61.0128 45.399 61.1961 45.6633C62.2383 46.6699 64.1191 47.3445 65.9548 47.3596C67.8177 47.3748 69.4788 46.7235 70.2232 45.77C74.5309 40.2529 74.1557 30.7526 71.2974 21.82C68.4391 12.8872 63.0221 4.65519 59.1176 2.12196C57.0516 0.781489 55.668 0.553284 54.3945 0.749144C53.1209 0.945542 51.8166 1.68298 50.2858 2.73828C47.2243 4.84889 43.2963 8.1325 36.9976 8.1325C30.6704 8.1325 26.7347 4.80577 23.6773 2.67791C22.1491 1.61416 20.8508 0.876543 19.5907 0.687332C19.3544 0.651754 19.1145 0.63127 18.8665 0.630371L18.8667 0.63073ZM57.1229 9.3905C57.8854 9.3905 58.6167 9.6934 59.1559 10.2326C59.695 10.7717 59.9979 11.503 59.9979 12.2655C59.9979 13.028 59.695 13.7593 59.1559 14.2984C58.6167 14.8376 57.8854 15.1405 57.1229 15.1405C56.3604 15.1405 55.6292 14.8376 55.09 14.2984C54.5508 13.7593 54.2479 13.028 54.2479 12.2655C54.2479 11.503 54.5508 10.7717 55.09 10.2326C55.6292 9.6934 56.3604 9.3905 57.1229 9.3905ZM15.2579 10.8828H18.4923V16.6328H24.2423V19.8672H18.4923V25.6172H15.2579V19.8672H9.50788V16.6328H15.2579V10.8828ZM51.3729 15.1405C52.1354 15.1405 52.8667 15.4434 53.4059 15.9826C53.945 16.5217 54.2479 17.253 54.2479 18.0155C54.2479 18.778 53.945 19.5093 53.4059 20.0484C52.8667 20.5876 52.1354 20.8905 51.3729 20.8905C50.6104 20.8905 49.8792 20.5876 49.34 20.0484C48.8008 19.5093 48.4979 18.778 48.4979 18.0155C48.4979 17.253 48.8008 16.5217 49.34 15.9826C49.8792 15.4434 50.6104 15.1405 51.3729 15.1405ZM62.8729 15.1405C63.6354 15.1405 64.3667 15.4434 64.9059 15.9826C65.445 16.5217 65.7479 17.253 65.7479 18.0155C65.7479 18.778 65.445 19.5093 64.9059 20.0484C64.3667 20.5876 63.6354 20.8905 62.8729 20.8905C62.1104 20.8905 61.3792 20.5876 60.84 20.0484C60.3008 19.5093 59.9979 18.778 59.9979 18.0155C59.9979 17.253 60.3008 16.5217 60.84 15.9826C61.3792 15.4434 62.1104 15.1405 62.8729 15.1405ZM57.1229 20.8905C57.8854 20.8905 58.6167 21.1934 59.1559 21.7326C59.695 22.2717 59.9979 23.003 59.9979 23.7655C59.9979 24.528 59.695 25.2593 59.1559 25.7984C58.6167 26.3376 57.8854 26.6405 57.1229 26.6405C56.3604 26.6405 55.6292 26.3376 55.09 25.7984C54.5508 25.2593 54.2479 24.528 54.2479 23.7655C54.2479 23.003 54.5508 22.2717 55.09 21.7326C55.6292 21.1934 56.3604 20.8905 57.1229 20.8905ZM28.3729 22.1483H34.1229V25.3827H28.3729V22.1483ZM39.8729 22.1483H44.8857V25.3827H39.8729V22.1483Z" fill="url(#paint0_linear_2001_1482)"/>
</g>
<path d="M18.8667 1.13073H18.9068C19.1134 1.13354 19.3152 1.15148 19.5162 1.18176L19.5164 1.18179C20.6513 1.35219 21.866 2.0263 23.3917 3.08828L23.3917 3.0883C23.699 3.30218 24.0172 3.52992 24.3477 3.7665C27.266 5.85532 31.1459 8.6325 36.9976 8.6325C42.8251 8.6325 46.6964 5.88894 49.6169 3.8192C49.9461 3.58592 50.2632 3.3612 50.5696 3.14994C52.0975 2.0966 53.3198 1.42079 54.4707 1.2433C55.593 1.07073 56.854 1.24933 58.8455 2.54141C60.7059 3.74847 62.9895 6.36594 65.1768 9.83768C67.355 13.295 69.4055 17.5481 70.8212 21.9724C72.2378 26.3996 73.0336 30.9519 72.9476 35.0654C72.8616 39.1835 71.8935 42.8184 69.8291 45.4623C69.2171 46.2461 67.738 46.8742 65.9589 46.8596C64.2383 46.8454 62.5139 46.2156 61.5777 45.3363C61.2962 44.9322 59.8321 42.8562 57.7317 40.4132L57.7317 40.4131C55.4269 37.7329 52.5085 34.6352 49.3081 33.3093L49.3081 33.3093C41.6633 30.1428 32.3327 30.1428 24.6879 33.3093C21.4874 34.635 18.5687 37.7327 16.2641 40.413L16.2641 40.413C14.1634 42.8566 12.6993 44.9332 12.4183 45.336C11.4821 46.2154 9.75779 46.8452 8.03716 46.8594C6.25768 46.8738 4.77852 46.2459 4.16675 45.4622L4.16672 45.4621C2.10142 42.8169 1.13476 39.1917 1.05049 35.0866C0.966307 30.9857 1.76428 26.4485 3.18207 22.0303C4.59914 17.615 6.64777 13.3648 8.82613 9.89782C11.0129 6.41733 13.2996 3.77552 15.1723 2.52702C16.673 1.52652 17.7455 1.1814 18.6409 1.1362L18.6411 1.13619C18.7161 1.13237 18.7913 1.13073 18.8667 1.13073ZM15.2579 10.3828H14.7579V10.8828V16.1328H9.50788H9.00788V16.6328V19.8672V20.3672H9.50788H14.7579V25.6172V26.1172H15.2579H18.4923H18.9923V25.6172V20.3672H24.2423H24.7423V19.8672V16.6328V16.1328H24.2423H18.9923V10.8828V10.3828H18.4923H15.2579ZM28.3729 21.6483H27.8729V22.1483V25.3827V25.8827H28.3729H34.1229H34.6229V25.3827V22.1483V21.6483H34.1229H28.3729ZM39.8729 21.6483H39.3729V22.1483V25.3827V25.8827H39.8729H44.8857H45.3857V25.3827V22.1483V21.6483H44.8857H39.8729ZM59.5094 9.87901C58.8765 9.24607 58.018 8.8905 57.1229 8.8905C56.2278 8.8905 55.3694 9.24607 54.7364 9.87901C54.1035 10.5119 53.7479 11.3704 53.7479 12.2655C53.7479 13.1606 54.1035 14.019 54.7364 14.652C55.3694 15.2849 56.2278 15.6405 57.1229 15.6405C58.018 15.6405 58.8765 15.2849 59.5094 14.652C60.1423 14.019 60.4979 13.1606 60.4979 12.2655C60.4979 11.3704 60.1423 10.5119 59.5094 9.87901ZM53.7594 15.629C53.1265 14.9961 52.268 14.6405 51.3729 14.6405C50.4778 14.6405 49.6194 14.9961 48.9864 15.629C48.3535 16.2619 47.9979 17.1204 47.9979 18.0155C47.9979 18.9106 48.3535 19.769 48.9864 20.402C49.6194 21.0349 50.4778 21.3905 51.3729 21.3905C52.268 21.3905 53.1265 21.0349 53.7594 20.402C54.3923 19.7691 54.7479 18.9106 54.7479 18.0155C54.7479 17.1204 54.3923 16.2619 53.7594 15.629ZM65.2594 15.629C64.6265 14.9961 63.768 14.6405 62.8729 14.6405C61.9778 14.6405 61.1194 14.9961 60.4864 15.629C59.8535 16.2619 59.4979 17.1204 59.4979 18.0155C59.4979 18.9106 59.8535 19.769 60.4864 20.402C61.1194 21.0349 61.9778 21.3905 62.8729 21.3905C63.768 21.3905 64.6265 21.0349 65.2594 20.402C65.8923 19.7691 66.2479 18.9106 66.2479 18.0155C66.2479 17.1204 65.8923 16.2619 65.2594 15.629ZM59.5094 21.379C58.8765 20.7461 58.018 20.3905 57.1229 20.3905C56.2278 20.3905 55.3694 20.7461 54.7364 21.379C54.1035 22.0119 53.7479 22.8704 53.7479 23.7655C53.7479 24.6606 54.1035 25.519 54.7364 26.152C55.3694 26.7849 56.2278 27.1405 57.1229 27.1405C58.018 27.1405 58.8765 26.7849 59.5094 26.152C60.1423 25.519 60.4979 24.6606 60.4979 23.7655C60.4979 22.8704 60.1423 22.0119 59.5094 21.379Z" stroke="url(#paint1_linear_2001_1482)"/>
<defs>
<filter id="filter0_i_2001_1482" x="0.544434" y="-0.369629" width="72.9097" height="47.7295" filterUnits="userSpaceOnUse" color-interpolation-filters="sRGB">
<feFlood flood-opacity="0" result="BackgroundImageFix"/>
<feBlend mode="normal" in="SourceGraphic" in2="BackgroundImageFix" result="shape"/>
<feColorMatrix in="SourceAlpha" type="matrix" values="0 0 0 0 0 0 0 0 0 0 0 0 0 0 0 0 0 0 127 0" result="hardAlpha"/>
<feOffset dy="-1"/>
<feGaussianBlur stdDeviation="2"/>
<feComposite in2="hardAlpha" operator="arithmetic" k2="-1" k3="1"/>
<feColorMatrix type="matrix" values="0 0 0 0 0 0 0 0 0 0 0 0 0 0 0 0 0 0 0.25 0"/>
<feBlend mode="normal" in2="shape" result="effect1_innerShadow_2001_1482"/>
</filter>
<linearGradient id="paint0_linear_2001_1482" x1="36.9992" y1="0.630371" x2="36.9992" y2="47.3598" gradientUnits="userSpaceOnUse">
<stop offset="0.238159" stop-color="#9E91FF"/>
<stop offset="0.45" stop-color="#6C5DD3"/>
<stop offset="1" stop-color="#3D21FF"/>
</linearGradient>
<linearGradient id="paint1_linear_2001_1482" x1="36.9992" y1="0.630371" x2="36.9992" y2="47.3598" gradientUnits="userSpaceOnUse">
<stop stop-color="white"/>
<stop offset="0.55" stop-color="white" stop-opacity="0"/>
</linearGradient>
</defs>
</svg>
