<svg width="86" height="86" viewBox="0 0 86 86" fill="none" xmlns="http://www.w3.org/2000/svg">
<g filter="url(#filter0_i_2001_1721)">
<path d="M26.8114 0.357781C-0.19801 7.65166 -10.5804 32.6767 13.6607 41.0906H13.464C13.5781 41.1061 13.6929 41.124 13.8065 41.1409C15.421 41.6938 17.19 42.1711 19.113 42.5676C28.1507 46.1174 34.6878 54.719 35.2179 63.1248C29.1958 67.2748 24.5318 74.4171 24.5318 74.4171L29.254 81.3685L21.8473 85.5857H36.5763C29.3124 78.3201 34.4632 70.1495 43.0675 70.1495C51.7895 70.1495 56.3545 78.7946 49.5643 85.5857H64.1416L56.8867 81.3685L61.6095 74.4171C61.6095 74.4171 56.87 67.1577 50.7775 63.0238C51.3532 54.65 57.8752 46.1032 66.8766 42.5675C68.8004 42.1709 70.5685 41.6942 72.1828 41.1411C72.2965 41.124 72.4116 41.1061 72.5257 41.0908H72.3235C96.5682 32.6778 86.1887 7.65202 59.1781 0.357422C51.8609 7.43172 60.3533 18.6286 67.0172 10.5775C73.6476 22.9903 68.563 33.5033 54.0293 25.5645C51.8947 29.9654 47.8817 32.9989 43.1245 32.9989C38.3263 32.9989 34.2896 29.9142 32.1689 25.452C17.4752 33.6063 12.3113 23.0493 18.9732 10.5775C25.6378 18.6284 34.1298 7.43154 26.8123 0.357601L26.8114 0.357781ZM43.1252 6.81216C38.2039 6.81216 33.9018 11.7636 33.9018 18.2421C33.9018 24.7209 38.2039 29.5615 43.1252 29.5615C48.0463 29.5615 52.348 24.7207 52.348 18.2423C52.348 11.7631 48.0463 6.81234 43.125 6.81234L43.1252 6.81216Z" fill="url(#paint0_linear_2001_1721)"/>
</g>
<path d="M22.9636 28.8217C25.4223 28.8598 28.433 28.0257 31.9518 26.14C34.1938 30.4842 38.2676 33.4989 43.1245 33.4989C47.9404 33.4989 51.9909 30.5333 54.2444 26.2474C57.7259 28.0828 60.7043 28.8809 63.1355 28.8174C65.6903 28.7506 67.6364 27.7294 68.8677 25.992C70.0869 24.2718 70.5622 21.9116 70.3269 19.2286C70.0912 16.541 69.1406 13.4916 67.4582 10.3419L67.1071 9.68468L66.632 10.2587C65.0362 12.1866 63.3902 12.8968 61.9607 12.8721C60.5233 12.8472 59.1992 12.0781 58.2523 10.8363C56.3972 8.40359 56.0673 4.24029 59.3253 0.915872C72.5777 4.57048 81.6522 12.5105 84.5008 20.4731C85.9305 24.4696 85.7929 28.4622 83.8586 31.9608C81.9205 35.4663 78.1411 38.5428 72.1596 40.6184L72.163 40.6384C72.1446 40.6412 72.1264 40.644 72.1086 40.6466L72.0637 40.6534L72.0208 40.6681C70.4288 41.2135 68.6813 41.6849 66.7757 42.0777L66.7337 42.0864L66.6938 42.1021C57.535 45.6996 50.8692 54.4001 50.2787 62.9895L50.259 63.2762L50.4968 63.4375C53.4877 65.4669 56.1611 68.2753 58.0943 70.5911C59.0588 71.7464 59.8346 72.7737 60.3687 73.5114C60.6357 73.8802 60.8422 74.1763 60.9814 74.3796C60.9898 74.3919 60.998 74.4039 61.006 74.4156L56.4731 81.0875L56.1717 81.5312L56.6355 81.8007L62.2866 85.0857H50.7064C53.5247 81.7734 53.9521 78.0834 52.5873 75.1122C51.1116 71.8996 47.5949 69.6495 43.0675 69.6495C38.6143 69.6495 34.9784 71.7676 33.4229 74.9218C31.9709 77.866 32.3934 81.5794 35.4275 85.0857H23.736L29.5014 81.803L29.9717 81.5352L29.6676 81.0875L25.1353 74.4156C25.1422 74.4055 25.1493 74.3952 25.1565 74.3846C25.2936 74.1844 25.4968 73.8928 25.7598 73.5293C26.2858 72.8023 27.05 71.789 28.0008 70.6471C29.9065 68.3586 32.5443 65.5745 35.5016 63.5365L35.7347 63.3758L35.7169 63.0933C35.1731 54.4703 28.4913 45.7139 19.2958 42.1022L19.2559 42.0866L19.214 42.0779C17.3091 41.6851 15.5607 41.2132 13.9685 40.6679L13.9252 40.6531L13.88 40.6464C13.8609 40.6435 13.8413 40.6406 13.8214 40.6376L13.8247 40.6182C7.84408 38.5424 4.0656 35.4658 2.12824 31.9603C0.194586 28.4616 0.0576837 24.4691 1.48789 20.4727C4.33752 12.51 13.4127 4.57014 26.665 0.915991C29.9232 4.24026 29.5935 8.4035 27.7385 10.8362C26.7916 12.0779 25.4674 12.847 24.0301 12.872C22.6005 12.8968 20.9543 12.1865 19.3584 10.2587L18.8832 9.68472L18.5322 10.3419C16.8418 13.5065 15.8901 16.5702 15.66 19.2674C15.4304 21.96 15.9182 24.3258 17.1573 26.0422C18.4088 27.7757 20.3804 28.7817 22.9636 28.8217ZM34.4018 18.2421C34.4018 11.9685 38.5355 7.34552 43.076 7.31234H43.125C47.6848 7.31234 51.848 11.9453 51.848 18.2423C51.848 24.5316 47.6905 29.0615 43.1252 29.0615C38.5597 29.0615 34.4018 24.5318 34.4018 18.2421Z" stroke="url(#paint1_linear_2001_1721)"/>
<defs>
<filter id="filter0_i_2001_1721" x="0.0297852" y="-0.642578" width="85.9282" height="86.2285" filterUnits="userSpaceOnUse" color-interpolation-filters="sRGB">
<feFlood flood-opacity="0" result="BackgroundImageFix"/>
<feBlend mode="normal" in="SourceGraphic" in2="BackgroundImageFix" result="shape"/>
<feColorMatrix in="SourceAlpha" type="matrix" values="0 0 0 0 0 0 0 0 0 0 0 0 0 0 0 0 0 0 127 0" result="hardAlpha"/>
<feOffset dy="-1"/>
<feGaussianBlur stdDeviation="2"/>
<feComposite in2="hardAlpha" operator="arithmetic" k2="-1" k3="1"/>
<feColorMatrix type="matrix" values="0 0 0 0 0 0 0 0 0 0 0 0 0 0 0 0 0 0 0.25 0"/>
<feBlend mode="normal" in2="shape" result="effect1_innerShadow_2001_1721"/>
</filter>
<linearGradient id="paint0_linear_2001_1721" x1="42.994" y1="0.357422" x2="42.994" y2="85.5857" gradientUnits="userSpaceOnUse">
<stop offset="0.238159" stop-color="#9E91FF"/>
<stop offset="0.45" stop-color="#6C5DD3"/>
<stop offset="1" stop-color="#3D21FF"/>
</linearGradient>
<linearGradient id="paint1_linear_2001_1721" x1="42.994" y1="0.357422" x2="42.994" y2="85.5857" gradientUnits="userSpaceOnUse">
<stop stop-color="white"/>
<stop offset="0.55" stop-color="white" stop-opacity="0"/>
</linearGradient>
</defs>
</svg>
