<svg width="24" height="24" viewBox="0 0 24 24" fill="none" xmlns="http://www.w3.org/2000/svg">
<path fill-rule="evenodd" clip-rule="evenodd" d="M4 11C4 7.13401 7.13401 4 11 4C14.866 4 18 7.13401 18 11C18 14.866 14.866 18 11 18C7.13401 18 4 14.866 4 11ZM11 2C6.02944 2 2 6.02944 2 11C2 15.9706 6.02944 20 11 20C13.125 20 15.0779 19.2636 16.6175 18.032L20.2928 21.7073C20.6834 22.0978 21.3165 22.0978 21.7071 21.7073C22.0976 21.3168 22.0976 20.6836 21.7071 20.2931L18.0318 16.6178C19.2635 15.0781 20 13.1251 20 11C20 6.02944 15.9706 2 11 2Z" fill="#828289"/>
</svg>
