<svg width="86" height="82" viewBox="0 0 86 82" fill="none" xmlns="http://www.w3.org/2000/svg">
<g filter="url(#filter0_i_2001_1754)">
<path d="M52.939 0.604492L48.8062 2.51924L43.4997 24.6266L54.4272 4.5073L52.9394 0.604492H52.939ZM7.71383 4.98976C9.77089 18.8144 16.4161 30.4017 25.7164 40.1636C28.2559 38.4451 30.8204 36.6805 33.3923 34.8799C29.4111 29.9719 26.5911 24.7807 25.5591 19.3764C19.4113 14.6162 13.4099 9.78544 7.71401 4.98994L7.71383 4.98976ZM77.8764 4.99551C72.321 9.67422 66.4743 14.3874 60.4854 19.0395C58.6287 29.5034 50.0479 39.1778 39.2431 47.5423C27.4856 56.6442 12.9081 64.2413 0.55993 69.3574L0.55957 75.2476C17.3873 69.1145 35.6975 60.625 50.3106 48.9068C64.5122 37.5186 75.1665 23.2 77.8764 4.99551ZM35.4418 6.67451L33.9144 11.6722L41.2256 24.8001L39.9902 9.47099L35.4418 6.67451ZM56.0498 22.4534C37.1404 36.8735 17.1711 50.4205 0.55993 59.9517V65.7187C12.4044 60.7029 26.1798 53.4084 37.1882 44.8861C46.142 37.9549 53.1484 30.2393 56.05 22.4534H56.0498ZM30.0736 22.8406C31.3943 26.2349 33.4931 29.6113 36.183 32.9145C37.4462 32.0196 38.7087 31.1122 39.9733 30.2023C36.6592 27.7844 33.3495 25.3293 30.0736 22.8406ZM60.3678 44.4653C58.6477 46.1673 56.8496 47.8053 54.9941 49.3896C64.8615 56.0909 76.0585 61.8161 85.8835 65.9489V60.3623C78.0024 55.8722 69.3337 50.4561 60.3678 44.4653ZM52.2988 51.6187C50.2054 53.2934 48.0409 54.8985 45.8247 56.4424C58.4614 64.5526 72.6574 70.7769 85.8833 75.5566V69.5874C75.3072 65.2348 63.045 59.0349 52.2986 51.6187H52.2988ZM41.7646 60.9683L33.4652 75.0289L34.8691 79.2683L39.8554 77.2299L41.7646 60.9683ZM44.6116 61.1142L53.8428 79.914L60.3961 81.7612L59.7612 76.0172L44.6118 61.1142H44.6116Z" fill="url(#paint0_linear_2001_1754)"/>
</g>
<path d="M25.7873 39.5117C16.992 30.1871 10.6505 19.2158 8.41984 6.23542C13.7675 10.713 19.372 15.2153 25.1043 19.6566C26.1543 24.9445 28.8742 30.0055 32.6678 34.7764C30.3634 36.3867 28.0656 37.9675 25.7873 39.5117ZM36.8821 44.4908L37.1882 44.8861L36.8821 44.4908C26.1321 52.8129 12.7192 59.9687 1.05993 64.9623V60.2411C17.2149 50.9513 36.4985 37.9046 54.888 23.9648C51.7011 31.054 45.1532 38.088 36.8821 44.4908ZM46.7237 56.4229C48.6327 55.0775 50.5025 53.6852 52.3206 52.2407C62.9237 59.5162 74.9534 65.6075 85.3833 69.922V74.8433C72.5895 70.1838 58.9455 64.175 46.7237 56.4229ZM44.8717 21.0529L49.2359 2.87121L52.6631 1.28339L53.8781 4.47064L44.8717 21.0529ZM39.5491 47.9376C50.31 39.6072 58.983 29.9001 60.9432 19.317C66.516 14.9855 71.965 10.6014 77.1703 6.24154C74.1766 23.658 63.7903 37.4566 49.9978 48.5167C35.6391 60.0308 17.678 68.4273 1.05961 74.5322L1.05991 69.6912C13.3687 64.5656 27.8441 56.9989 39.5491 47.9376ZM40.5422 22.5455L34.4548 11.6148L35.7309 7.43922L39.5122 9.76405L40.5422 22.5455ZM39.1213 30.1992C38.1721 30.8818 37.2245 31.5616 36.277 32.2348C34.2029 29.6412 32.5075 27.0131 31.2758 24.3778C33.8778 26.3405 36.4978 28.2815 39.1213 30.1992ZM85.3835 65.1945C75.9323 61.1729 65.2858 55.7074 55.8169 49.3421C57.401 47.9735 58.9427 46.564 60.4287 45.1071C69.1863 50.9495 77.657 56.2408 85.3835 60.6527V65.1945ZM35.1755 78.6029L34.0113 75.0874L40.992 63.2609L39.3932 76.8787L35.1755 78.6029ZM54.1933 79.4933L46.3551 63.5306L59.2838 76.2489L59.8176 81.0787L54.1933 79.4933Z" stroke="url(#paint1_linear_2001_1754)"/>
<defs>
<filter id="filter0_i_2001_1754" x="0.55957" y="-0.395508" width="85.3237" height="82.1567" filterUnits="userSpaceOnUse" color-interpolation-filters="sRGB">
<feFlood flood-opacity="0" result="BackgroundImageFix"/>
<feBlend mode="normal" in="SourceGraphic" in2="BackgroundImageFix" result="shape"/>
<feColorMatrix in="SourceAlpha" type="matrix" values="0 0 0 0 0 0 0 0 0 0 0 0 0 0 0 0 0 0 127 0" result="hardAlpha"/>
<feOffset dy="-1"/>
<feGaussianBlur stdDeviation="2"/>
<feComposite in2="hardAlpha" operator="arithmetic" k2="-1" k3="1"/>
<feColorMatrix type="matrix" values="0 0 0 0 0 0 0 0 0 0 0 0 0 0 0 0 0 0 0.25 0"/>
<feBlend mode="normal" in2="shape" result="effect1_innerShadow_2001_1754"/>
</filter>
<linearGradient id="paint0_linear_2001_1754" x1="43.2215" y1="0.604492" x2="43.2215" y2="81.7612" gradientUnits="userSpaceOnUse">
<stop offset="0.238159" stop-color="#9E91FF"/>
<stop offset="0.45" stop-color="#6C5DD3"/>
<stop offset="1" stop-color="#3D21FF"/>
</linearGradient>
<linearGradient id="paint1_linear_2001_1754" x1="43.2215" y1="0.604492" x2="43.2215" y2="81.7612" gradientUnits="userSpaceOnUse">
<stop stop-color="white"/>
<stop offset="0.55" stop-color="white" stop-opacity="0"/>
</linearGradient>
</defs>
</svg>
