<svg width="32" height="32" viewBox="0 0 32 32" fill="none" xmlns="http://www.w3.org/2000/svg">
<mask id="mask0_1_5021" style="mask-type:alpha" maskUnits="userSpaceOnUse" x="0" y="0" width="32" height="32">
<rect width="32" height="32" fill="#D9D9D9"/>
</mask>
<g mask="url(#mask0_1_5021)">
<path d="M26.6663 9.33325C26.2886 9.33325 25.9719 9.20547 25.7163 8.94992C25.4608 8.69436 25.333 8.3777 25.333 7.99992V6.66658H23.9997C23.6219 6.66658 23.3052 6.53881 23.0497 6.28325C22.7941 6.0277 22.6663 5.71103 22.6663 5.33325C22.6663 4.95547 22.7941 4.63881 23.0497 4.38325C23.3052 4.1277 23.6219 3.99992 23.9997 3.99992H25.333V2.66659C25.333 2.28881 25.4608 1.97214 25.7163 1.71659C25.9719 1.46103 26.2886 1.33325 26.6663 1.33325C27.0441 1.33325 27.3608 1.46103 27.6163 1.71659C27.8719 1.97214 27.9997 2.28881 27.9997 2.66659V3.99992H29.333C29.7108 3.99992 30.0275 4.1277 30.283 4.38325C30.5386 4.63881 30.6663 4.95547 30.6663 5.33325C30.6663 5.71103 30.5386 6.0277 30.283 6.28325C30.0275 6.53881 29.7108 6.66658 29.333 6.66658H27.9997V7.99992C27.9997 8.3777 27.8719 8.69436 27.6163 8.94992C27.3608 9.20547 27.0441 9.33325 26.6663 9.33325ZM14.6663 23.3333C16.333 23.3333 17.7497 22.7499 18.9163 21.5833C20.083 20.4166 20.6663 18.9999 20.6663 17.3333C20.6663 15.6666 20.083 14.2499 18.9163 13.0833C17.7497 11.9166 16.333 11.3333 14.6663 11.3333C12.9997 11.3333 11.583 11.9166 10.4163 13.0833C9.24967 14.2499 8.66634 15.6666 8.66634 17.3333C8.66634 18.9999 9.24967 20.4166 10.4163 21.5833C11.583 22.7499 12.9997 23.3333 14.6663 23.3333ZM14.6663 20.6666C13.733 20.6666 12.9441 20.3444 12.2997 19.6999C11.6552 19.0555 11.333 18.2666 11.333 17.3333C11.333 16.3999 11.6552 15.611 12.2997 14.9666C12.9441 14.3221 13.733 13.9999 14.6663 13.9999C15.5997 13.9999 16.3886 14.3221 17.033 14.9666C17.6775 15.611 17.9997 16.3999 17.9997 17.3333C17.9997 18.2666 17.6775 19.0555 17.033 19.6999C16.3886 20.3444 15.5997 20.6666 14.6663 20.6666ZM3.99967 27.9999C3.26634 27.9999 2.63856 27.7388 2.11634 27.2166C1.59412 26.6944 1.33301 26.0666 1.33301 25.3333V9.33325C1.33301 8.59992 1.59412 7.97214 2.11634 7.44992C2.63856 6.9277 3.26634 6.66658 3.99967 6.66658H8.19967L9.86634 4.86659C10.1108 4.59992 10.4052 4.38881 10.7497 4.23325C11.0941 4.0777 11.4552 3.99992 11.833 3.99992H18.6663C19.0441 3.99992 19.3608 4.1277 19.6163 4.38325C19.8719 4.63881 19.9997 4.95547 19.9997 5.33325V7.33325C19.9997 7.88881 20.1941 8.36103 20.583 8.74992C20.9719 9.13881 21.4441 9.33325 21.9997 9.33325H22.6663V9.99992C22.6663 10.5555 22.8608 11.0277 23.2497 11.4166C23.6386 11.8055 24.1108 11.9999 24.6663 11.9999H26.6663C27.0441 11.9999 27.3608 12.1277 27.6163 12.3833C27.8719 12.6388 27.9997 12.9555 27.9997 13.3333V25.3333C27.9997 26.0666 27.7386 26.6944 27.2163 27.2166C26.6941 27.7388 26.0663 27.9999 25.333 27.9999H3.99967Z" fill="#828289"/>
</g>
</svg>
