<svg width="63" height="87" viewBox="0 0 63 87" fill="none" xmlns="http://www.w3.org/2000/svg">
<g filter="url(#filter0_i_2001_1490)">
<path d="M2.60397 0.339355L2.5745 28.434C3.12506 28.5251 3.69 28.682 4.26177 28.9061C10.8196 31.4767 17.5971 32.9374 24.3623 33.4832L32.1611 22.6272L39.765 33.2119C46.3789 32.4703 52.8042 30.9655 58.8059 28.8832C59.4805 28.6493 60.1298 28.4915 60.7498 28.4161L61.0234 0.339535L47.3995 17.509L41.2751 0.339894L31.6215 18.9807L21.9684 0.339894L15.5999 17.509L2.60487 0.339894H2.60379L2.60397 0.339355ZM32.1611 28.3832L27.0156 35.5455L32.1608 42.7079L37.3065 35.5455L32.1611 28.3832ZM1.58981 31.7002C1.19935 31.6858 0.899814 31.7494 0.689221 31.8371C0.267853 32.0127 0.119072 32.2306 0.0610327 32.5911C-0.0548658 33.3116 0.56865 35.1696 4.19924 36.4292C11.6922 39.0289 19.3401 40.6964 26.9797 41.2508L23.7902 36.8118C16.8232 36.2215 9.83028 34.696 3.0363 32.0328C2.46184 31.8077 1.98028 31.7146 1.58981 31.7002ZM61.4752 31.7343C61.0878 31.7437 60.5681 31.8263 59.9069 32.056C53.8726 34.1493 47.4209 35.6884 40.766 36.4846L37.3045 41.3034C44.5687 40.8359 51.7573 39.2753 58.7268 36.459C61.5862 35.3037 62.5829 33.2588 62.565 32.4409C62.5556 32.0319 62.515 31.9798 62.25 31.8526C62.1174 31.7891 61.8626 31.725 61.4752 31.7343ZM58.2198 40.2584C50.5831 43.11 42.7199 44.545 34.8133 44.7716L32.1611 48.4636L29.4877 44.7423C21.4045 44.4287 13.3195 42.9041 5.42668 40.3748C3.13028 45.4977 2.0234 51.3609 1.90427 57.1648C8.64614 60.3088 13.0691 64.3194 15.4807 68.778C17.8045 73.0732 18.2145 77.7128 17.2985 82.09C18.6856 82.9897 20.1961 83.733 21.7871 84.3238L22.7856 75.7186L26.1211 76.1056L25.0547 85.2977C26.7743 85.6948 28.5483 85.932 30.3333 86.0133V76.1897H33.6917V85.9809C35.4711 85.8663 37.2324 85.5985 38.9305 85.1752L37.8781 76.1056L41.2138 75.7184L42.1906 84.1371C43.7623 83.5222 45.246 82.7638 46.594 81.8569C45.5593 77.4702 45.9166 72.9325 48.213 68.7419C50.5992 64.3873 54.9904 60.4762 61.6541 57.1898C61.5427 51.1656 60.4526 45.3085 58.2198 40.2578V40.2584ZM10.2912 48.7047C16.5087 48.7461 22.5831 50.9034 28.5039 55.3293C20.1298 61.2854 5.18159 61.5055 9.04559 48.7249C9.46157 48.7087 9.87682 48.7021 10.2914 48.7051L10.2912 48.7047ZM53.9238 48.7047C54.3383 48.7019 54.7534 48.7087 55.169 48.7245C59.0334 61.5053 44.0852 61.2852 35.711 55.3293C41.6317 50.9036 47.7063 48.7461 53.9238 48.7049V48.7047ZM31.8495 57.6812C33.9645 61.5849 35.2983 65.489 36.4077 69.3929H27.2909C28.112 65.489 29.7652 61.5855 31.8495 57.6809V57.6812Z" fill="url(#paint0_linear_2001_1490)"/>
</g>
<path d="M60.0709 32.5283L60.0707 32.5284C54.0703 34.61 47.6589 36.1466 41.044 36.9546L38.3333 40.7283C45.1855 40.1852 51.9612 38.6536 58.5395 35.9955C59.8914 35.4492 60.7846 34.7006 61.334 34.0117C61.8989 33.3033 62.0703 32.6998 62.0651 32.4523C62.0637 32.3922 62.0617 32.3484 62.0593 32.3158C62.0516 32.312 62.043 32.3079 62.0336 32.3033L62.0536 32.2617C62.0522 32.2525 62.0512 32.2487 62.0513 32.2491C62.0513 32.2494 62.0523 32.2532 62.0547 32.2594L62.25 31.8526M60.0709 32.5283L62.055 32.2602L62.25 31.8526M60.0709 32.5283C60.6912 32.3129 61.1594 32.2421 61.4872 32.2342C61.8222 32.2261 61.9931 32.284 62.0342 32.3036L62.0538 32.2628L60.0709 32.5283ZM62.25 31.8526C62.515 31.9798 62.5556 32.0319 62.565 32.4409M62.25 31.8526C62.1174 31.7891 61.8626 31.725 61.4752 31.7343C61.0878 31.7437 60.5681 31.8263 59.9069 32.056L62.565 32.4409M62.565 32.4409C62.5829 33.2588 61.5862 35.3037 58.7268 36.459C51.9645 39.1916 44.9959 40.742 37.9522 41.2588L62.565 32.4409ZM16.0687 17.6829L22.0441 1.57345L31.1775 19.2106L31.6215 20.068L32.0655 19.2106L41.1904 1.59069L46.9286 17.677L47.2313 18.5255L47.7912 17.8198L60.5093 1.79193L60.254 27.9846C59.7293 28.0767 59.1912 28.2204 58.6421 28.4108L58.642 28.4109C52.7618 30.4509 46.473 31.9335 39.9999 32.6819L32.5672 22.3355L32.1611 21.7703L31.7551 22.3355L24.1214 32.9616C17.4943 32.4019 10.8621 30.9563 4.44424 28.4405L4.4442 28.4405C3.98464 28.2604 3.52704 28.1207 3.07493 28.0214L3.10241 1.82574L15.2012 17.8108L15.7515 18.5379L16.0687 17.6829ZM42.6115 83.4265L41.7105 75.6608L41.6528 75.1641L41.1561 75.2217L37.8204 75.609L37.3238 75.6666L37.3814 76.1633L38.3828 84.7928C37.0176 85.1099 35.6126 85.3263 34.1917 85.443V76.1897V75.6897H33.6917H30.3333H29.8333V76.1897V85.4854C28.4047 85.3955 26.9869 85.2034 25.6033 84.9075L26.6178 76.1633L26.6754 75.6666L26.1787 75.609L22.8432 75.2219L22.3465 75.1643L22.2889 75.661L21.3648 83.6248C20.1319 83.1299 18.9553 82.5395 17.8563 81.8524C18.7026 77.4743 18.2472 72.8408 15.9205 68.5401C13.4811 64.0301 9.0584 60.007 2.41185 56.8511C2.55965 51.3613 3.60227 45.8449 5.70323 40.9874C13.4191 43.4224 21.3191 44.9017 29.2239 45.2321L31.7551 48.7553L32.1611 49.3206L32.5672 48.7553L35.0753 45.2639C42.7965 45.0181 50.4779 43.6248 57.9495 40.8913C59.9865 45.6817 61.0095 51.1937 61.1475 56.8832C54.5834 60.1699 50.1905 64.0927 47.7745 68.5016C45.4708 72.7056 45.0679 77.2454 46.0297 81.6303C44.967 82.3186 43.82 82.9168 42.6115 83.4265ZM10.2945 48.2048L9.47946 48.1993L9.48539 48.2112C9.33239 48.2146 9.17932 48.2193 9.02616 48.2253L8.6701 48.2391L8.56698 48.5802C7.57725 51.8538 7.763 54.3938 8.84708 56.2394C9.93208 58.0867 11.8523 59.129 14.0942 59.545C18.5543 60.3725 24.5199 58.7765 28.7937 55.7367L29.3525 55.3393L28.8033 54.9288C22.8101 50.4489 16.6342 48.2469 10.2945 48.2048ZM53.9203 48.2048L53.4238 48.2082V48.2127C47.2581 48.3635 41.2481 50.5661 35.4117 54.9288L34.8625 55.3393L35.4212 55.7367C39.695 58.7764 45.6607 60.3724 50.1207 59.5448C52.3626 59.1288 54.2828 58.0865 55.3678 56.2392C56.4518 54.3935 56.6375 51.8535 55.6476 48.5798L55.5444 48.2384L55.188 48.2249C54.7653 48.2088 54.3427 48.2018 53.9203 48.2048ZM32.2892 57.443L32.008 57.5954L31.4085 57.4454C29.3123 61.3721 27.6362 65.3223 26.8016 69.29L26.6748 69.8929H27.2909H36.4077H37.0696L36.8886 69.2562C35.7745 65.3357 34.4289 61.3924 32.2892 57.443ZM32.1608 41.8509L27.6312 35.5455L32.1611 29.2401L36.6908 35.5455L32.1608 41.8509ZM25.9446 40.667C18.7092 40.0433 11.4687 38.4221 4.36313 35.9568C0.820598 34.7278 0.496976 33.0293 0.554688 32.6705C0.575536 32.5411 0.604416 32.4883 0.629425 32.457C0.656387 32.4233 0.717222 32.3671 0.881418 32.2987C1.01725 32.2422 1.24372 32.1878 1.57142 32.1999C1.89776 32.2119 2.32385 32.2906 2.85382 32.4983C9.62148 35.1511 16.583 36.6823 23.5183 37.2902L25.9446 40.667Z" stroke="url(#paint1_linear_2001_1490)"/>
<defs>
<filter id="filter0_i_2001_1490" x="0.0483398" y="-0.660645" width="62.5171" height="86.6738" filterUnits="userSpaceOnUse" color-interpolation-filters="sRGB">
<feFlood flood-opacity="0" result="BackgroundImageFix"/>
<feBlend mode="normal" in="SourceGraphic" in2="BackgroundImageFix" result="shape"/>
<feColorMatrix in="SourceAlpha" type="matrix" values="0 0 0 0 0 0 0 0 0 0 0 0 0 0 0 0 0 0 127 0" result="hardAlpha"/>
<feOffset dy="-1"/>
<feGaussianBlur stdDeviation="2"/>
<feComposite in2="hardAlpha" operator="arithmetic" k2="-1" k3="1"/>
<feColorMatrix type="matrix" values="0 0 0 0 0 0 0 0 0 0 0 0 0 0 0 0 0 0 0.25 0"/>
<feBlend mode="normal" in2="shape" result="effect1_innerShadow_2001_1490"/>
</filter>
<linearGradient id="paint0_linear_2001_1490" x1="31.3068" y1="0.339355" x2="31.3068" y2="86.0133" gradientUnits="userSpaceOnUse">
<stop offset="0.238159" stop-color="#9E91FF"/>
<stop offset="0.45" stop-color="#6C5DD3"/>
<stop offset="1" stop-color="#3D21FF"/>
</linearGradient>
<linearGradient id="paint1_linear_2001_1490" x1="31.3068" y1="0.339355" x2="31.3068" y2="86.0133" gradientUnits="userSpaceOnUse">
<stop stop-color="white"/>
<stop offset="0.55" stop-color="white" stop-opacity="0"/>
</linearGradient>
</defs>
</svg>
